<?xml version="1.0" encoding="utf-8" ?><svg xmlns="http://www.w3.org/2000/svg" xmlns:xlink="http://www.w3.org/1999/xlink" width="1344" height="768" viewBox="0 0 1344 768"><path fill="#0A1828" d="M0 0L1344 0L1344 130.346L1344 167.628L1344 255.078L1344 257.067L1344 270.418L1344 272.24L1344 284.115L1344 322.754L1344 324.319L1344 329.65L1344 407.966L1344 447.076L1344 481.267L1344 512.819L1344 537.256L1344 601.726L1344 603.001L1344 667.786L1344 669.876L1344 768L0 768L0 0Z"/><path fill="#051D38" d="M1340.84 330.236L1344 329.65L1344 407.966L1344 447.076L1344 481.267L1344 512.819L1344 537.256C1340.65 537.231 1334.73 536.567 1332.44 538.41C1331.86 520.493 1322.24 506.385 1303.6 504.297C1303.16 504.264 1300.71 503.867 1300.59 503.579C1295.49 490.648 1289.75 481.783 1279.99 472.008C1266.11 459.705 1243.03 444.261 1227.39 432.786C1233.73 429.571 1236.08 425.793 1238.55 419.076C1236.94 416.293 1235.74 413.181 1234.55 410.185L1234.74 408.859C1237.26 410.479 1238.37 416.134 1240.57 419.479C1242.37 418.596 1244.26 416.962 1245.66 415.501C1248.8 412.2 1252.38 410.743 1253.7 406.298C1251.98 402.618 1250.95 398.657 1250.65 394.609C1249.72 381.992 1255.97 369.925 1266.81 363.407C1277.65 356.89 1291.24 357.033 1301.94 363.777C1303.52 364.773 1305.02 365.901 1306.41 367.147C1311.6 361.527 1313.31 358.93 1317.35 352.659C1312.58 348.967 1310.13 346.816 1304.53 344.123C1301.51 342.327 1295.24 341.464 1292.1 339.041C1296.99 339.499 1298.3 339.989 1302.82 341.602C1309.23 344.75 1313.04 347.197 1318.58 351.807C1322.12 347.895 1337.34 332.056 1340.84 330.236Z"/><path fill="#17B8BE" d="M1250.65 394.609C1249.72 381.992 1255.97 369.925 1266.81 363.407C1277.65 356.89 1291.24 357.033 1301.94 363.777C1303.52 364.773 1305.02 365.901 1306.41 367.147C1317.96 377.475 1320.93 394.376 1313.59 408.022C1311.12 412.605 1307.62 416.55 1303.37 419.546C1295.25 425.26 1285.03 427.084 1275.44 424.527C1265.85 421.969 1257.89 415.294 1253.7 406.298C1251.98 402.618 1250.95 398.657 1250.65 394.609Z"/><defs><linearGradient id="gradient_0" gradientUnits="userSpaceOnUse" x1="1307.3022" y1="447.17368" x2="1353.7672" y2="528.55164"><stop offset="0" stop-color="#0B141F"/><stop offset="1" stop-color="#041F3F"/></linearGradient></defs><path fill="url(#gradient_0)" d="M1344 447.076L1344 481.267L1344 512.819L1344 537.256C1340.65 537.231 1334.73 536.567 1332.44 538.41C1331.86 520.493 1322.24 506.385 1303.6 504.297C1304.36 497.328 1303.98 486.613 1303.93 479.35C1304.57 471.708 1304.19 456.174 1304.25 448.084C1313.43 446.921 1333.92 447.143 1344 447.076Z"/><path fill="#12BCD5" d="M1320.82 477.772C1318.18 476.373 1316.28 476.121 1313.98 473.77C1307.7 467.439 1311.33 456.627 1319.64 454.617C1325.18 453.275 1332.12 458.141 1332.7 463.753C1333.6 472.418 1329.63 475.278 1322.35 477.314L1320.82 477.772Z"/><path fill="#152238" d="M1326.72 497.45C1328.82 493.99 1340.47 483.649 1344 481.267L1344 512.819C1343.85 513.454 1343.56 515.446 1342.79 515.749C1342.72 515.779 1342.44 515.736 1342.42 515.667C1341.65 512.785 1342.03 507.459 1342.03 504.451C1338.89 504.393 1337.46 505.041 1334.79 503.328C1336.34 503.145 1339.96 503.176 1341.01 502.562C1341.75 502.13 1340.23 501.472 1339.44 501.502C1334.39 501.695 1330.6 500.671 1326.72 497.45Z"/><path fill="#15A1BC" d="M1320.82 477.772L1322.35 477.314C1322.32 485.166 1320.41 491.954 1326.72 497.45C1330.6 500.671 1334.39 501.695 1339.44 501.502C1340.23 501.472 1341.75 502.13 1341.01 502.562C1339.96 503.176 1336.34 503.145 1334.79 503.328C1329.06 500.741 1328.05 501.597 1323.38 496.051C1320.21 492.291 1320.1 482.396 1320.82 477.772Z"/><path fill="#152238" d="M1253.7 406.298C1257.89 415.294 1265.85 421.969 1275.44 424.527C1285.03 427.084 1295.25 425.26 1303.37 419.546C1303.12 425.998 1303.11 432.525 1304.07 438.9C1279.75 448.657 1255.21 441.202 1240.57 419.479C1242.37 418.596 1244.26 416.962 1245.66 415.501C1248.8 412.2 1252.38 410.743 1253.7 406.298Z"/><path fill="#152238" d="M1340.84 330.236L1344 329.65L1344 407.966L1333.84 407.964C1339.99 385.665 1335.55 368.839 1319.46 352.515L1318.58 351.807C1322.12 347.895 1337.34 332.056 1340.84 330.236Z"/><path fill="#08324C" d="M1340.84 330.236C1341.34 330.428 1342.37 330.697 1342.6 331.188C1342 331.891 1338.65 332.827 1337.45 334.126C1331.86 340.197 1325.79 347.213 1319.46 352.515L1318.58 351.807C1322.12 347.895 1337.34 332.056 1340.84 330.236Z"/><path fill="#152238" d="M1317.35 352.659C1333.91 368.352 1338.51 386.619 1332.09 408.431C1327.1 407.83 1318.7 408.032 1313.59 408.022C1320.93 394.376 1317.96 377.475 1306.41 367.147C1311.6 361.527 1313.31 358.93 1317.35 352.659Z"/><path fill="#152238" d="M1279.99 472.008C1283.35 466.329 1297.76 452.415 1303.29 448.551C1303.27 456.401 1302.8 472.624 1303.93 479.35C1303.98 486.613 1304.36 497.328 1303.6 504.297C1303.16 504.264 1300.71 503.867 1300.59 503.579C1295.49 490.648 1289.75 481.783 1279.99 472.008Z"/><path fill="#0A1828" d="M1313.59 408.022C1318.7 408.032 1327.1 407.83 1332.09 408.431C1326.38 423.015 1318.11 431.889 1304.07 438.9C1303.11 432.525 1303.12 425.998 1303.37 419.546C1307.62 416.55 1311.12 412.605 1313.59 408.022Z"/><path fill="#15A1BC" d="M1304.53 344.123C1301.51 342.327 1295.24 341.464 1292.1 339.041C1296.99 339.499 1298.3 339.989 1302.82 341.602C1309.23 344.75 1313.04 347.197 1318.58 351.807L1319.46 352.515C1335.55 368.839 1339.99 385.665 1333.84 407.964C1328.06 422.891 1318.38 434.276 1303.5 440.749C1291.15 446.122 1277.17 446.33 1264.66 441.326C1254.76 437.247 1243.91 428.385 1238.55 419.076C1236.94 416.293 1235.74 413.181 1234.55 410.185L1234.74 408.859C1237.26 410.479 1238.37 416.134 1240.57 419.479C1255.21 441.202 1279.75 448.657 1304.07 438.9C1318.11 431.889 1326.38 423.015 1332.09 408.431C1338.51 386.619 1333.91 368.352 1317.35 352.659C1312.58 348.967 1310.13 346.816 1304.53 344.123Z"/><path fill="#15A1BC" d="M1116.61 384.851C1163.87 384.908 1189.57 387.601 1225.93 350.868C1250.62 325.932 1261.42 291.751 1261.66 256.97C1261.68 254.601 1261.11 252.185 1262.15 250.257C1263.96 250.629 1263.64 250.276 1264.64 251.402C1262.18 262.57 1263.24 270.526 1261.3 281.118C1254.09 320.511 1241.33 339.214 1212.83 364.761C1211.87 367.91 1212.8 384.52 1212.75 389.251C1217.03 389.247 1227.69 388.981 1231.45 389.476C1232.35 375.102 1238.7 361.614 1249.21 351.77C1260.62 341.223 1273.52 337.686 1288.81 338.186C1288.64 325.881 1284.63 301.951 1302.09 301.283C1304.86 304.794 1302.77 329.922 1303.32 335.906C1303.41 336.951 1303.04 340.465 1302.82 341.602C1298.3 339.989 1296.99 339.499 1292.1 339.041C1295.24 341.464 1301.51 342.327 1304.53 344.123C1310.13 346.816 1312.58 348.967 1317.35 352.659C1313.31 358.93 1311.6 361.527 1306.41 367.147C1305.02 365.901 1303.52 364.773 1301.94 363.777C1291.24 357.033 1277.65 356.89 1266.81 363.407C1255.97 369.925 1249.72 381.992 1250.65 394.609C1250.95 398.657 1251.98 402.618 1253.7 406.298C1252.38 410.743 1248.8 412.2 1245.66 415.501C1244.26 416.962 1242.37 418.596 1240.57 419.479C1238.37 416.134 1237.26 410.479 1234.74 408.859C1228.93 409.006 1214.61 410.122 1210.5 407.079C1206.37 404.791 1196.5 400.041 1192.38 399.938C1178.99 399.605 1126.84 397.58 1116.64 399.553C1116.97 396.654 1116.88 395.421 1116.85 392.52L1116.27 391.827C1115.79 383.606 1112.55 376.345 1109.6 368.746L1128.79 369.185C1128.87 364.019 1128.88 358.851 1128.82 353.685C1129.22 353.794 1129.65 353.83 1130.06 353.791C1129.92 358.66 1130.08 364.219 1130.11 369.143C1183.15 367.65 1225.34 335.931 1244.72 287.004C1246.72 281.94 1254.14 257.185 1256.18 254.458C1257.07 254.738 1257.54 254.942 1258.38 255.316C1261.38 276.44 1245.74 311.98 1233.09 328.713C1203.91 367.317 1162.36 381.21 1115.01 379.118L1116.61 384.851Z"/><path fill="#152238" d="M1302.09 301.283C1304.86 304.794 1302.77 329.922 1303.32 335.906C1303.41 336.951 1303.04 340.465 1302.82 341.602C1298.3 339.989 1296.99 339.499 1292.1 339.041C1295.24 341.464 1301.51 342.327 1304.53 344.123C1310.13 346.816 1312.58 348.967 1317.35 352.659C1313.31 358.93 1311.6 361.527 1306.41 367.147C1305.02 365.901 1303.52 364.773 1301.94 363.777C1291.24 357.033 1277.65 356.89 1266.81 363.407C1255.97 369.925 1249.72 381.992 1250.65 394.609C1248 390.794 1237.05 394.492 1231.93 392.253C1233.38 390.954 1233.45 386.407 1233.77 384.191C1236.79 363.573 1251.67 345.811 1272.34 341.132C1278.7 339.694 1283.67 339.831 1290.15 339.907C1290.38 330.706 1289.5 321.72 1290.61 312.554C1291.75 303.289 1299.26 304.967 1302.09 301.283Z"/><path fill="#0A1828" d="M1304.53 344.123C1310.13 346.816 1312.58 348.967 1317.35 352.659C1313.31 358.93 1311.6 361.527 1306.41 367.147C1305.02 365.901 1303.52 364.773 1301.94 363.777C1303.14 359.012 1302.86 345.967 1304.53 344.123Z"/><path fill="#0A1828" d="M1255.64 258.756C1256.86 260.954 1256.53 262.757 1256.81 265.513C1255.89 291.118 1236.59 326.561 1217.53 343.846C1186.09 372.353 1154.99 378.74 1114.35 377.677L1111.55 370.167C1116.54 370.242 1121.55 370.564 1126.49 370.618C1180.48 371.216 1226.56 338.016 1245.83 288.001C1249.59 278.241 1252.4 268.639 1255.64 258.756Z"/><path fill="#0A1828" d="M1231.45 389.476L1230.5 390.381L1141.31 390.986C1138.14 390.977 1119.77 391.148 1117.68 390.547L1116.99 388.278C1118.38 385.321 1127.51 386.626 1131.59 386.601C1167.56 386.383 1183.38 385.622 1212.83 364.761C1211.87 367.91 1212.8 384.52 1212.75 389.251C1217.03 389.247 1227.69 388.981 1231.45 389.476Z"/><path fill="#0A1828" d="M1212.48 392.035C1217.53 392.032 1227.27 391.757 1231.93 392.253C1237.05 394.492 1248 390.794 1250.65 394.609C1250.95 398.657 1251.98 402.618 1253.7 406.298C1252.38 410.743 1248.8 412.2 1245.66 415.501C1244.26 416.962 1242.37 418.596 1240.57 419.479C1238.37 416.134 1237.26 410.479 1234.74 408.859C1228.93 409.006 1214.61 410.122 1210.5 407.079C1211.91 402.055 1209.84 398.892 1212.48 392.035Z"/><path fill="#152238" d="M1116.85 392.52C1146.32 393.577 1182.68 392.518 1212.48 392.035C1209.84 398.892 1211.91 402.055 1210.5 407.079C1206.37 404.791 1196.5 400.041 1192.38 399.938C1178.99 399.605 1126.84 397.58 1116.64 399.553C1116.97 396.654 1116.88 395.421 1116.85 392.52Z"/><path fill="#051D38" d="M1256.18 254.458C1257.07 254.738 1257.54 254.942 1258.38 255.316C1256.81 257.942 1257.6 261.44 1256.81 265.513C1256.53 262.757 1256.86 260.954 1255.64 258.756C1256.17 257.136 1256.08 256.149 1256.18 254.458Z"/><path fill="#152238" d="M1271.47 540.12C1272.82 547.332 1273.9 551.578 1278.55 557.537C1277.43 558.486 1276.67 559.008 1276.64 560.834C1276.5 569.456 1276.79 578.468 1276.9 587.086C1277 601.872 1276.99 616.659 1276.87 631.445C1270.28 631.469 1231.51 630.895 1228.86 632.54L1228.2 633.927C1227.38 630.758 1230 630.758 1227.17 630.009L1227.26 628.088L1227.25 627.009L1226.48 624.282L1225.8 624.048C1224.7 621.475 1223.58 619.996 1222.01 617.701C1221.08 616.063 1219.38 614.972 1217.89 613.728C1215.1 613.489 1211.38 613.354 1208.86 612.382C1208.21 611.001 1209.76 606.039 1209.43 601.174C1216.91 591.706 1270.76 543.683 1271.47 540.12Z"/><path fill="#117D9A" d="M1217.89 613.728C1217.96 613.53 1218.09 612.957 1218.31 612.838C1219.18 612.981 1222.34 615.879 1223.3 616.632C1223.11 617.066 1222.42 617.427 1222.01 617.701C1221.08 616.063 1219.38 614.972 1217.89 613.728Z"/><path fill="#15A1BC" d="M1225.8 624.048C1226.11 623.616 1226.72 622.533 1227.39 623.087C1227.53 623.638 1226.81 623.982 1226.48 624.282L1225.8 624.048Z"/><path fill="#117D9A" d="M1227.25 627.009C1227.61 627.056 1228.07 627.044 1228.29 627.259C1227.93 627.559 1227.77 627.726 1227.26 628.088L1227.25 627.009Z"/><path fill="#0A1828" d="M1272.76 538.875C1276.65 537.542 1282.45 534.869 1285.61 538.238C1286.51 546.763 1293.78 553.183 1302.35 553.025C1310.92 552.866 1317.94 546.18 1318.53 537.627C1320.88 536.815 1329.06 534.571 1330.26 538.657C1330.46 539.34 1330.33 541.507 1330.31 542.321C1328.33 550.485 1323.98 557.336 1316.77 561.866C1314.48 563.301 1312.02 564.449 1309.45 565.282C1309.81 565.582 1310.48 566.107 1310.76 566.441C1323.52 560.999 1330.62 552.334 1332.44 538.41C1334.73 536.567 1340.65 537.231 1344 537.256L1344 601.726L1344 603.001L1344 667.786C1337.48 663.236 1338.84 658.777 1338.85 651.394C1333.57 646.812 1329.24 642.977 1324.28 637.996C1323.5 626.78 1324.58 615.411 1323.76 604.074C1319 598.896 1312.1 592.382 1307 587.297C1306.85 583.037 1307.41 568.867 1304.52 566.634C1286.17 565.778 1275.52 557.207 1272.76 538.875Z"/><path fill="#0A1828" d="M1344 537.256L1344 601.726C1325.11 597.212 1315.01 584.861 1310.76 566.441C1323.52 560.999 1330.62 552.334 1332.44 538.41C1334.73 536.567 1340.65 537.231 1344 537.256Z"/><path fill="#CBCDD0" d="M1309.45 565.282C1309.81 565.582 1310.48 566.107 1310.76 566.441C1315.01 584.861 1325.11 597.212 1344 601.726L1344 603.001C1326.34 598.978 1309.86 584.342 1309.45 565.282Z"/><path fill="#051D38" d="M1277.02 471.406C1287.58 481.05 1294.8 491.042 1298.99 504.623C1299.29 505.595 1301.86 505.598 1302.71 505.67C1308.3 506.424 1308.53 506.2 1313.87 508.555C1325.62 515.25 1333.5 528.656 1330.31 542.321C1330.33 541.507 1330.46 539.34 1330.26 538.657C1329.06 534.571 1320.88 536.815 1318.53 537.627C1317.94 546.18 1310.92 552.866 1302.35 553.025C1293.78 553.183 1286.51 546.763 1285.61 538.238C1282.45 534.869 1276.65 537.542 1272.76 538.875C1271.65 525.891 1278.12 517.222 1287.84 509.721C1283.93 496.65 1278.94 489.046 1269.71 479.102C1273.02 477.176 1275.08 474.601 1277.02 471.406Z"/><path fill="#17B8BE" d="M1285.61 538.238C1284.95 532.023 1287.85 525.968 1293.11 522.589C1298.36 519.211 1305.08 519.086 1310.45 522.267C1315.83 525.449 1318.96 531.392 1318.53 537.627C1317.94 546.18 1310.92 552.866 1302.35 553.025C1293.78 553.183 1286.51 546.763 1285.61 538.238Z"/><path fill="#0A1828" d="M1302.71 505.67C1308.3 506.424 1308.53 506.2 1313.87 508.555C1313.64 508.988 1313.4 509.421 1313.17 509.854C1302.47 520.615 1303.17 520.362 1302.71 505.67Z"/><path fill="#152238" d="M1268.31 479.863C1277.59 489.301 1281.77 496.48 1286.37 508.978C1278.55 515.282 1268.81 526.95 1271.62 537.829C1266.93 537.354 1255.72 537.632 1250.52 537.637C1237.06 537.719 1223.59 537.67 1210.13 537.491C1218.81 529.281 1227.31 520.674 1235.98 512.368C1246.34 502.446 1259.31 490.882 1268.31 479.863Z"/><path fill="#15A1BC" d="M1178.98 496.169C1174.22 493.842 1170.85 491.698 1167.71 487.275C1164.19 482.242 1162.86 476.007 1163.99 469.975C1165.06 463.657 1168.66 458.046 1173.95 454.433C1178.8 451.12 1184.79 449.918 1190.54 451.103C1198.06 452.59 1202.85 456.814 1207.04 462.927C1233.94 456.014 1249.16 460.425 1269.71 479.102C1278.94 489.046 1283.93 496.65 1287.84 509.721C1278.12 517.222 1271.65 525.891 1272.76 538.875C1275.52 557.207 1286.17 565.778 1304.52 566.634L1304.41 567.525L1298.01 567.922C1297.71 567.442 1297.22 567.114 1296.66 567.021C1296.11 566.929 1295.54 567.081 1295.1 567.438C1287.6 564.919 1284.21 563.019 1278.55 557.537C1273.9 551.578 1272.82 547.332 1271.47 540.12L1271.62 537.829C1268.81 526.95 1278.55 515.282 1286.37 508.978C1281.77 496.48 1277.59 489.301 1268.31 479.863C1248.07 461.676 1234.2 457.894 1207.7 464.486C1211.7 479.082 1206.96 492.049 1191.54 496.775C1187.07 498.145 1182.73 495.975 1179.64 496.629L1178.98 496.169Z"/><path fill="#152238" d="M1182 452.879C1193.6 450.46 1204.95 457.906 1207.36 469.504C1209.77 481.102 1202.32 492.456 1190.72 494.858C1179.14 497.257 1167.8 489.813 1165.39 478.226C1162.99 466.64 1170.42 455.294 1182 452.879Z"/><path fill="#17B8BE" d="M1184.05 463.143C1189.79 461.434 1195.83 464.722 1197.51 470.476C1199.2 476.23 1195.89 482.257 1190.13 483.918C1184.4 485.568 1178.42 482.279 1176.74 476.559C1175.07 470.839 1178.33 464.841 1184.05 463.143Z"/><path fill="#152238" d="M1116.64 399.553C1126.84 397.58 1178.99 399.605 1192.38 399.938C1196.5 400.041 1206.37 404.791 1210.5 407.079C1214.61 410.122 1228.93 409.006 1234.74 408.859L1234.55 410.185C1235.74 413.181 1236.94 416.293 1238.55 419.076C1236.08 425.793 1233.73 429.571 1227.39 432.786C1221.99 428.841 1216.01 424.673 1210.28 421.268C1180.05 402.191 1150.44 405.079 1115.76 405.9L1115.55 405.263C1116.77 403.122 1116.53 403.032 1116.76 400.495C1116.72 400.181 1116.68 399.867 1116.64 399.553Z"/><path fill="#0A1828" d="M1211.01 409.381C1217.12 410.855 1227.92 410.473 1234.55 410.185C1235.74 413.181 1236.94 416.293 1238.55 419.076C1236.08 425.793 1233.73 429.571 1227.39 432.786C1221.99 428.841 1216.01 424.673 1210.28 421.268C1210.3 416.835 1210.37 413.747 1211.01 409.381Z"/><path fill="#AFB6BC" d="M1116.64 399.553C1126.84 397.58 1178.99 399.605 1192.38 399.938C1196.5 400.041 1206.37 404.791 1210.5 407.079C1214.61 410.122 1228.93 409.006 1234.74 408.859L1234.55 410.185C1227.92 410.473 1217.12 410.855 1211.01 409.381C1196.25 399.156 1185.08 401.018 1168.35 400.812C1151.16 400.572 1133.96 400.466 1116.76 400.495C1116.72 400.181 1116.68 399.867 1116.64 399.553Z"/><path fill="#152238" d="M1344 130.346L1344 167.628L1305.25 167.746C1318.42 155.401 1330.93 142.859 1344 130.346Z"/><path fill="#15A1BC" d="M1115.76 405.9C1150.44 405.079 1180.05 402.191 1210.28 421.268C1216.01 424.673 1221.99 428.841 1227.39 432.786C1243.03 444.261 1266.11 459.705 1279.99 472.008C1289.75 481.783 1295.49 490.648 1300.59 503.579C1300.71 503.867 1303.16 504.264 1303.6 504.297C1322.24 506.385 1331.86 520.493 1332.44 538.41C1330.62 552.334 1323.52 560.999 1310.76 566.441C1310.48 566.107 1309.81 565.582 1309.45 565.282C1312.02 564.449 1314.48 563.301 1316.77 561.866C1323.98 557.336 1328.33 550.485 1330.31 542.321C1333.5 528.656 1325.62 515.25 1313.87 508.555C1308.53 506.2 1308.3 506.424 1302.71 505.67C1301.86 505.598 1299.29 505.595 1298.99 504.623C1294.8 491.042 1287.58 481.05 1277.02 471.406C1267.94 463.283 1255.76 455.008 1245.65 447.954C1237 441.913 1216.71 425.72 1207.54 421.683C1189.32 407.125 1151.79 406.199 1129.4 407.518C1125.05 407.283 1120.69 408.064 1116.16 407.286L1115.76 405.9Z"/><path fill="#AFB6BC" d="M1178.98 496.169L1179.64 496.629C1161.33 541.517 1118.63 533.292 1078.66 532.564L1078.36 531.094C1094.06 530.959 1110.24 531.22 1125.94 531.304C1154.05 531.456 1166.13 518.352 1178.98 496.169Z"/><path fill="#08324C" d="M1304.52 566.634C1307.41 568.867 1306.85 583.037 1307 587.297C1312.1 592.382 1319 598.896 1323.76 604.074C1324.58 615.411 1323.5 626.78 1324.28 637.996C1329.24 642.977 1333.57 646.812 1338.85 651.394C1338.84 658.777 1337.48 663.236 1344 667.786L1344 669.876C1341.84 668.097 1339.51 665.662 1337.49 663.656L1337.14 652.177C1332.76 647.643 1327.59 643.375 1322.78 638.39C1322.86 627.347 1322.88 616.304 1322.83 605.261C1317.35 599.052 1311.08 593.751 1305.51 587.304C1305.13 582.079 1305.72 571.964 1304.41 567.525L1304.52 566.634Z"/><path fill="#051D38" d="M1129.4 407.518C1151.79 406.199 1189.32 407.125 1207.54 421.683C1203.08 420.881 1199.52 418.537 1195.48 417.077C1185.7 413.6 1175.34 408.181 1164.75 409.445C1160.58 409.942 1153.98 413.507 1150.77 411.627L1150.41 408.574C1148.15 406.909 1134.67 408.04 1130.12 407.594L1129.4 407.518Z"/><path fill="#152238" d="M1344 272.24L1344 284.115C1340 284.098 1332.86 283.765 1329.45 283.891C1334.05 277.062 1334.55 273.794 1344 272.24Z"/><path fill="#12BCD5" d="M1078.66 532.564C1073.58 542.406 1065.32 536.338 1067.65 529.743C1069.38 524.849 1075.98 525.116 1078.36 531.094L1078.66 532.564Z"/><path fill="#117D9A" d="M1327.26 301.614C1327.26 287.263 1326.09 274.222 1343.5 270.528L1344 270.418L1344 272.24C1334.55 273.794 1334.05 277.062 1329.45 283.891C1328.63 287.933 1328.92 297.431 1328.76 302.317C1326.91 302.278 1313.34 302.435 1312.77 302.052C1313.05 301.478 1314.29 301.586 1314.79 301.589L1327.26 301.614Z"/><path fill="#08324C" d="M1319.89 339.212C1325.93 335.091 1327.58 333.606 1332.47 327.919C1336.55 323.18 1338.37 322.943 1344 322.754L1344 324.319C1336.78 324.449 1336.93 325.28 1331.9 330.904C1329.14 333.989 1326.02 337.201 1322.27 339.023L1319.57 340.332C1307.12 336.593 1307.66 334.016 1319.89 339.212Z"/><path fill="#FCFCFC" d="M1128.82 353.685C1127.06 353.21 1125.96 351.475 1126.28 349.684C1126.59 347.894 1128.22 346.641 1130.04 346.796C1131.85 346.951 1133.24 348.463 1133.25 350.281C1133.25 352.099 1131.87 353.622 1130.06 353.791C1129.65 353.83 1129.22 353.794 1128.82 353.685Z"/><path fill="#0E5471" d="M1344 257.067C1338.38 256.033 1335.73 255.28 1330.91 259.21C1330.53 259.52 1328.64 258.963 1330.62 257.333C1334.27 254.323 1339.6 254.749 1344 255.078L1344 257.067Z"/><path fill="#051D38" d="M1116.27 391.827L1116.85 392.52C1116.88 395.421 1116.97 396.654 1116.64 399.553C1116.68 399.867 1116.72 400.181 1116.76 400.495C1116.53 403.032 1116.77 403.122 1115.55 405.263C1115.28 401.283 1115.48 395.709 1116.27 391.827Z"/><path fill="#FCFCFC" d="M1295.1 567.438C1295.54 567.081 1296.11 566.929 1296.66 567.021C1297.22 567.114 1297.71 567.442 1298.01 567.922C1298.56 568.815 1298.31 569.986 1297.45 570.578C1296.58 571.171 1295.4 570.974 1294.77 570.133C1294.14 569.292 1294.28 568.104 1295.1 567.438Z"/><path fill="#0E5471" d="M1227.17 630.009C1230 630.758 1227.38 630.758 1228.2 633.927C1227.55 633.872 1227.16 633.878 1226.53 633.709C1228.21 630.185 1226.31 631.592 1227.17 630.009Z"/><path fill="#152238" d="M1301.28 83.8303C1304.26 86.0028 1302.77 113.452 1302.72 118.317C1302.61 134.669 1302.61 151.022 1302.74 167.374C1274.88 167.842 1247.01 168.037 1219.15 167.958C1218.5 167.994 1218.32 167.824 1217.64 167.585C1218.19 163.96 1275.37 110.539 1282.23 102.485C1286.06 97.9979 1296.94 89.72 1301.28 83.8303Z"/><path fill="#117D9A" d="M1295.7 113.806L1295.63 114.449C1294.99 120.388 1295.82 152.638 1294.51 154.938C1292.8 142.482 1295.18 125.468 1293.7 115.04L1295.7 113.806Z"/><path fill="#FCFCFC" d="M1294.06 100.281C1295.9 101.186 1296.81 101.215 1295.04 102.803C1293.05 103.347 1293.82 101.689 1294.06 100.281Z"/><path fill="#FCFCFC" d="M1293.7 115.04C1293.39 110.558 1296.41 111.191 1295.7 113.806L1293.7 115.04Z"/><path fill="#CBCDD0" d="M1294.89 107.596C1295.37 107.482 1295.23 107.464 1295.57 107.838C1295.44 107.865 1295.32 107.891 1295.19 107.918C1294.97 107.794 1295.08 107.885 1294.89 107.596Z"/><path fill="#152238" d="M1029.3 274.023C1034.07 269.805 1038.53 265.122 1043.05 260.632C1061.88 241.929 1081.71 223.722 1099.88 204.387C1100.03 231.255 1099.38 258.528 1099.79 285.264C1094.09 285.317 1047.66 284.667 1044.98 286.25L1043.9 289.076C1043.65 288.391 1043.39 287.712 1043.11 287.038C1040.12 279.791 1036.24 276.93 1029.3 274.023Z"/><path fill="#15A1BC" d="M842.552 231.782C868.687 231.456 897.134 227.767 916.533 248.344C947.262 280.938 957.743 345.803 1001.18 366.219C1008.82 369.758 1017.01 371.922 1025.4 372.613C1028.26 372.85 1036.3 373.076 1038.27 373.824C1032.9 386.611 1030.38 396.577 1035.93 410.187C1040.3 420.665 1048.7 428.948 1059.24 433.173C1075.06 439.519 1092.83 435.506 1104.47 423.352C1106.15 421.594 1111.62 413.005 1112.8 412.801C1112.51 413.754 1112.25 414.372 1112.3 415.373L1114.01 416.003C1111.76 418.353 1111.59 415.282 1108.18 421.58C1109.44 424.738 1109.4 426.833 1109.18 430.268C1108.85 433.838 1109.28 446.464 1108.47 447.859C1083.91 446.974 1055.18 447.78 1030.14 447.7C1036.07 440.904 1041.76 435.859 1047.92 428.501C1038.3 419.996 1035.04 413.291 1031.82 400.961C1006.83 403.394 988.928 412.857 972.398 432.229C964.519 441.463 958.379 454.554 952.773 465.738C943.351 484.535 936.212 506.438 916.402 517.298C913.987 518.622 910.401 520.29 907.738 520.558L905.989 519.556C929.486 510.449 936.287 496.359 946.683 474.669C955.046 457.22 962.976 438.247 976.946 424.473C979.787 421.64 988.706 415.142 990.451 412.407C987.129 413.86 978.351 419.819 975.124 422.171C960.119 433.111 950.351 440.388 932.385 445.886C895.851 457.067 852.851 437.034 822.914 466.075C815.948 472.849 810.544 481.062 807.081 490.142C804.093 497.822 802.261 506.367 799.713 514.231C794.106 531.532 782.823 546.407 765.836 553.738C749.683 560.708 728.858 558.47 711.32 558.388L645.145 558.469C645.671 558.19 646.148 557.919 646.63 557.638C646.501 557.309 645.717 557.013 645.468 556.876L703.432 556.807C719.628 556.846 746.064 558.715 760.715 553.975C780.464 547.585 792.632 531.087 798.713 511.901C801.57 502.885 803.497 492.312 807.944 483.915C838.328 426.548 889.25 458.868 937.193 442.696C957.145 435.966 971.436 421.66 989.188 411.324C997.251 406.63 1005.99 403.88 1014.65 400.958C988.926 401.364 966.813 419.278 943.304 424.144C921.171 428.725 890.741 426.697 867.323 427.244C867.461 426.654 867.475 426.043 867.364 425.448C873.197 426.015 885.991 425.596 892.18 425.546C914.135 425.323 937.777 426.702 958.429 417.935C978.412 409.453 995.709 399.696 1017.93 398.929C1020.19 398.851 1030.46 398.768 1031.72 398.03C1031.92 396.279 1031.78 396.148 1031.06 394.465L1031.18 391.874C1033.17 385.957 1033.51 381.846 1036.15 375.087C1033.49 375.044 1030.83 374.944 1028.17 374.789C978.461 371.393 961.469 329.394 941.085 290.29C934.242 277.162 928.33 263.985 918.387 252.784C895.616 227.133 871.594 235.312 842.315 233.457L842.552 231.782Z"/><path fill="#152238" d="M1047.92 428.501C1068.69 443.781 1091.12 439.984 1108.18 421.58C1109.44 424.738 1109.4 426.833 1109.18 430.268C1108.85 433.838 1109.28 446.464 1108.47 447.859C1083.91 446.974 1055.18 447.78 1030.14 447.7C1036.07 440.904 1041.76 435.859 1047.92 428.501Z"/><path fill="#152238" d="M1138.39 420.358C1139.2 415.1 1135.06 418.879 1131.73 416.968C1128.08 414.692 1135.97 413.863 1136.63 413.984C1139.64 414.54 1143.84 414.099 1146.81 415.029L1149.23 415.853L1150.42 415.513C1151.02 415.494 1151.95 415.402 1152.48 415.553L1155.08 415.51C1156.65 414.467 1167.09 414.628 1168.85 415.605L1169.78 415.939C1177.79 416.876 1194.37 421.675 1199.99 427.395L1200.21 428.336L1201.03 429.6L1201.97 430.104C1206.02 431.534 1208.34 434.6 1211.34 437.099C1213.04 437.843 1212.69 437.379 1213.24 438.736C1210.26 441.324 1209.92 444.037 1209.97 447.755C1177.39 447.811 1142.75 448.335 1110.35 447.81C1114.47 442.275 1132.78 424.109 1138.39 420.358Z"/><path fill="#051D38" d="M1138.39 420.358C1139.2 415.1 1135.06 418.879 1131.73 416.968C1128.08 414.692 1135.97 413.863 1136.63 413.984C1139.64 414.54 1143.84 414.099 1146.81 415.029C1144.36 415.268 1142.94 415.545 1140.52 416.01C1140.39 416.318 1140.48 416.129 1140.2 416.601C1140.28 418.774 1140.26 419.183 1138.39 420.358Z"/><path fill="#15A1BC" d="M1140.2 416.601C1140.07 416.396 1139.95 416.191 1139.82 415.986L1139.86 415.941C1140.11 415.913 1139.93 415.913 1140.52 416.01C1140.39 416.318 1140.48 416.129 1140.2 416.601Z"/><path fill="#117D9A" d="M1201.97 430.104C1206.02 431.534 1208.34 434.6 1211.34 437.099C1208.31 438.548 1207.21 433.487 1203.21 432.307C1201.92 431.924 1201.91 431.445 1201.97 430.104Z"/><path fill="#051D38" d="M1168.85 415.605L1169.78 415.939L1170.12 416.634L1170.21 418.744C1169.35 418.523 1168.41 418.257 1167.54 418.096C1167.61 417.24 1167.69 417.016 1167.52 416.189L1168.85 415.605Z"/><path fill="#15A1BC" d="M1167.54 418.096C1167.05 417.902 1166.25 417.692 1165.91 417.316C1165.85 417.252 1165.82 417.141 1165.84 417.058C1165.93 416.808 1166.32 416.624 1166.55 416.544C1166.63 416.515 1166.72 416.487 1166.8 416.458L1167.52 416.189C1167.69 417.016 1167.61 417.24 1167.54 418.096Z"/><path fill="#15A1BC" d="M1170.12 416.634C1172.88 417.344 1173.43 418.375 1170.21 418.744L1170.12 416.634Z"/><path fill="#15A1BC" d="M1155.08 415.51C1154.43 417.589 1152.89 417.813 1152.48 415.553L1155.08 415.51Z"/><path fill="#15A1BC" d="M1201.03 429.6C1200.23 429.679 1199.41 429.97 1198.99 429.081C1199.12 428.374 1199.57 428.409 1200.21 428.336L1201.03 429.6Z"/><path fill="#15A1BC" d="M1149.23 415.853L1150.42 415.513C1150.16 415.887 1149.88 416.488 1149.48 416.728C1149.24 416.525 1149.28 416.172 1149.23 415.853Z"/><path fill="#15A1BC" d="M1183.45 420.737C1184.43 420.683 1185.04 420.461 1185.06 421.615L1184.37 421.711C1183.36 421.863 1183.09 421.787 1183.45 420.737Z"/><path fill="#15A1BC" d="M1179.35 419.5C1179.66 419.39 1179.97 419.28 1180.28 419.17C1180.47 419.443 1180.4 419.613 1180.41 420.031C1180.13 420.173 1180.06 420.262 1179.8 420.25C1179.53 420.03 1179.54 419.901 1179.35 419.5Z"/><path fill="#051D38" d="M1109.18 430.268C1110.13 439.364 1109.76 453.26 1109.73 462.672L1109.48 513.583C1086.54 515.187 1061.6 513.266 1038.84 514.188C1039.66 513.706 1043.42 511.37 1043.9 510.772C1049.98 503.102 1107.38 452.241 1108.47 447.859C1109.28 446.464 1108.85 433.838 1109.18 430.268Z"/><path fill="#17B8BE" d="M1072.14 368.703C1086.52 367.472 1099.17 378.134 1100.39 392.514C1101.61 406.894 1090.95 419.542 1076.57 420.758C1062.2 421.973 1049.57 411.313 1048.35 396.944C1047.12 382.575 1057.77 369.934 1072.14 368.703Z"/><path fill="#AFB6BC" d="M819.317 273.568C826.304 273.946 835.289 274.21 842.025 275.26C865.207 278.874 884.182 292.998 899.455 310.152C908.462 320.269 915.751 331.315 924.6 341.535C952.941 374.264 982.624 389.443 1025.6 391.707C1027.46 391.803 1029.32 391.859 1031.18 391.874L1031.06 394.465C969.018 399.457 904.545 397.742 842.092 397.706L796.62 397.692C764.118 397.694 745.198 397.968 718.561 419.149C709.3 426.513 697.673 433.474 685.667 433.996C670.768 434.618 655.714 434.262 640.775 434.267L641.146 433.224L640.616 432.541L683.931 432.645C709.26 432.197 731.199 401.29 758.71 397.944C773.614 396.132 784.957 396.284 799.916 396.252L866.427 396.192C878.078 396.224 894.618 396.821 905.609 395.872C908.873 396.345 910.942 396.636 914.203 395.814C927.995 397.008 993.525 397.035 1004.93 394.277C1004.46 393.864 967.257 391.168 962.748 390.521C951.616 389.022 940.721 386.1 930.332 381.827C914.745 375.505 897.884 365.158 886.677 352.855C869.852 334.387 854.722 308.346 828.308 301.347C806.233 295.498 768.354 299.667 744.907 298.421C738.865 298.1 729.555 298.927 723.788 297.991L723.274 297.903C723.273 297.755 723.266 297.608 723.252 297.461C726.538 297.062 729.818 297.217 733.118 297.338C741.909 297.662 750.701 297.386 759.494 297.277L793.318 297.112C818.042 297.073 831.406 296.946 852.231 312.718C865.664 322.545 873.812 336.638 884.675 348.736C905.721 372.173 936.809 386.614 967.975 389.685C973.498 390.229 986.48 392.24 991.905 391.351C995.655 390.971 998.49 391.768 1000.76 390.208C976.804 385.238 961.584 376.912 942.636 361.773C942.122 361.371 942.033 361.332 941.618 360.836C925.383 348.103 908.863 322.521 893.406 305.89C892.657 305.473 892.691 305.376 892.234 304.616L890.433 303.013C889.532 302.27 889.193 302.05 888.526 301.068C857.824 273.205 838.996 275.504 800.172 275.657L740.476 275.796L503.841 275.601L459.958 275.583C451.992 275.584 439.046 276.332 431.844 274.645L431.86 274.221C442.326 273.566 455.332 273.974 466.05 273.978L527.075 273.997L723.466 274.2L776.558 274.222C785.885 274.232 798.982 274.6 807.956 273.853C811.876 274.462 815.402 274.159 819.317 273.568Z"/><path fill="#787E88" d="M640.616 432.541L683.931 432.645C677.486 433.836 649.47 433.271 641.146 433.224L640.616 432.541Z"/><path fill="#181E21" d="M1000.76 390.208C1003.78 390.747 1007.67 391.119 1011.03 391.677C1005.26 391.871 997.589 392.198 991.905 391.351C995.655 390.971 998.49 391.768 1000.76 390.208Z"/><path fill="#787E88" d="M888.526 301.068C889.699 301.666 889.749 301.927 890.433 303.013C889.532 302.27 889.193 302.05 888.526 301.068Z"/><path fill="#787E88" d="M892.234 304.616C893.035 305.008 892.93 305.04 893.406 305.89C892.657 305.473 892.691 305.376 892.234 304.616Z"/><path fill="#787E88" d="M941.618 360.836C942.328 361.156 942.352 361.088 942.636 361.773C942.122 361.371 942.033 361.332 941.618 360.836Z"/><path fill="#152238" d="M1181.24 252.029C1189.22 243.548 1200.74 234.197 1207.96 226.044C1209.02 244.3 1209.53 269.555 1208.95 287.812C1188.04 288.108 1165.8 287.252 1145.3 287.93C1151.42 281.331 1175.19 260.327 1177.39 254.667C1178.28 254.279 1179.18 254.475 1180.15 254.56C1179.94 254.18 1179.87 253.733 1179.98 253.308C1180.13 252.679 1180.61 252.185 1181.24 252.029Z"/><path fill="#FCFCFC" d="M1181.24 252.029C1182.11 251.813 1183 252.296 1183.3 253.142C1183.59 253.989 1183.19 254.92 1182.37 255.288C1181.55 255.657 1180.59 255.341 1180.15 254.56C1179.94 254.18 1179.87 253.733 1179.98 253.308C1180.13 252.679 1180.61 252.185 1181.24 252.029Z"/><path fill="#15A1BC" d="M1191.29 253.503C1192.79 252.534 1192.45 253.167 1192.21 254.157C1191.85 254.498 1191.69 254.952 1191.2 254.844C1191.02 254.442 1191.2 253.946 1191.29 253.503Z"/><path fill="#152238" d="M1032.75 488.859L1033.34 489.441C1033.96 492.445 1033.76 502.871 1033.77 506.786L1033.75 544.102C1016.77 545.066 995.735 544.242 978.382 544.096C977.765 543.992 977.595 543.762 977.001 543.381C978.442 538.97 1003.4 516.962 1008.38 511.021C1014.35 503.886 1025.95 496.034 1032.75 488.859Z"/><path fill="#12BCD5" d="M1001.99 294.583C1001.71 280.364 1015.41 270.233 1029.3 274.023C1036.24 276.93 1040.12 279.791 1043.11 287.038C1043.39 287.712 1043.65 288.391 1043.9 289.076L1045.11 295.315L1044.92 296.635C1042.9 306.833 1038.04 314.466 1027.06 316.355C1021.35 317.369 1015.47 316.018 1010.78 312.613C1004.89 308.322 1002.72 302.815 1001.64 295.898L1001.99 294.583Z"/><path fill="#051D38" d="M1022.13 275.001C1033.14 274.414 1042.53 282.888 1043.06 293.899C1043.6 304.91 1035.09 314.259 1024.08 314.747C1013.14 315.232 1003.86 306.781 1003.33 295.84C1002.79 284.9 1011.2 275.585 1022.13 275.001Z"/><path fill="#12BCD5" d="M1019.92 279.656C1028.37 277.789 1036.73 283.13 1038.59 291.583C1040.45 300.037 1035.1 308.397 1026.65 310.252C1018.21 312.106 1009.86 306.765 1008 298.32C1006.14 289.875 1011.47 281.521 1019.92 279.656Z"/><path fill="#17B8BE" d="M1259.71 199.883C1266.72 198.243 1274.07 200.532 1278.91 205.864C1283.75 211.197 1285.33 218.734 1283.03 225.56C1280.72 232.385 1274.9 237.427 1267.82 238.733C1257.22 240.688 1247 233.824 1244.8 223.272C1242.59 212.72 1249.21 202.336 1259.71 199.883Z"/><path fill="#AFB6BC" d="M949.348 554.052L949.498 556.354C926.44 559.33 909.713 566.072 893.993 584.056C887.073 591.973 882.775 600.203 876.362 608.755C864.268 624.886 844.6 637.571 824.28 639.699C803.392 641.415 778.601 640.783 757.222 640.785L626.147 640.708C626.261 640.034 626.236 639.345 626.076 638.681L627.149 638.699C668.179 639.32 711.063 638.73 752.259 638.774L792.872 638.812C819.264 638.828 835.28 639.861 857.667 624.334C878.712 609.737 883.884 587.695 903.551 572.428C912.232 565.688 921.111 561.202 931.61 558.139C936.064 556.667 947.325 555.925 948.967 554.33L949.348 554.052Z"/><path fill="#17B8BE" d="M1206.84 617.56C1213.09 615.421 1219.87 618.781 1221.96 625.041C1224.05 631.302 1220.64 638.066 1214.37 640.106C1208.16 642.123 1201.49 638.757 1199.42 632.565C1197.36 626.374 1200.67 619.675 1206.84 617.56Z"/><path fill="#CBCDD0" d="M905.989 519.556L907.738 520.558C879.105 531.122 878.619 541.674 867.935 567.866C861.79 582.932 843.299 595.5 827.067 595.63C784.571 595.973 741.024 596.633 698.566 596.008C698.62 595.534 698.636 595.057 698.614 594.58C727.29 594.307 755.967 594.236 784.644 594.367C797.548 594.37 816.049 594.973 828.26 593.951C832.099 593.652 835.883 592.858 839.519 591.589C881.707 577.139 858.037 536.211 905.989 519.556Z"/><path fill="#15A1BC" d="M858.849 427.396C845.399 426.888 812.652 426.135 800.336 428.127C772.186 432.682 747.113 467.68 723.342 483.245C702.342 496.996 689.103 497.902 663.943 496.736C658.189 496.507 647.794 497.282 642.936 496.359L642.973 495.62C646.024 494.484 651.473 495.138 655.007 495.016C672.983 494.396 687.96 497.576 705.162 491.354C738.829 479.176 765.509 432.825 799.686 426.681C810.925 424.66 845.134 425.702 858.774 425.425C858.649 426.079 858.674 426.753 858.849 427.396Z"/><path fill="#15A1BC" d="M681.728 365.428C687.378 363.877 728.636 364.878 736.808 364.876L800.973 364.877C824.359 364.883 848.797 362.547 869.07 375.718C885.36 386.301 895.17 391.667 914.203 395.814C910.942 396.636 908.873 396.345 905.609 395.872C903.895 395.175 901.741 394.436 899.963 393.838C883.013 388.502 868.001 373.994 851.064 369.344C834.156 364.702 811.375 366.235 793.681 366.243L721.827 366.338C709.498 366.359 693.716 366.815 681.608 366.166L681.728 365.428Z"/><path fill="#FCFCFC" d="M619.139 432.876C619.964 431.209 619.892 431.08 620.505 429.396C621.52 426.635 623.656 424.433 626.385 423.334C633.6 420.375 638.687 426.122 640.616 432.541L641.146 433.224L640.775 434.267C636.88 442.261 630.179 448.644 621.613 439.395C620.337 438.018 620.096 435.785 619.097 434.044L619.139 432.876Z"/><path fill="#12BCD5" d="M1294.77 260.477C1300.27 259.866 1305.22 263.818 1305.85 269.315C1306.48 274.812 1302.55 279.783 1297.06 280.432C1291.54 281.083 1286.54 277.125 1285.9 271.601C1285.27 266.078 1289.25 261.091 1294.77 260.477Z"/><path fill="#17B8BE" d="M691.233 133.875C696.421 132.05 702.105 134.778 703.928 139.968C705.751 145.157 703.022 150.842 697.834 152.664C692.647 154.486 686.966 151.757 685.144 146.57C683.321 141.382 686.047 135.699 691.233 133.875Z"/><path fill="#FCFCFC" d="M410.415 264.369C415.541 262.923 420.888 265.811 422.493 270.89C424.098 275.97 421.381 281.406 416.355 283.17C412.961 284.361 409.188 283.609 406.509 281.209C403.831 278.808 402.671 275.138 403.484 271.634C404.297 268.129 406.953 265.345 410.415 264.369Z"/><path fill="#117D9A" d="M433.853 494.93L533.199 494.977C543.944 494.956 601.92 493.873 607.367 495.869C600.32 497.06 572.976 496.525 564.374 496.554C536.138 496.782 507.9 496.86 479.663 496.788C466.877 496.764 445.545 496.014 433.322 496.772C433.471 496.186 433.628 495.471 433.853 494.93Z"/><path fill="#15A1BC" d="M625.006 486.813C629.999 485.409 635.208 488.2 636.805 493.136C638.403 498.071 635.816 503.387 630.948 505.175C627.626 506.395 623.903 505.7 621.245 503.362C618.587 501.025 617.421 497.421 618.205 493.969C618.99 490.517 621.599 487.771 625.006 486.813Z"/><path fill="#AFB6BC" d="M1002.6 176.095C1011.77 174.725 1034.43 176.142 1044.82 175.812C1053.57 175.534 1067.42 175.625 1076.18 176.316C1081.04 176.699 1089.32 180.259 1093.36 183.374C1101.78 189.856 1106.09 198.8 1107.49 209.27C1109.32 223.021 1104.03 237.815 1116.75 247.885C1124.81 254.26 1137.34 252.875 1147.35 252.779C1147.34 253.187 1147.35 253.595 1147.39 254.001C1137.67 254.497 1123.7 255.744 1116.23 249.138C1096.59 231.777 1117.04 208.464 1096.58 188.044C1091.86 183.416 1085.94 180.193 1079.49 178.733C1072.89 177.215 1057.05 177.659 1049.57 177.667L1002.68 177.757C1002.75 177.202 1002.72 176.64 1002.6 176.095Z"/><path fill="#15A1BC" d="M665.183 229.963C675.249 228.98 690.75 229.577 700.473 229.654C718.887 229.8 750.337 226.403 764.498 240.862C784.182 260.96 789.044 269.816 819.317 273.568C815.402 274.159 811.876 274.462 807.956 273.853C783.653 266.248 783.898 262.35 767.503 245.894C761.691 239.975 754.433 235.676 746.449 233.424C735.306 230.298 718.592 231.094 706.753 231.102L664.802 231.072L665.183 229.963Z"/><path fill="#17B8BE" d="M661.897 365.299C664.651 363.248 664.508 354.508 673.974 356.371C679.899 357.538 679.587 361.18 681.728 365.428L681.608 366.166C680.096 367.811 680.219 369.39 678.659 371.233C675.132 375.4 668.728 375.046 665.389 370.875C663.879 368.987 664.411 367.963 662.403 366.122L661.897 365.299Z"/><path fill="#17B8BE" d="M680.811 594.134C681.259 589.469 685.237 585.945 689.92 586.062C694.604 586.18 698.4 589.899 698.614 594.58C698.636 595.057 698.62 595.534 698.566 596.008C698.049 600.506 694.248 603.906 689.721 603.918C685.195 603.931 681.375 600.552 680.834 596.057C680.757 595.419 680.749 594.774 680.811 594.134Z"/><path fill="#CBCDD0" d="M802.973 214.143C796.105 206.708 789.542 194.655 783.861 185.738C772.121 167.313 755.534 152.097 734.042 146.254C727.686 144.526 716.717 144.219 709.988 143.912L710.101 143.176C728.529 140.892 747.4 147.581 761.853 158.862C769.203 164.628 775.68 171.428 781.08 179.051C797.33 201.707 807.751 230.953 842.552 231.782L842.315 233.457C825.796 231.544 815.175 227.12 803.594 214.822C803.242 214.525 803.23 214.525 802.973 214.143Z"/><path fill="#12BCD5" d="M1147.35 252.779C1147.53 248.169 1151.39 244.567 1156 244.706C1160.61 244.844 1164.25 248.672 1164.16 253.284C1164.15 253.726 1164.1 254.167 1164.02 254.602C1163.28 258.719 1159.63 261.663 1155.45 261.512C1151.27 261.361 1147.84 258.16 1147.39 254.001C1147.35 253.595 1147.34 253.187 1147.35 252.779Z"/><path fill="#17B8BE" d="M1202.37 142.318C1202.31 137.929 1205.71 134.269 1210.09 134.009C1214.47 133.748 1218.28 136.98 1218.74 141.345C1219.2 145.711 1216.15 149.667 1211.81 150.327C1207.47 150.987 1203.38 148.118 1202.52 143.813C1202.42 143.321 1202.37 142.82 1202.37 142.318Z"/><path fill="#AFB6BC" d="M511.248 432.534C535.828 432.727 560.41 432.765 584.992 432.648C592.185 432.641 613.144 432.163 619.139 432.876L619.097 434.044C583.779 435.143 545.987 433.16 511.195 434.462L511.248 432.534Z"/><path fill="#15A1BC" d="M714.04 296.131C713.636 297.135 713.585 298.248 713.894 299.285C708.44 298.432 686.771 298.819 679.934 298.813L610.871 298.621L610.966 297.133C634.686 296.763 658.5 297.057 682.197 296.856C688.425 296.803 709.078 297.171 714.04 296.131Z"/><path fill="#117D9A" d="M1103.77 628.88L1162.28 628.725C1170.37 628.736 1183.7 628.38 1191.48 628.997L1191.91 630.688C1164.32 630.736 1131.02 629.986 1103.83 630.896C1103.94 630.226 1103.92 629.542 1103.77 628.88Z"/><path fill="#CBCDD0" d="M577.836 143.12C589.219 143.151 676.386 142.656 678.562 144.11C664.33 145.225 643.201 144.815 628.641 144.702C612.541 144.577 593.806 145.027 577.901 144.405C577.935 143.976 577.914 143.544 577.836 143.12Z"/><path fill="#15A1BC" d="M954.533 537.449C958.137 536.085 962.168 537.864 963.59 541.446C965.012 545.028 963.299 549.088 959.742 550.568C957.389 551.548 954.691 551.182 952.684 549.611C950.676 548.041 949.671 545.51 950.055 542.99C950.438 540.469 952.15 538.352 954.533 537.449Z"/><path fill="#AFB6BC" d="M1045.11 295.315L1086.81 295.287C1095.2 295.25 1108.51 294.684 1116.33 296.127C1122.76 297.289 1128.87 299.814 1134.25 303.533L1133.65 304.829C1117.87 294.782 1105.56 296.602 1087.71 296.671C1073.45 296.801 1059.18 296.789 1044.92 296.635L1045.11 295.315Z"/><path fill="#AFB6BC" d="M612.96 594.036C632.84 595.127 660.167 593.937 680.811 594.134C680.749 594.774 680.757 595.419 680.834 596.057C677.137 595.73 671.655 595.96 667.827 595.993C649.642 596.152 631.292 595.71 613.124 596.097C613.214 595.406 613.158 594.704 612.96 594.036Z"/><path fill="#08324C" d="M1300.51 595.306C1303.78 597.557 1312.05 606.14 1314.76 609.088C1313.89 619.656 1314.13 630.371 1314.15 640.985C1319 645.938 1325.39 651.237 1329.54 656.603C1329.65 660.959 1329.73 663.641 1329.26 668.015L1328.45 667.592C1327.55 664.836 1327.58 659.244 1327.47 656.137L1313.08 641.838C1313.49 632.38 1313.32 618.937 1312.89 609.486C1308.92 603.848 1302.86 601.227 1300.51 595.306Z"/><path fill="#AFB6BC" d="M1137.42 141.756C1155.95 143.006 1183.34 142.304 1202.37 142.318C1202.37 142.82 1202.42 143.321 1202.52 143.813L1157.49 143.94C1153.63 143.951 1139.97 143.77 1137.29 144.353C1137.57 143.516 1137.62 142.618 1137.42 141.756Z"/><path fill="#12BCD5" d="M1103.83 630.896C1103.4 633.623 1100.97 635.575 1098.21 635.403C1095.46 635.23 1093.28 632.99 1093.19 630.23C1093.11 627.47 1095.13 625.094 1097.87 624.745C1100.61 624.395 1103.16 626.186 1103.77 628.88C1103.92 629.542 1103.94 630.226 1103.83 630.896Z"/><path fill="#12BCD5" d="M664.802 231.072C662.65 234.619 659.965 237.89 655.552 234.399C651.742 231.385 654.533 224.87 659.209 225.005C662.42 225.098 663.029 227.717 664.79 229.556L665.183 229.963L664.802 231.072Z"/><path fill="#15A1BC" d="M1103.19 360.6C1104.21 361.644 1106.57 363.955 1106.67 365.33C1104.24 363.769 1102.5 362.047 1100.04 360.467C1088.31 352.919 1076.14 349.864 1062.42 353.989C1059.97 354.725 1056.66 357.123 1054.92 356.836C1054.94 352.229 1063.71 351.935 1067.27 351.304C1079.07 349.211 1092.13 352.541 1101.58 359.881L1102.09 360.281L1103.19 360.6Z"/><path fill="#12BCD5" d="M1310.62 79.867C1312.37 79.1097 1314.4 79.3539 1315.92 80.5066C1317.45 81.6592 1318.23 83.5423 1317.98 85.4374C1317.73 87.3325 1316.48 88.947 1314.71 89.665C1312.02 90.7579 1308.94 89.4771 1307.82 86.7926C1306.7 84.1082 1307.94 81.02 1310.62 79.867Z"/><path fill="#12BCD5" d="M1310.33 677.174C1312.07 676.439 1314.08 676.698 1315.58 677.851C1317.07 679.005 1317.84 680.875 1317.57 682.748C1317.31 684.621 1316.06 686.207 1314.3 686.9C1311.62 687.955 1308.6 686.661 1307.51 683.997C1306.42 681.334 1307.68 678.292 1310.33 677.174Z"/><path fill="#17B8BE" d="M1002.68 177.757C1002.39 180.405 1000.11 182.385 997.451 182.307C994.788 182.23 992.63 180.122 992.49 177.462C992.349 174.801 994.274 172.477 996.913 172.12C999.553 171.763 1002.03 173.492 1002.6 176.095C1002.72 176.64 1002.75 177.202 1002.68 177.757Z"/><path fill="#12BCD5" d="M610.871 298.621C609.406 300.199 608.601 301.952 606.373 302.59C599.444 304.573 597.641 293.052 604.748 292.876C607.795 292.8 609.161 295.217 610.966 297.133L610.871 298.621Z"/><path fill="#FCFCFC" d="M511.195 434.462C507.382 440.265 501.207 440.464 501.077 432.915C500.996 428.205 507.636 426.259 511.248 432.534L511.195 434.462Z"/><path fill="#FCFCFC" d="M626.147 640.708C625.717 643.256 623.428 645.066 620.85 644.895C618.271 644.725 616.24 642.631 616.149 640.048C616.057 637.464 617.935 635.231 620.495 634.879C623.055 634.527 625.466 636.17 626.076 638.681C626.236 639.345 626.261 640.034 626.147 640.708Z"/><path fill="#12BCD5" d="M645.145 558.469C643.223 562.226 639.544 564.962 636.4 560.687C635.465 559.439 635.106 557.852 635.413 556.323C636.604 550.365 642.376 551.837 645.468 556.876C645.717 557.013 646.501 557.309 646.63 557.638C646.148 557.919 645.671 558.19 645.145 558.469Z"/><path fill="#FCFCFC" d="M613.124 596.097C612.794 598.62 610.613 600.486 608.07 600.422C605.527 600.357 603.444 598.383 603.242 595.847C603.04 593.31 604.785 591.031 607.286 590.565C609.786 590.099 612.235 591.597 612.96 594.036C613.158 594.704 613.214 595.406 613.124 596.097Z"/><path fill="#12BCD5" d="M433.322 496.772C429.434 504.131 422.608 499.831 423.502 495.258C425.074 487.226 431.109 491.476 433.853 494.93C433.628 495.471 433.471 496.186 433.322 496.772Z"/><path fill="#15A1BC" d="M860.177 515.818C861.161 515.644 861.594 515.806 862.579 515.982C862.357 517.338 858.164 518.105 855.325 520.715C848.088 527.371 850.413 548.151 850.063 559.1L849.558 560.096C848.374 557.444 848.102 530.921 849.87 526.562C852.363 520.413 854.493 518.633 860.177 515.818Z"/><path fill="#FCFCFC" d="M577.901 144.405C577.691 146.997 575.506 148.981 572.907 148.941C570.307 148.901 568.185 146.85 568.055 144.253C567.926 141.656 569.833 139.404 572.416 139.105C574.998 138.806 577.369 140.562 577.836 143.12C577.914 143.544 577.935 143.976 577.901 144.405Z"/><path fill="#FCFCFC" d="M610.356 366.839C609.72 369.238 607.4 370.788 604.942 370.457C602.484 370.126 600.656 368.016 600.678 365.536C600.7 363.055 602.565 360.978 605.028 360.69C607.492 360.403 609.784 361.994 610.377 364.403C610.574 365.204 610.567 366.042 610.356 366.839Z"/><path fill="#FCFCFC" d="M1137.29 144.353C1136.52 146.634 1134.19 147.999 1131.83 147.551C1129.47 147.102 1127.8 144.978 1127.92 142.575C1128.04 140.171 1129.92 138.227 1132.31 138.021C1134.71 137.815 1136.89 139.409 1137.42 141.756C1137.62 142.618 1137.57 143.516 1137.29 144.353Z"/><path fill="#FCFCFC" d="M714.04 296.131C714.865 294.081 716.983 292.861 719.169 293.177C721.355 293.492 723.041 295.262 723.252 297.461C723.266 297.608 723.273 297.755 723.274 297.903C723.281 300.285 721.538 302.31 719.182 302.658C716.827 303.005 714.574 301.568 713.894 299.285C713.585 298.248 713.636 297.135 714.04 296.131Z"/><path fill="#12BCD5" d="M610.377 364.403C622.124 364.943 634.019 364.464 645.764 364.64C649.621 364.698 658.566 364.508 661.897 365.299L662.403 366.122C645.151 366.913 627.212 365.853 610.356 366.839C610.567 366.042 610.574 365.204 610.377 364.403Z"/><path fill="#FCFCFC" d="M858.774 425.425C859.17 423.361 860.978 421.87 863.079 421.876C865.18 421.882 866.979 423.382 867.364 425.448C867.475 426.043 867.461 426.654 867.323 427.244C866.867 429.193 865.146 430.583 863.145 430.619C861.144 430.655 859.375 429.327 858.849 427.396C858.674 426.753 858.649 426.079 858.774 425.425Z"/><path fill="#CBCDD0" d="M1134.25 303.533C1146.69 312.488 1152.85 323.75 1154.78 338.879L1153.52 340.371C1151.24 324.063 1147.13 315.049 1133.65 304.829L1134.25 303.533Z"/><path fill="#353F57" d="M1101.85 333.969C1102.07 333.247 1102.31 332.684 1103.16 332.906C1103.51 333.258 1103.47 333.437 1103.43 333.945C1103.99 339.492 1104.06 355.404 1103.19 360.6L1102.09 360.281C1101.86 351.283 1102.24 343.318 1101.85 333.969Z"/><path fill="#FCFCFC" d="M1101.85 333.969C1102.07 333.247 1102.31 332.684 1103.16 332.906C1103.51 333.258 1103.47 333.437 1103.43 333.945L1101.85 333.969Z"/><path fill="#117D9A" d="M1145.96 571.308C1149.39 572.537 1147.11 576.344 1148.19 579.987C1150.68 588.427 1155.66 587.928 1161.35 591.252C1149.57 592.702 1145.92 580.75 1145.96 571.308Z"/><path fill="#117D9A" d="M533.593 455.997C536.422 458.549 533.052 462.367 536.951 468.282C541.639 475.392 545.867 472.767 548.21 476.421C537.918 475.338 530.925 466.091 533.593 455.997Z"/><path fill="#15A1BC" d="M771.168 487.18C771.787 487.119 777.763 486.242 777.381 487.552C774.374 490.329 766.533 485.62 759.852 498.814C757.69 508.262 756.36 503.072 758.817 497.565C761.42 491.732 765.513 489.317 771.168 487.18Z"/><path fill="#117D9A" d="M955.605 168.332C958.502 170.413 956.509 176.3 959.14 180.812C963.1 187.605 965.979 185.174 970.249 188.729C957.971 189.093 955.52 178.122 955.605 168.332Z"/><path fill="#15A1BC" d="M833.578 551.151C837.664 561.815 829.176 571.172 818.163 571.955C818.171 569.809 822.658 570.115 825.162 568.909C834.61 564.359 831.369 557.499 833.578 551.151Z"/><path fill="#15A1BC" d="M786.817 98.3566C787.794 98.3296 789.749 97.8104 790.245 98.7526C789.516 101.542 779.068 97.991 776.501 114.051C776.481 114.951 776.615 115.518 776.025 116.152C773.92 116.293 775.634 109.334 775.994 108.31C777.979 102.663 781.963 100.76 786.817 98.3566Z"/><path fill="#15A1BC" d="M482.494 292.015C487.216 292.647 483.369 293.855 481.251 294.284C472.431 296.073 470.973 301.585 470.065 308.973C469.862 309.42 469.744 309.917 469.18 309.743C467.885 307.946 469.61 301.877 470.683 300.026C473.432 295.282 477.47 293.461 482.494 292.015Z"/><path fill="#15A1BC" d="M927.971 608.401C928.309 608.427 928.648 608.453 928.986 608.479C929.406 608.475 930.329 608.567 930.597 608.991C930.659 609.089 930.671 609.283 930.632 609.311C927.943 611.194 925.362 609.754 922.09 612.776C917.39 617.116 917.427 619.632 917.008 625.32C914.729 628.954 915.739 619.373 916.812 617.359C919.912 611.54 922.267 610.51 927.971 608.401Z"/><path fill="#08324C" d="M1334.1 316.807C1335.17 316.904 1338.9 317.552 1335.76 318.82C1332.17 320.276 1325.43 327.981 1322.91 330.976C1316.39 334.482 1334.22 316.672 1334.1 316.807Z"/><path fill="#12BCD5" d="M723.434 513.857C730.234 513.728 730.078 512.34 731.054 518.455C724.3 518.403 724.337 520.154 723.434 513.857Z"/><path fill="#117D9A" d="M1050.6 358.184C1053.55 359.237 1050.45 360.617 1048.99 361.345C1044.99 363.332 1047.52 364.989 1044.34 365.986C1042 366.72 1041.16 369.9 1040.29 371.933C1035.72 370.1 1048.65 359.786 1050.6 358.184Z"/><path fill="#787E88" d="M986.218 294.125C990.441 294.684 997.282 294.35 1001.99 294.583L1001.64 295.898C997.003 296.031 991.078 295.719 986.767 296.399L986.218 294.125Z"/><path fill="#787E88" d="M1164.16 253.284C1168.91 253.379 1175.6 253.111 1179.98 253.308C1179.87 253.733 1179.94 254.18 1180.15 254.56C1179.18 254.475 1178.28 254.279 1177.39 254.667C1172.9 254.683 1168.52 254.726 1164.02 254.602C1164.1 254.167 1164.15 253.726 1164.16 253.284Z"/><path fill="#12BCD5" d="M815.984 661.455C817.878 663.409 820.909 666.888 816.799 667.638C811.014 666.48 812.284 666.495 815.984 661.455Z"/><path fill="#117D9A" d="M969.222 546.765C972.836 551.238 961.519 556.695 958.798 557.995C958.314 557.538 957.893 557.341 958.098 556.646C961.766 553.27 965.048 557.132 969.222 546.765Z"/><path fill="#117D9A" d="M1194.02 634.457C1194.3 634.367 1194.82 634.132 1195.14 634.199C1196.34 635.709 1197.7 641.095 1201.01 642.525C1201.79 642.864 1201.78 643.709 1201.78 644.49C1199.31 644.821 1194.47 636.975 1194.02 634.457Z"/><path fill="#117D9A" d="M962.505 533.897C966.128 531.95 969.661 540.131 970.186 543.093C967.451 541.382 968.849 540.733 967.202 538.237C966.187 536.699 963.802 535.409 962.505 533.897Z"/><path fill="#051D38" d="M1219.8 443.8C1221.29 444.471 1221.71 444.672 1223.31 445.138C1225.03 446.616 1224.35 446.83 1222.6 447.642C1221.59 447.382 1220.86 447.177 1219.87 446.835L1217.95 444.803L1218.04 443.686L1219.8 443.8Z"/><path fill="#12BCD5" d="M1223.31 445.138C1225.03 446.616 1224.35 446.83 1222.6 447.642C1222.26 446.151 1222.1 446.099 1223.31 445.138Z"/><path fill="#12BCD5" d="M1219.8 443.8C1220.05 445.206 1219.97 445.452 1219.87 446.835L1217.95 444.803L1218.04 443.686L1219.8 443.8Z"/><path fill="#152238" d="M1236.97 447.636C1230.88 451.324 1228.6 443.764 1235.75 445.756C1236.6 446.329 1236.56 446.591 1236.97 447.636Z"/><path fill="#0E5471" d="M1235.75 445.756C1236.6 446.329 1236.56 446.591 1236.97 447.636C1236.09 446.798 1235.92 446.854 1235.75 445.756Z"/><path fill="#152238" d="M1191.48 628.997C1192.27 627.591 1192.52 627.073 1193.08 625.572C1193.81 626.041 1193.7 625.972 1194.14 626.772L1194.98 628.846C1196.11 631.71 1193.67 631.22 1191.91 630.688L1191.48 628.997Z"/><path fill="#117D9A" d="M1193.08 625.572C1193.81 626.041 1193.7 625.972 1194.14 626.772C1193.37 626.468 1193.22 626.438 1193.08 625.572Z"/><path fill="#12BCD5" d="M1154.78 338.879C1154.93 342.143 1162.05 339.505 1157.3 342.043C1156.25 342.603 1150.5 342.381 1149.5 340.656C1150.72 339.95 1151.94 340.493 1153.52 340.371L1154.78 338.879Z"/><path fill="#17B8BE" d="M1234.99 204.825L1236.39 205.429C1235.93 207.102 1235.93 207.287 1235.82 209.015C1232.16 212.977 1230.75 208.715 1232.97 206.846C1234.16 205.993 1234.23 206.017 1234.99 204.825Z"/><path fill="#051D38" d="M1234.99 204.825L1236.39 205.429C1235.93 207.102 1235.93 207.287 1235.82 209.015C1234.69 208.048 1234.23 207.616 1232.97 206.846C1234.16 205.993 1234.23 206.017 1234.99 204.825Z"/><path fill="#12BCD5" d="M745.352 328.525C747.03 329.351 748.387 331.282 748.228 333.185C742.709 332.72 743.258 333.318 745.352 328.525Z"/><path fill="#152238" d="M687.301 127.404C694.204 124.788 693.284 128.71 688.305 129.164C687.836 129.115 687.034 129.244 686.766 128.776C686.869 128.269 687.068 127.892 687.301 127.404Z"/><path fill="#AFB6BC" d="M687.301 127.404C688.077 127.958 687.999 128.157 688.305 129.164C687.836 129.115 687.034 129.244 686.766 128.776C686.869 128.269 687.068 127.892 687.301 127.404Z"/><path fill="#12BCD5" d="M878.806 504.465C879.364 504.016 880.123 503.912 880.781 504.194C881.439 504.476 881.887 505.098 881.946 505.812C882.005 506.525 881.666 507.213 881.064 507.599C880.199 508.155 879.051 507.936 878.45 507.102C877.849 506.268 878.006 505.11 878.806 504.465Z"/><path fill="#FCFCFC" d="M983.127 579.085C986.889 578.932 987.732 577.931 988.737 581.553C986.627 581.584 983.529 582.455 983.227 579.75L983.127 579.085Z"/><path fill="#051D38" d="M630.642 479.214L631.085 479.329C632.497 479.685 634.689 479.418 634.325 481.577C633.012 482.49 631.929 481.774 630.668 481.123C630.332 480.93 629.302 480.513 629.137 480.181C629.262 479.832 630.311 479.407 630.642 479.214Z"/><path fill="#8F97A0" d="M630.642 479.214C630.802 479.987 630.719 480.322 630.668 481.123C630.332 480.93 629.302 480.513 629.137 480.181C629.262 479.832 630.311 479.407 630.642 479.214Z"/><path fill="#051D38" d="M681.983 133.365C680.181 141.828 678.18 135.263 681.179 132.569C681.537 132.827 681.693 133.043 681.983 133.365Z"/><path fill="#8F97A0" d="M681.179 132.569C681.537 132.827 681.693 133.043 681.983 133.365C681.609 133.053 681.437 132.961 681.179 132.569Z"/><path fill="#FCFCFC" d="M1294.85 667.225C1295.42 666.854 1296.16 666.84 1296.75 667.189C1297.34 667.539 1297.68 668.191 1297.63 668.875C1297.58 669.558 1297.15 670.155 1296.52 670.417C1295.65 670.774 1294.66 670.413 1294.23 669.584C1293.79 668.756 1294.06 667.733 1294.85 667.225Z"/><path fill="#051D38" d="M689.778 157.471L690.279 157.595C696.729 159.148 692.769 160.658 688.282 159.005C688.722 158.522 689.273 157.855 689.778 157.471Z"/><path fill="#AFB6BC" d="M689.778 157.471C689.996 158.681 689.399 158.52 688.282 159.005C688.722 158.522 689.273 157.855 689.778 157.471Z"/><path fill="#787E88" d="M400.742 263.619C401.289 262.44 404.953 258.706 406.133 259.249C406.625 260.224 402.022 263.784 400.935 264.774L400.742 263.619Z"/><path fill="#17B8BE" d="M1276.38 246.875C1277.2 246.529 1278.15 246.867 1278.58 247.655C1279 248.442 1278.76 249.423 1278.01 249.919C1277.46 250.286 1276.75 250.31 1276.18 249.98C1275.61 249.651 1275.28 249.026 1275.32 248.367C1275.36 247.708 1275.77 247.13 1276.38 246.875Z"/><path fill="#17B8BE" d="M1284.22 241.379C1286.84 243.213 1284.7 244.205 1282.93 246.082C1280.13 245.338 1283.07 242.961 1284.22 241.379Z"/><path fill="#152238" d="M703.487 156.299C703.847 156.098 703.884 156.003 704.196 156.016C704.206 156.039 704.557 156.854 704.569 156.891C702.933 157.842 702.662 158.183 700.824 158.422C700.355 158.45 699.747 158.571 699.349 158.426C699.449 158.24 699.698 158.139 699.903 158.036L700.865 157.557C701.844 157.038 702.44 156.714 703.487 156.299Z"/><path fill="#AFB6BC" d="M700.824 158.422C700.355 158.45 699.747 158.571 699.349 158.426C699.449 158.24 699.698 158.139 699.903 158.036L700.865 157.557L700.824 158.422Z"/><path fill="#8F97A0" d="M703.487 156.299C703.847 156.098 703.884 156.003 704.196 156.016C704.206 156.039 704.557 156.854 704.569 156.891L703.487 156.299Z"/><path fill="#152238" d="M1238.63 198.245L1240.89 198.06C1239.93 199.174 1239.07 200.387 1238.01 201.358L1235.94 200.199C1237.15 199.448 1237.22 198.93 1238.63 198.245Z"/><path fill="#0E5471" d="M946.236 535.131C949.085 537.056 947.254 537.345 945.451 540.181C944.082 539.114 945.675 536.878 946.236 535.131Z"/><path fill="#12BCD5" d="M1292.42 229.52C1293.19 229.259 1294.03 229.604 1294.4 230.329C1294.76 231.054 1294.54 231.938 1293.87 232.402C1293.35 232.767 1292.66 232.793 1292.11 232.469C1291.56 232.145 1291.25 231.531 1291.32 230.897C1291.39 230.262 1291.81 229.725 1292.42 229.52Z"/><path fill="#17B8BE" d="M1235.94 200.199L1238.01 201.358C1237.07 203.119 1236.96 203.553 1236.39 205.429L1234.99 204.825C1235.02 202.36 1235.03 202.46 1235.94 200.199Z"/><path fill="#152238" d="M627.698 511.592C630.366 511.326 632.43 509.951 631.32 512.812C629.102 513.064 628.936 513.39 627.698 511.592Z"/><path fill="#17B8BE" d="M738.175 514.517C741.075 514.578 742.741 514.098 741.436 517.397C738.871 516.854 737.457 517.285 738.175 514.517Z"/><path fill="#17B8BE" d="M1251.3 186.838C1251.75 186.473 1252.37 186.384 1252.9 186.605C1253.44 186.827 1253.81 187.323 1253.88 187.9C1253.94 188.477 1253.68 189.044 1253.21 189.377C1252.51 189.868 1251.54 189.715 1251.03 189.031C1250.51 188.346 1250.63 187.376 1251.3 186.838Z"/><path fill="#787E88" d="M424.986 283.23C425.804 281.68 427.01 277.742 427.894 277.391C429.17 277.706 425.981 283.903 425.394 284.546L424.986 283.23Z"/><path fill="#12BCD5" d="M1269.08 249.7C1269.44 249.252 1270.03 249.041 1270.6 249.153C1271.17 249.264 1271.63 249.679 1271.8 250.233C1271.97 250.787 1271.83 251.391 1271.42 251.806C1270.83 252.409 1269.87 252.44 1269.24 251.876C1268.61 251.312 1268.54 250.353 1269.08 249.7Z"/><path fill="#17B8BE" d="M794.837 334.412C795.565 334.003 796.485 334.244 796.92 334.956C797.355 335.669 797.149 336.598 796.453 337.059C795.98 337.373 795.373 337.403 794.871 337.137C794.369 336.871 794.052 336.352 794.045 335.784C794.038 335.216 794.342 334.69 794.837 334.412Z"/><path fill="#051D38" d="M1217.95 444.803C1216.54 443.278 1214.31 443.029 1215.22 441.169C1216.94 440.315 1217.58 442.479 1218.04 443.686L1217.95 444.803Z"/><path fill="#17B8BE" d="M1294.47 209.522C1294.97 209.155 1295.64 209.119 1296.17 209.432C1296.7 209.744 1297 210.345 1296.93 210.959C1296.85 211.573 1296.42 212.083 1295.82 212.256C1295.1 212.466 1294.33 212.128 1294 211.455C1293.67 210.782 1293.87 209.967 1294.47 209.522Z"/><path fill="#12BCD5" d="M1231.6 214.992C1232.05 214.654 1232.65 214.588 1233.16 214.821C1233.67 215.054 1234.01 215.548 1234.05 216.109C1234.09 216.67 1233.82 217.208 1233.35 217.512C1232.66 217.958 1231.73 217.775 1231.26 217.097C1230.79 216.419 1230.94 215.489 1231.6 214.992Z"/><path fill="#FCFCFC" d="M1295.14 657.376C1295.61 657.004 1296.25 656.938 1296.78 657.207C1297.31 657.475 1297.64 658.029 1297.62 658.626C1297.6 659.222 1297.23 659.752 1296.68 659.983C1295.98 660.278 1295.16 660.009 1294.78 659.352C1294.39 658.695 1294.54 657.851 1295.14 657.376Z"/><path fill="#12BCD5" d="M1233.14 229.538C1233.67 229.263 1234.31 229.32 1234.79 229.685C1235.27 230.05 1235.49 230.657 1235.36 231.243C1235.23 231.828 1234.77 232.286 1234.19 232.417C1233.43 232.587 1232.66 232.168 1232.4 231.439C1232.13 230.709 1232.45 229.895 1233.14 229.538Z"/><path fill="#12BCD5" d="M1241.28 241.903C1241.9 241.364 1242.84 241.42 1243.39 242.029C1243.95 242.638 1243.92 243.578 1243.33 244.15C1242.93 244.534 1242.35 244.672 1241.82 244.509C1241.29 244.346 1240.89 243.909 1240.78 243.367C1240.67 242.825 1240.86 242.264 1241.28 241.903Z"/><path fill="#17B8BE" d="M1291.9 203.854C1292.23 203.396 1292.79 203.163 1293.35 203.249C1293.91 203.336 1294.37 203.729 1294.55 204.266C1294.73 204.803 1294.59 205.394 1294.19 205.796C1293.64 206.355 1292.75 206.395 1292.15 205.886C1291.55 205.377 1291.44 204.492 1291.9 203.854Z"/><path fill="#0E5471" d="M1103.71 365.454C1106.33 367.291 1106.97 369.235 1107.04 372.26C1105.44 370.036 1104.61 368.027 1103.71 365.454Z"/><path fill="#12BCD5" d="M652.115 308.163C652.435 307.626 653.053 307.342 653.668 307.45C654.284 307.557 654.769 308.033 654.889 308.647C655.008 309.26 654.736 309.883 654.206 310.214C653.616 310.582 652.851 310.497 652.354 310.011C651.858 309.524 651.759 308.76 652.115 308.163Z"/><path fill="#FCFCFC" d="M1296.28 580.821C1297.02 580.919 1297.57 581.535 1297.59 582.276C1297.62 583.017 1297.1 583.665 1296.37 583.807C1295.78 583.922 1295.18 583.678 1294.84 583.186C1294.5 582.693 1294.48 582.044 1294.79 581.532C1295.1 581.02 1295.69 580.741 1296.28 580.821Z"/><path fill="#17B8BE" d="M1288.46 197.922C1289.05 197.366 1289.98 197.388 1290.55 197.973C1291.11 198.557 1291.1 199.487 1290.53 200.061C1290.15 200.439 1289.59 200.583 1289.08 200.438C1288.56 200.293 1288.16 199.881 1288.03 199.36C1287.91 198.839 1288.07 198.29 1288.46 197.922Z"/><path fill="#17B8BE" d="M1236.97 236.689C1237.41 236.397 1237.98 236.368 1238.45 236.613C1238.92 236.858 1239.23 237.338 1239.24 237.869C1239.26 238.4 1238.99 238.9 1238.54 239.176C1237.85 239.593 1236.96 239.384 1236.53 238.705C1236.1 238.026 1236.3 237.129 1236.97 236.689Z"/><path fill="#051D38" d="M949.348 554.052C951.806 555.419 956.58 558.859 949.498 556.354L949.348 554.052Z"/><path fill="#17B8BE" d="M1231.44 223.485C1232.02 222.939 1232.93 222.957 1233.49 223.527C1234.04 224.096 1234.04 225.006 1233.47 225.57C1233.1 225.942 1232.56 226.086 1232.06 225.946C1231.55 225.806 1231.16 225.404 1231.03 224.894C1230.9 224.385 1231.06 223.846 1231.44 223.485Z"/><path fill="#17B8BE" d="M1271.97 186.623C1272.34 186.366 1272.68 186.037 1273.12 186.058C1273.48 186.425 1272.95 187.077 1272.77 187.433C1272.6 187.589 1272.02 188.299 1271.64 188.092C1271.46 187.633 1271.81 187.035 1271.97 186.623Z"/><path fill="#24F1FE" d="M1295.09 224.147C1295.37 223.987 1296.45 223.15 1296.71 223.729C1296.65 224.227 1296.26 224.467 1295.89 224.833C1295.49 225.018 1294.92 225.439 1294.45 225.248C1294.3 224.784 1294.78 224.466 1295.09 224.147Z"/><path fill="#FCFCFC" d="M1102.18 311.444C1104.52 312.928 1104.42 312.89 1103.59 315.428C1100.98 313.993 1101.19 314.109 1102.18 311.444Z"/><path fill="#17B8BE" d="M1245.35 191.273C1247.32 190.396 1246.99 191.605 1245.84 192.722C1243.85 193.465 1244.27 192.339 1245.35 191.273Z"/><path fill="#FCFCFC" d="M1296.01 635.138C1297.51 634.823 1297.6 635.14 1296.67 636.269L1296.26 636.406C1294.47 636.994 1295.32 635.85 1296.01 635.138Z"/><path fill="#FCFCFC" d="M986.767 296.399C983.056 297.188 984.063 292.522 986.218 294.125L986.767 296.399Z"/><path fill="#17B8BE" d="M1238.63 198.245C1239.82 193.716 1242.54 194.63 1240.89 198.06L1238.63 198.245Z"/><path fill="#12BCD5" d="M664.443 308.56C664.888 308.279 665.09 308.071 665.394 308.11C665.547 308.406 665.499 308.812 665.513 309.129C665.121 309.363 664.739 309.752 664.276 309.763C664.144 309.431 664.344 308.963 664.443 308.56Z"/><path fill="#17B8BE" d="M1295.74 217.451C1296.12 217.156 1296.37 216.834 1296.83 216.837C1297.1 217.299 1296.7 217.657 1296.44 218.103C1296.18 218.395 1295.87 218.854 1295.49 218.888C1295.12 218.562 1295.6 217.803 1295.74 217.451Z"/><path fill="#17B8BE" d="M1265.71 185.368C1265.9 185.277 1266.45 184.928 1266.75 185.03C1266.83 185.056 1266.88 185.102 1266.9 185.183C1266.98 185.494 1266.47 185.999 1266.37 186.133C1266.03 186.289 1265.12 186.96 1264.78 186.516C1264.85 186.034 1265.34 185.705 1265.71 185.368Z"/><path fill="#353F57" d="M400.194 284.962C400.635 284.525 401.182 283.947 401.658 283.587L403.381 286.112L402.202 286.673C401.542 286.092 400.873 285.521 400.194 284.962Z"/><path fill="#8F97A0" d="M400.194 284.962C400.635 284.525 401.182 283.947 401.658 283.587C401.266 284.035 400.656 284.549 400.194 284.962Z"/><path fill="#353F57" d="M400.742 263.619L400.935 264.774C400.342 266.822 399.848 266.958 398.344 268.47C398.027 265.282 398.449 265.811 400.742 263.619Z"/><path fill="#117D9A" d="M1329.09 225.987C1330.86 224.805 1330.29 225.649 1329.93 226.661C1328.68 228.027 1328.72 227.273 1329.09 225.987Z"/><path fill="#FCFCFC" d="M1295.81 608.819C1298.24 607.561 1297.18 609.788 1296.73 611.259C1295.43 610.314 1294.53 610.056 1295.81 608.819Z"/><path fill="#17B8BE" d="M1259.02 185.937C1260.63 185.844 1259.84 186.527 1258.99 186.983C1258.47 187.025 1257.9 187.18 1257.52 186.862C1257.53 186.166 1258.42 186.106 1259.02 185.937Z"/><path fill="#FCFCFC" d="M1296.07 621.985C1297.96 621.572 1297.36 622.326 1296.48 623.346C1296.02 623.458 1295.87 623.573 1295.49 623.421C1295.06 622.893 1295.73 622.355 1296.07 621.985Z"/><path fill="#117D9A" d="M955.172 556.614C955.718 556.46 956.314 556.223 956.864 556.275C956.899 556.33 956.935 556.385 956.97 556.441C956.864 556.805 956.626 556.978 956.352 557.299C954.67 557.825 954.44 558.016 955.172 556.614Z"/><path fill="#FCFCFC" d="M997.242 579.8C997.55 579.66 998.057 579.364 998.352 579.395C998.363 579.667 998.022 580.103 997.856 580.369C997.786 580.386 997.717 580.402 997.647 580.419C997.299 580.48 996.95 580.541 996.602 580.602C996.632 580.355 996.888 580.174 997.242 579.8Z"/><path fill="#FCFCFC" d="M1295.74 595.043C1296.29 594.936 1296.54 594.632 1296.91 595.019C1296.91 595.614 1296.61 595.88 1296.24 596.4C1294.85 596.283 1294.8 596.418 1295.74 595.043Z"/><path fill="#152238" d="M686.013 155.963C687.769 156.972 687.788 157.08 689.778 157.471C689.273 157.855 688.722 158.522 688.282 159.005C687.404 158.224 686.91 157.846 686.171 156.918L686.013 155.963Z"/><path fill="#515E65" d="M425.394 284.546C423.362 287.257 420.885 287.014 424.715 283.484L424.986 283.23L425.394 284.546Z"/><path fill="#15A1BC" d="M1315.24 180.045C1315.46 179.906 1315.69 179.767 1315.92 179.629C1316.01 179.842 1315.94 180.02 1315.87 180.49C1315.66 180.619 1315.46 180.747 1315.26 180.876L1315.2 180.833C1315.16 180.52 1315.17 180.744 1315.24 180.045Z"/><path fill="#17B8BE" d="M378.08 274.586C378.256 274.476 378.608 274.155 378.891 274.186C378.836 274.609 378.701 274.953 378.546 275.376C378.313 275.561 377.927 275.947 377.671 275.948C377.746 275.469 377.906 275.06 378.08 274.586Z"/><path fill="#0E5471" d="M948.967 554.33C944.195 552.533 946.591 550.207 949.348 554.052L948.967 554.33Z"/><path fill="#15A1BC" d="M1314.87 225.953C1316.87 225.267 1316.01 226.022 1315.46 226.868C1314.31 227.179 1313.7 226.849 1314.87 225.953Z"/><path fill="#FCFCFC" d="M1296.03 647.415C1296.28 647.324 1296.59 647.142 1296.86 647.196C1296.9 647.411 1296.79 647.517 1296.6 647.925C1296.41 648.145 1296.02 648.662 1295.78 648.722C1295.72 648.416 1295.94 647.756 1296.03 647.415Z"/><path fill="#117D9A" d="M1328.96 210.805C1329.21 210.695 1329.46 210.586 1329.71 210.476C1329.84 210.729 1329.74 211.004 1329.7 211.315C1329.47 211.39 1329.15 211.512 1328.96 211.422C1328.91 211.179 1328.93 211.354 1328.96 210.805Z"/><path fill="#15A1BC" d="M1315.22 210.861C1315.43 210.76 1315.65 210.658 1315.86 210.557C1315.98 210.789 1315.89 211.057 1315.86 211.338C1315.64 211.414 1315.42 211.49 1315.19 211.566C1315.15 211.285 1315.16 211.486 1315.22 210.861Z"/><path fill="#FCFCFC" d="M1102.53 327.028C1102.74 326.952 1102.94 326.876 1103.15 326.8C1103.29 327.022 1103.23 327.21 1103.23 327.523C1103 327.618 1102.77 327.713 1102.54 327.808C1102.48 327.499 1102.5 327.72 1102.53 327.028Z"/><path fill="#353F57" d="M617.408 508.791C617.933 508.674 617.71 508.679 618.07 508.701C618.388 508.921 618.413 509.42 618.497 509.767C617.931 509.898 617.777 509.997 617.46 509.848C617.442 509.496 617.425 509.144 617.408 508.791Z"/><path fill="#15A1BC" d="M1211.07 646.552C1211.49 646.425 1211.97 646.158 1212.41 646.216C1212.41 646.484 1212.15 646.699 1211.85 647.084C1211.56 647.127 1211.06 647.241 1210.83 647.13C1210.87 646.85 1210.82 647.03 1211.07 646.552Z"/><path fill="#82A2B2" d="M387.353 274.913C387.691 274.743 387.875 274.554 388.167 274.647C388.308 274.892 388.235 274.724 388.36 275.209C387.902 275.48 388.083 275.401 387.789 275.497C387.514 275.395 387.53 275.264 387.353 274.913Z"/><path fill="#AFB6BC" d="M403.381 286.112C406.858 287.708 406.211 288.774 402.202 286.673L403.381 286.112Z"/><path fill="#15A1BC" d="M1227.31 446.491C1227.51 446.405 1227.71 446.318 1227.91 446.232C1228.02 446.457 1227.95 446.694 1227.93 446.981C1227.71 447.035 1227.49 447.088 1227.26 447.142C1227.23 446.882 1227.24 447.067 1227.31 446.491Z"/><path fill="#08324C" d="M1269.54 268.76C1269.75 268.719 1269.96 268.679 1270.17 268.638C1270.17 268.839 1269.93 269.101 1269.85 269.224C1269.61 269.246 1269.36 269.268 1269.12 269.291L1269.11 269.255C1269.23 269.033 1269.12 269.183 1269.54 268.76Z"/><path fill="#051D38" d="M1298.3 195.834C1298.53 195.81 1298.77 195.786 1299.01 195.763C1298.93 196.012 1299 195.853 1298.72 196.269C1298.44 196.319 1298.18 196.422 1297.98 196.355C1298.04 196.101 1297.97 196.265 1298.3 195.834Z"/><path fill="#CBCDD0" d="M1218.67 269.82C1218.9 269.766 1219.06 269.688 1219.25 269.75C1219.33 269.973 1219.26 270.111 1219.22 270.401C1218.87 270.496 1218.19 270.736 1217.88 270.678C1217.93 270.424 1218.45 270.024 1218.67 269.82Z"/><path fill="#15A1BC" d="M1201.54 613.917C1201.65 613.91 1201.76 613.903 1201.87 613.897C1202.01 614.082 1201.94 613.938 1202.04 614.444C1201.64 614.473 1201.76 614.503 1201.6 614.428C1201.52 614.235 1201.56 614.377 1201.54 613.917Z"/><path fill="#15A1BC" d="M958.822 468.789C959.035 468.714 959.248 468.639 959.46 468.563C959.466 468.843 959.482 468.66 959.362 469.162C958.965 469.448 959.12 469.369 958.872 469.462L958.823 469.424C958.777 469.172 958.793 469.353 958.822 468.789Z"/><path fill="#117D9A" d="M1232 256.849C1232.23 256.829 1232.46 256.81 1232.69 256.79C1232.71 256.98 1232.62 257.055 1232.42 257.395C1232.19 257.363 1231.96 257.331 1231.72 257.299C1231.81 257.149 1231.9 256.999 1232 256.849Z"/><path fill="#787E88" d="M397.891 269.82C397.673 269.523 397.579 269.48 397.545 269.178C397.771 268.879 398.028 268.7 398.344 268.47C398.549 269.006 398.557 269.149 398.673 269.565C398.42 269.799 398.347 269.738 397.891 269.82Z"/><path fill="#CBCDD0" d="M682.42 153.022C682.874 153.004 682.709 152.982 682.959 153.048C683.175 153.382 683.149 153.717 683.181 154.13C682.721 154.285 682.701 154.377 682.432 154.233C682.38 153.827 682.401 153.445 682.42 153.022Z"/><path fill="#82A2B2" d="M708.63 149.932C709.07 150.156 709.18 150.13 709.281 150.417C709.025 150.682 708.769 150.948 708.512 151.213C708.33 151.049 708.147 150.884 707.964 150.72C708.186 150.457 708.408 150.195 708.63 149.932Z"/><path fill="#CBCDD0" d="M1232.73 495.779C1232.97 495.787 1233.21 495.795 1233.45 495.803C1233.26 496.138 1233.04 496.417 1232.79 496.726C1232.56 496.713 1232.32 496.7 1232.08 496.687C1232.27 496.357 1232.49 496.083 1232.73 495.779Z"/><path fill="#AFB6BC" d="M1231.41 284.283C1231.76 284.25 1232.11 284.216 1232.46 284.182L1232.46 284.272C1232.28 284.446 1232.09 284.62 1231.91 284.795C1231.67 284.843 1231.34 284.955 1231.14 284.891C1231.12 284.698 1231.21 284.631 1231.41 284.283Z"/><path fill="#15A1BC" d="M1117.85 416.059C1118.21 415.897 1118.3 415.78 1118.59 415.862C1118.76 416.07 1118.67 415.926 1118.86 416.343C1118.65 416.446 1118.43 416.591 1118.23 416.614C1117.97 416.506 1118.01 416.42 1117.85 416.059Z"/><path fill="#15A1BC" d="M1218.17 644.847C1218.36 644.806 1218.55 644.765 1218.74 644.724L1218.75 644.742C1218.63 644.89 1218.51 645.037 1218.39 645.184C1218.18 645.257 1217.96 645.331 1217.75 645.404C1217.87 645.149 1217.77 645.32 1218.17 644.847Z"/><path fill="#117D9A" d="M971.998 468.734C972.185 468.707 972.371 468.681 972.557 468.655C972.559 468.795 972.562 468.934 972.565 469.074C972.383 469.212 972.201 469.35 972.019 469.488L971.975 469.455C971.931 469.172 971.943 469.376 971.998 468.734Z"/><path fill="#117D9A" d="M985.93 468.883C986.131 468.867 986.332 468.851 986.533 468.835C986.484 469.119 986.534 468.938 986.331 469.415C986.098 469.388 985.866 469.361 985.633 469.335C985.732 469.184 985.831 469.034 985.93 468.883Z"/><path fill="#AFB6BC" d="M1014.1 496.37C1014.3 496.251 1014.51 496.133 1014.72 496.014C1014.68 496.28 1014.65 496.545 1014.62 496.811C1014.49 496.856 1014.36 496.901 1014.24 496.946L1014.17 496.894C1014.15 496.72 1014.12 496.545 1014.1 496.37Z"/><path fill="#8F97A0" d="M612.335 489.814C612.433 489.812 612.532 489.809 612.63 489.807C612.766 490.002 612.695 489.852 612.791 490.365C612.393 490.372 612.51 490.409 612.356 490.325C612.287 490.129 612.314 490.272 612.335 489.814Z"/><path fill="#117D9A" d="M972.302 482.621C972.708 482.576 972.566 482.553 972.777 482.629C972.812 482.84 972.814 482.679 972.616 483.236C972.369 483.233 972.123 483.23 971.876 483.227L971.858 483.172C971.985 482.924 971.876 483.091 972.302 482.621Z"/><path fill="#AFB6BC" d="M639.215 485.127C639.596 485.03 639.429 485.029 639.712 485.068C639.923 485.266 639.798 485.105 640.063 485.696C639.721 485.802 639.567 485.918 639.294 485.795C639.212 485.534 639.252 485.723 639.215 485.127Z"/><path fill="#8F97A0" d="M398.924 281.167C399.051 281.154 399.177 281.141 399.304 281.129C399.417 281.298 399.36 281.165 399.401 281.643C399.277 281.621 399.153 281.6 399.029 281.578C398.903 281.391 398.952 281.516 398.924 281.167Z"/><path fill="#117D9A" d="M972.015 455.647C972.188 455.596 972.361 455.545 972.535 455.494C972.641 455.711 972.573 455.893 972.551 456.18C972.121 456.376 972.284 456.332 972.029 456.37L971.972 456.313C971.946 456.042 971.948 456.234 972.015 455.647Z"/><path fill="#117D9A" d="M972.019 495.656C972.201 495.611 972.383 495.566 972.565 495.521C972.551 495.688 972.537 495.855 972.523 496.021C972.115 496.346 972.275 496.254 972.021 496.365L971.979 496.331C971.948 496.062 971.953 496.254 972.019 495.656Z"/><path fill="#051D38" d="M1284.61 180.087C1284.74 180.074 1284.86 180.062 1284.98 180.049C1285.1 180.236 1285.04 180.09 1285.07 180.61C1284.98 180.579 1284.89 180.548 1284.81 180.517C1284.65 180.317 1284.72 180.449 1284.61 180.087Z"/><path fill="#117D9A" d="M1127.25 415.644C1127.65 415.574 1127.51 415.559 1127.71 415.622C1127.74 415.844 1127.75 415.674 1127.52 416.262C1127.28 416.253 1127.04 416.244 1126.8 416.235L1126.79 416.181C1126.92 415.937 1126.81 416.101 1127.25 415.644Z"/><path fill="#8F97A0" d="M695.651 126.686C695.799 126.679 695.947 126.675 696.095 126.673C696.298 126.795 696.205 126.707 696.337 126.971C696.133 127.134 695.929 127.296 695.725 127.458L695.671 127.425C695.603 127.142 695.63 127.349 695.651 126.686Z"/><path fill="#82A2B2" d="M709.025 135.413C709.269 135.453 709.481 135.444 709.628 135.591C709.552 135.726 709.477 135.86 709.402 135.994L709.142 136.335C708.693 136.38 708.603 136.44 708.423 136.324C708.579 135.976 708.775 135.734 709.025 135.413Z"/><path fill="#8F97A0" d="M1027.44 482.645C1027.92 482.542 1027.75 482.534 1027.99 482.59C1028 482.783 1027.91 482.867 1027.73 483.213C1027.51 483.152 1027.29 483.092 1027.08 483.032C1027.17 482.816 1027.09 482.946 1027.44 482.645Z"/><path fill="#AFB6BC" d="M678.796 139.784C678.921 139.732 679.046 139.681 679.171 139.629C679.337 139.728 679.236 139.64 679.462 140.002C679.324 140.046 679.186 140.09 679.048 140.134C678.838 140.004 678.944 140.101 678.796 139.784Z"/><path fill="#AFB6BC" d="M1220.11 509.975C1220.24 509.934 1220.37 509.894 1220.5 509.853C1220.66 509.956 1220.56 509.867 1220.77 510.216C1220.64 510.239 1220.52 510.261 1220.4 510.284C1220.19 510.171 1220.3 510.26 1220.11 509.975Z"/><path fill="#AFB6BC" d="M1027.74 455.565C1028.26 455.537 1028.23 455.389 1028.4 455.858C1028.2 456.002 1028 456.145 1027.8 456.289L1027.74 456.254C1027.68 455.989 1027.7 456.182 1027.74 455.565Z"/><path fill="#AFB6BC" d="M412.185 257.916C412.66 257.815 412.524 257.784 412.847 258.163C412.732 258.178 412.617 258.193 412.501 258.208C412.291 258.099 412.4 258.184 412.185 257.916Z"/><path fill="#0E5471" d="M1253.65 240.325C1253.9 240.335 1254.15 240.345 1254.39 240.355C1254.31 240.61 1254.39 240.449 1254.11 240.866C1253.48 240.77 1253.63 240.851 1253.44 240.708C1253.47 240.506 1253.43 240.63 1253.65 240.325Z"/><path fill="#8F97A0" d="M616.503 484.069C617.05 483.91 616.871 483.925 617.125 483.936C616.974 484.084 616.823 484.232 616.673 484.381C616.495 484.44 616.317 484.498 616.139 484.557C616.236 484.327 616.149 484.478 616.503 484.069Z"/><path fill="#117D9A" d="M985.911 495.816C986.099 495.827 986.286 495.838 986.473 495.85C986.414 495.99 986.355 496.13 986.296 496.27C986.051 496.311 985.805 496.351 985.56 496.392L985.539 496.353C985.634 496.119 985.547 496.28 985.911 495.816Z"/><path fill="#AFB6BC" d="M1027.78 469.359C1027.98 469.297 1028.19 469.234 1028.39 469.171C1028.38 469.317 1028.36 469.462 1028.35 469.608C1028 469.954 1028.14 469.85 1027.92 469.985L1027.86 469.957C1027.79 469.728 1027.83 469.896 1027.78 469.359Z"/><path fill="#787E88" d="M706.194 153.733C706.294 153.731 706.393 153.728 706.493 153.726C706.624 153.916 706.556 153.77 706.644 154.272C706.245 154.246 706.36 154.292 706.21 154.196C706.145 154.015 706.17 154.146 706.194 153.733Z"/><path fill="#AFB6BC" d="M397.89 277.224C398.026 277.233 398.281 277.205 398.413 277.311C398.396 277.449 398.379 277.586 398.363 277.724C398.172 277.756 397.775 277.867 397.576 277.818L397.549 277.768C397.627 277.533 397.551 277.695 397.89 277.224Z"/><path fill="#15A1BC" d="M1207.65 646.488C1208.02 646.305 1207.89 646.333 1208.09 646.324C1208.26 646.437 1208.16 646.338 1208.39 646.738C1208.24 646.753 1208.09 646.768 1207.94 646.783C1207.72 646.665 1207.83 646.752 1207.65 646.488Z"/><path fill="#15A1BC" d="M952.694 532.255C952.882 532.2 953.07 532.145 953.259 532.091C953.343 532.096 953.427 532.101 953.511 532.106C953.492 532.311 953.524 532.176 953.348 532.543C953.044 532.65 952.735 532.813 952.469 532.778C952.477 532.541 952.442 532.7 952.694 532.255Z"/><path fill="#787E88" d="M1000.63 455.752C1000.75 455.742 1000.87 455.732 1000.98 455.723C1001.1 455.906 1001.04 455.763 1001.07 456.269C1000.97 456.24 1000.86 456.211 1000.76 456.183C1000.63 455.984 1000.68 456.116 1000.63 455.752Z"/><path fill="#117D9A" d="M986.155 482.583C986.52 482.563 986.393 482.533 986.58 482.618C986.621 482.85 986.622 482.676 986.432 483.258C986.197 483.231 985.962 483.203 985.728 483.176L985.711 483.111C985.841 482.871 985.731 483.032 986.155 482.583Z"/><path fill="#8F97A0" d="M611.105 493.776C611.306 493.675 611.508 493.574 611.71 493.473C611.788 493.663 611.723 493.792 611.652 494.209C611.52 494.26 611.387 494.311 611.254 494.362L611.186 494.311C611.159 494.133 611.132 493.954 611.105 493.776Z"/><path fill="#787E88" d="M428.008 271.898C428.225 271.786 428.441 271.674 428.658 271.561C428.735 271.761 428.66 271.909 428.576 272.339C428.454 272.376 428.331 272.413 428.208 272.45C428.036 272.327 428.06 272.156 428.008 271.898Z"/><path fill="#117D9A" d="M945.489 549.502C945.956 549.454 945.849 549.682 946.127 550.064C945.652 550.035 945.797 550.085 945.601 549.978C945.495 549.795 945.547 549.928 945.489 549.502Z"/><path fill="#08324C" d="M1257.31 180.655C1257.42 180.651 1257.52 180.648 1257.62 180.644C1257.77 180.833 1257.69 180.687 1257.81 181.193C1257.42 181.157 1257.54 181.204 1257.38 181.106C1257.3 180.93 1257.33 181.057 1257.31 180.655Z"/><path fill="#051D38" d="M1218 211.503C1218.1 211.5 1218.2 211.497 1218.3 211.494C1218.43 211.692 1218.36 211.541 1218.44 212.061C1218.07 212.035 1218.18 212.078 1218.04 211.987C1217.97 211.798 1218 211.935 1218 211.503Z"/><path fill="#AFB6BC" d="M1232.73 482.645C1233.13 482.679 1232.99 482.637 1233.2 482.735C1233.16 482.871 1233.12 483.006 1233.08 483.141C1232.84 483.179 1232.6 483.217 1232.35 483.255L1232.33 483.214C1232.44 482.965 1232.34 483.136 1232.73 482.645Z"/><path fill="#117D9A" d="M986.447 455.556C986.854 455.503 986.695 455.499 986.952 455.538C986.99 455.641 987.028 455.744 987.066 455.848C986.866 455.987 986.667 456.126 986.467 456.265L986.42 456.231C986.374 455.97 986.387 456.16 986.447 455.556Z"/><path fill="#08324C" d="M1231.99 195.043C1232.23 195.051 1232.47 195.059 1232.71 195.066C1232.64 195.321 1232.71 195.16 1232.45 195.579C1231.91 195.523 1232.05 195.586 1231.87 195.468C1231.86 195.253 1231.84 195.387 1231.99 195.043Z"/><path fill="#08324C" d="M1245.96 179.386C1246.07 179.378 1246.18 179.37 1246.29 179.363C1246.4 179.562 1246.35 179.409 1246.37 179.941L1246.12 179.824C1245.99 179.614 1246.05 179.751 1245.96 179.386Z"/><path fill="#15A1BC" d="M956.128 531.54C956.604 531.458 956.508 531.395 956.831 531.704C956.709 531.734 956.588 531.765 956.466 531.795C956.246 531.711 956.361 531.783 956.128 531.54Z"/><path fill="#051D38" d="M1217.36 179.301C1217.45 179.302 1217.54 179.303 1217.63 179.304C1217.78 179.507 1217.7 179.352 1217.82 179.873C1217.43 179.836 1217.55 179.884 1217.39 179.785C1217.32 179.595 1217.35 179.732 1217.36 179.301Z"/><path fill="#AFB6BC" d="M619.221 481.966C619.368 481.965 619.514 481.963 619.661 481.962L619.679 482.049L619.441 482.404C619.215 482.45 618.989 482.497 618.762 482.544C618.891 482.269 618.778 482.449 619.221 481.966Z"/><path fill="#787E88" d="M958.796 495.696C958.888 495.696 958.981 495.697 959.073 495.697C959.214 495.898 959.139 495.745 959.253 496.263C958.866 496.218 958.98 496.267 958.83 496.166C958.761 495.981 958.789 496.114 958.796 495.696Z"/><path fill="#AFB6BC" d="M686.171 156.918C685.671 156.916 684.784 157.061 684.681 156.369C685.035 155.828 685.361 155.912 686.013 155.963L686.171 156.918Z"/><path fill="#787E88" d="M1218.53 284.435C1218.64 284.425 1218.76 284.414 1218.88 284.403C1218.98 284.582 1218.93 284.443 1218.94 284.938C1218.84 284.898 1218.74 284.857 1218.64 284.817C1218.52 284.633 1218.57 284.752 1218.53 284.435Z"/><path fill="#AFB6BC" d="M411.526 289.431C411.938 289.411 411.829 289.388 412.183 289.673C412.07 289.687 411.956 289.701 411.843 289.715C411.633 289.609 411.742 289.692 411.526 289.431Z"/><path fill="#AFB6BC" d="M613.919 504.345C613.963 504.387 614.012 504.425 614.051 504.472C614.167 504.617 613.932 505.111 613.921 505.144C613.617 504.848 613.682 504.967 613.621 504.78C613.689 504.57 613.621 504.707 613.919 504.345Z"/><path fill="#AFB6BC" d="M639.954 506.28C640.182 506.261 640.411 506.243 640.639 506.224C640.582 506.445 640.248 506.714 640.14 506.828C640.052 506.784 639.963 506.74 639.874 506.695C639.901 506.557 639.928 506.419 639.954 506.28Z"/><path fill="#8F97A0" d="M643.17 492.28C643.415 492.333 643.268 492.281 643.623 492.479C643.237 492.365 643.374 492.441 643.17 492.28Z"/><path fill="#AFB6BC" d="M614.519 486.173C614.685 486.2 614.851 486.227 615.018 486.253C614.914 486.324 614.81 486.394 614.706 486.465C614.56 486.382 614.635 486.455 614.519 486.173Z"/><path fill="#152238" d="M1297.84 180.048C1297.95 180.04 1298.06 180.031 1298.17 180.023C1298.27 180.215 1298.23 180.067 1298.22 180.582C1297.9 180.389 1297.96 180.375 1297.84 180.048Z"/><path fill="#15A1BC" d="M1196.42 619.628C1196.68 619.68 1196.53 619.627 1196.89 619.825C1196.49 619.709 1196.63 619.784 1196.42 619.628Z"/><path fill="#82A2B2" d="M1218.56 242.852C1218.8 242.904 1218.66 242.85 1218.97 243.049C1218.83 242.984 1218.7 242.918 1218.56 242.852Z"/><path fill="#08324C" d="M1218.04 226.431C1218.3 226.485 1218.14 226.432 1218.52 226.631C1218.11 226.51 1218.26 226.584 1218.04 226.431Z"/><path fill="#AFB6BC" d="M684.352 130.784C684.456 130.777 684.561 130.77 684.665 130.763C684.655 130.897 684.645 131.032 684.635 131.167C684.542 131.161 684.448 131.156 684.355 131.15C684.286 130.991 684.307 131.1 684.352 130.784Z"/><path fill="#8F97A0" d="M621.487 511.315C621.748 511.368 621.594 511.315 621.959 511.515C621.559 511.386 621.702 511.459 621.487 511.315Z"/><path fill="#08324C" d="M1256.24 193.593C1256.67 193.49 1256.54 193.485 1256.87 193.829C1256.75 193.846 1256.63 193.864 1256.51 193.881C1256.32 193.773 1256.41 193.857 1256.24 193.593Z"/></svg>