<?xml version="1.0" encoding="utf-8" ?><svg xmlns="http://www.w3.org/2000/svg" xmlns:xlink="http://www.w3.org/1999/xlink" width="1024" height="1024" viewBox="0 0 1024 1024"><path fill="#152238" d="M424.532 263.568C424.9 258.731 424.597 252.239 424.547 247.223L424.373 219.462C424.286 199.918 424.124 186.184 438.101 170.603C448.584 158.918 463.784 152.25 479.386 152.166C491.719 152.101 505.295 151.93 517.581 152.163C541.457 152.615 565.423 148.45 583.989 166.731C602.818 185.269 601.291 202.406 601.357 226.135C601.31 238.795 601.395 251.455 601.61 264.113C609.131 266.33 621.479 270.413 628.24 273.938C638.917 262.997 649.691 252.151 660.563 241.402C674.474 227.775 683.394 220.327 704.504 220.043C710.425 219.963 721.901 222.356 726.843 225.428C739.227 233.128 751.472 246.932 761.978 257.255C770.961 266.082 779.799 275.148 788.577 284.061C800.161 295.823 805.319 307.499 804.943 323.994C804.392 348.136 791.585 357.556 775.914 373.187C768.756 380.325 761.778 387.787 754.357 394.845C758.677 404.353 762.058 414.612 765.508 424.482C778.378 425.009 791.939 424.313 804.861 424.469C813.552 424.573 821.687 424.002 830.249 425.997C838.829 428.001 846.77 432.124 853.346 437.988C878.977 461.233 868.934 495.309 871.025 526.315C871.655 535.648 871.307 552.341 869.076 561C866.808 569.622 862.438 577.548 856.358 584.069C843.51 597.872 826.736 601.461 808.708 601.083C794.489 600.785 779.424 600.534 765.241 600.982C762.321 610.062 758.155 621.087 753.739 629.466C765.824 641.97 778.414 653.66 790.872 666.155C807.072 682.638 809.358 708.078 798.053 727.94C796.748 729.838 795.296 732.488 793.715 734.142C775.401 753.305 756.587 772.276 737.715 790.885C727.325 801.13 715.512 805.383 701.055 805.077C680.176 804.635 667.976 790.629 654.321 777.009C646.241 768.705 637.225 760.254 629.352 751.677C626.11 752.558 621.278 754.812 617.916 756.033C612.578 757.974 607.346 759.739 601.957 761.533C600.836 782.933 602.586 804.642 600.779 825.973C599.698 838.744 592.81 851.204 583.326 859.66C576.408 865.788 568.079 870.106 559.085 872.23C547.409 875.039 527.552 873.987 515.028 874.013C502.682 874.038 488.545 874.294 476.414 873.806C462.85 871.98 451.729 868.635 441.469 859.043C434.707 852.681 429.821 844.584 427.344 835.636C424.72 826.144 424.994 809.875 424.992 799.73C425.11 787.304 425.04 774.876 424.782 762.452C411.267 758.816 407.615 756.999 395.088 752.16C389.317 758.663 382.8 764.728 376.692 770.756C358.794 788.419 348.324 805.543 320.493 805.077C294.61 804.643 284.763 788.231 267.637 772.17C255.714 760.988 245.331 748.951 233.531 737.707C223.99 728.49 219.514 715.1 219.808 701.958C220.866 676.843 231.566 668.029 247.86 651.85C255.494 644.219 263.225 636.686 271.052 629.253C266.799 619.416 263.741 611.637 261.166 601.143C249.733 600.725 236.862 600.869 225.47 601.036C203.982 601.352 185.926 601.082 169.431 585.086C158.479 574.464 154.17 561.435 154.032 546.268L154.02 505.763C153.999 493.836 153.078 474.359 156.034 463.443C158.335 454.881 162.868 447.084 169.169 440.848C186.853 423.075 202.432 424.612 225.124 424.578L261.162 424.512C263.022 414.607 267.155 404.443 271 395.19C262.819 387.425 255.632 380.358 247.778 372.174C232.43 356.398 219.383 345.213 219.775 321.443C220.193 296.022 237.19 284.022 253.712 267.425C264.203 256.734 274.797 246.144 285.492 235.656C296.464 225.045 306.332 219.995 322.383 220.046C351.114 220.137 367.351 246.576 387.09 263.431C390.454 266.304 394.924 270.352 397.87 273.401C405.356 270.919 417.946 267.032 424.532 263.568ZM320.374 268.463C314.818 272.686 270.832 316.797 268.909 321.435C269.054 323.19 269.801 325.158 271.028 326.401C282.96 338.523 295.098 350.62 306.845 362.935C316.013 372.546 323.708 379.894 322.024 394.383C320.7 405.77 313.713 414.905 309.944 425.703C305.717 437.813 306.287 450.394 297.627 460.399C280.505 480.661 248.331 470.757 224.988 473.114C220.939 473.523 206.571 471.042 203.242 476.206C200.927 485.383 201.926 510.362 201.932 519.728C201.938 529.067 201.254 541.016 202.393 548.428C204.018 549.954 204.732 550.712 206.591 551.885L207.469 551.958C222.074 553.099 238.292 551.616 253.026 552.098C266.307 552.272 275.614 550.286 287.263 557.929C303.98 568.897 302.865 585.569 310.047 602.314C315.292 614.542 323.085 623.083 321.977 637.005C321.586 641.92 320.022 646.67 317.417 650.856C311.031 660.913 270.935 696.159 269.893 702.582C269.522 704.868 271.419 706.844 272.811 708.482C281.524 718.732 291.855 728.148 301.307 737.756C306.308 742.838 311.227 749.05 316.73 753.5C318.048 754.566 319.737 755.478 321.48 755.449C329.19 755.319 364.163 712.105 377.129 704.85C381.748 702.275 386.983 701.01 392.268 701.193C403.774 701.593 413.328 709.546 424.146 713.064C437.341 717.676 449.352 716.873 460.79 726.009C475.659 737.885 473.266 751.879 474.427 768.359C475.778 787.555 474.893 806.507 475.664 825.382C479.234 825.539 483.011 825.574 486.596 825.545C508.225 825.374 530.068 825.983 551.668 825.528C552.807 799.995 550.59 772.596 552.212 747.152C552.976 735.166 566.519 721.126 577.754 718.634C585.921 716.823 593.364 715.997 601.936 712.994C620.001 707.801 626.859 693.939 649.164 705.659C659.416 711.046 696.69 753.584 703.645 755.488C705.015 755.114 706.361 754.315 707.348 753.259C722.903 736.615 740.707 721.435 755.164 703.916C755.664 703.311 755.845 702.398 755.541 701.668C753.842 697.78 749.065 693.629 746.407 690.859C738.704 682.832 709.037 654.679 704.972 646.341C701.254 638.67 700.823 629.815 703.779 621.819C706.309 615.084 712.314 607.696 714.883 600.176C720.999 582.273 719.799 564.186 740.36 555.186C743.293 553.934 746.39 553.108 749.557 552.734C754.34 552.145 763.099 552.389 768.215 552.395L800.463 552.472C805.595 552.515 811.654 553.258 816.645 552.069C819.299 551.437 822.044 550.011 823.085 547.326C824.812 542.874 824.551 480.53 822.772 477.277C821.986 475.84 820.369 474.536 819.071 473.565C805.154 472.621 788.141 473.82 773.907 473.317C765.109 473.006 756.451 474.249 747.659 471.833C740.682 469.928 734.411 466.031 729.613 460.619C719.472 449.111 721.149 436.552 714.678 422.34C711.895 416.229 705.917 406.102 704.32 401.227C703.08 397.561 702.571 393.688 702.819 389.826C703.049 386.097 704.142 381.29 705.951 378.03C707.432 375.419 709.186 372.973 711.185 370.733C721.868 358.794 733.984 347.587 745.307 336.229C748.704 332.822 752.429 329.508 755.6 325.908C756.178 325.253 757.884 323.317 757.66 322.355C757.336 320.961 755.637 319.156 754.693 318.059C746.506 308.543 736.996 299.779 728.149 290.859C721.863 284.522 715.593 277.217 708.735 271.547C707.534 270.555 705.319 268.797 703.657 268.812C698.024 268.864 657.871 314.442 648.774 320.076C643.315 323.457 637.022 325.347 630.575 325.011C619.25 324.42 608.939 316.679 598.469 312.803C588.492 309.109 576.489 308.839 567.501 302.944C559.802 297.895 554.337 289.336 552.485 280.367C550.79 272.159 551.6 263.053 551.651 254.685C551.702 243.89 551.671 233.094 551.557 222.299C551.488 214.25 553.879 200.271 542.8 200.421C523.404 200.685 503.971 200.406 484.576 200.307C480.309 200.265 477.481 201.372 474.161 203.916C473.498 219.507 474.271 236.317 474.022 252.004C473.871 261.474 475.111 272.041 472.823 281.279C471.194 288.103 467.576 294.29 462.426 299.056C451.981 308.611 437.093 309.454 423.977 314.418C412.138 318.899 405.4 325.852 392.364 325.075C387.44 324.784 382.665 323.272 378.472 320.674C371.393 316.352 361.928 306.127 355.704 299.948C349.273 293.608 342.78 287.33 336.229 281.114C331.538 276.64 326.265 271.172 320.374 268.463Z"/><path fill="#17B8BE" d="M452.751 381.625C461.695 380.929 465.825 382.512 472.744 387.939C480.138 393.74 484.336 408.311 478.681 416.311C470.848 427.393 457.288 438.557 447.722 448.501C435.125 461.71 422.125 474.493 409.332 487.494C401.073 495.888 391.744 504.209 383.849 512.774C406.057 534.493 428.142 556.337 450.102 578.305C458.504 586.728 469.548 596.332 477.068 605.156C489.117 619.295 479.575 638.494 462.454 642.911C445.909 646.151 438.048 635.101 427.702 624.689L400.745 597.541L365.065 561.88C351.81 548.629 338.995 538.982 335.562 519.506C333.276 506.932 336.191 493.969 343.64 483.584C346.987 478.99 359.511 467.187 364.31 462.477L401.551 425.685C409.433 417.861 417.249 409.971 425 402.017C433.191 393.651 440.743 383.469 452.751 381.625Z"/><path fill="#17B8BE" d="M566.35 380.661C571.968 380.457 578.837 382.932 582.845 386.894C609.586 413.319 636.127 440.241 662.655 466.85C675.892 480.127 686.01 485.881 689.123 505.979C693.117 531.764 678.569 542.585 662.346 558.492L632.682 588.017L600.737 620.239C594.961 626.128 588.761 632.866 582.497 638.136C578.814 641.236 573.827 642.166 569.178 642.846C554.691 644.207 543.171 633.882 542.985 619.513C542.964 616.009 543.907 609.622 546.255 606.868C554.052 597.721 563.437 589.005 571.918 580.496L640.227 512.385C634.484 505.721 624.377 496.564 617.725 489.928C602.023 474.412 586.398 458.816 570.852 443.144C564.042 436.387 552.127 426.42 547.026 418.731C535.848 401.884 547.494 383.182 566.35 380.661Z"/><path fill="#17B8BE" d="M601.936 712.994L601.957 761.533C600.836 782.933 602.586 804.642 600.779 825.973C599.698 838.744 592.81 851.204 583.326 859.66C576.408 865.788 568.079 870.106 559.085 872.23C547.409 875.039 527.552 873.987 515.028 874.013C502.682 874.038 488.545 874.294 476.414 873.806C476.573 857.88 476.033 841.348 475.664 825.382C479.234 825.539 483.011 825.574 486.596 825.545C508.225 825.374 530.068 825.983 551.668 825.528C552.807 799.995 550.59 772.596 552.212 747.152C552.976 735.166 566.519 721.126 577.754 718.634C585.921 716.823 593.364 715.997 601.936 712.994Z"/></svg>