<?xml version="1.0" encoding="utf-8" ?><svg xmlns="http://www.w3.org/2000/svg" xmlns:xlink="http://www.w3.org/1999/xlink" width="1024" height="1024" viewBox="0 0 1024 1024"><path fill="#152238" d="M581.514 208.663C665.513 225.785 727.662 310.273 725.972 394.899C725.826 402.218 726.318 410.534 725.938 417.709C725.359 428.636 728.719 433.313 733.321 442.831C737.305 451.162 741.385 459.447 745.561 467.684C753.863 484.648 762.043 501.671 770.1 518.753C775.029 528.97 782.718 541.144 782.506 552.435C782.322 562.208 778.6 571.46 770.083 576.89C757.128 585.299 740.256 580.943 725.483 582.526L725.429 612.844C725.316 638.325 723.713 655.679 704.692 674.935C680.015 699.916 650.325 696.732 618.247 696.302C597.81 696.028 579.937 694.27 579.713 721.972C579.648 730.038 579.8 739.182 579.485 747.302C588.318 754.211 597.42 762.062 605.587 769.733C610.944 774.763 616.142 780.557 621.438 785.71C630.568 782.655 642.093 781.063 651.564 783.375C680.37 790.407 695.417 822.614 681.724 849.062C676.326 859.579 666.951 867.505 655.682 871.079C631.658 878.667 607.545 866.669 597.846 843.642C594.781 834.261 593.647 825.036 596.226 815.296L597.051 812.172C598.219 811.506 598.244 810.991 598.791 809.72C598.775 808.918 598.74 807.857 598.16 807.234C585.982 794.188 572.642 782.251 559.122 770.608C554.929 766.998 550.377 763.533 546.524 759.697L546.458 731.606C546.432 711.614 546.036 694.985 561.69 679.423C577.872 663.333 594.174 662.931 615.137 663L641.753 663.117C650.292 663.17 657.103 663.84 665.305 661.118C682.975 655.254 692.561 640.319 692.388 621.977C692.228 605.016 692.294 587.565 692.221 570.555C692.259 564.718 691.767 554.884 692.324 549.596C710.249 549.014 731.363 550.401 748.711 549.293C746.238 542.265 739.787 529.84 736.389 522.804L708.074 463.85C701.173 449.428 691.622 435.488 692.989 419.614C693.441 414.358 692.655 408.298 692.985 402.966C695.15 337.906 658.292 274.626 599.012 246.807C594.102 244.503 588.693 242.145 583.304 240.662C585.76 228.287 585.458 220.718 581.514 208.663Z"/><path fill="#17B8BE" d="M398.916 667.576C409.854 664.651 419.548 664.25 430.56 666.946C430.735 667.034 430.91 667.123 431.085 667.211C444.821 672.381 455.765 680.413 460.969 695.055C464.722 705.306 464.175 716.638 459.454 726.48C453.839 737.965 443.975 745.095 431.98 748.89C431.849 769.138 431.686 791.075 432.116 811.26C443.975 811.173 455.834 811.216 467.692 811.387C472.881 811.434 483.7 811.262 488.453 811.994C490.726 812.889 517.134 812.899 520.448 812.327C544.912 811.654 572.477 811.915 597.051 812.172L596.226 815.296C593.647 825.036 594.781 834.261 597.846 843.642C582.628 843.283 565.682 843.838 550.233 843.77C483.376 844.089 416.519 844.025 349.663 843.578C345.644 853.736 336.816 863.225 327.031 868.152C315.64 873.773 302.489 874.663 290.445 870.627C278.892 866.654 269.354 858.315 263.875 847.395C258.598 836.534 257.844 824.024 261.777 812.607C271.406 784.952 298.289 775.485 324.879 784.691C333.725 774.572 344.289 764.296 353.801 754.722C361.165 747.311 369.622 738.21 377.364 731.393C362.322 703.839 369.375 679.744 398.916 667.576ZM350.499 811.95C366.999 811.878 387.056 812.668 402.997 811.998L403.313 750.85C399.389 753.93 390.07 763.862 385.987 767.964C373.275 780.644 360.706 793.466 348.282 806.428L350.499 811.95Z"/><path fill="#152238" d="M324.879 784.691C333.725 774.572 344.289 764.296 353.801 754.722C361.165 747.311 369.622 738.21 377.364 731.393C382.908 738.607 389.994 744.583 398.578 747.788C400.498 748.505 403.059 748.94 403.313 750.85C399.389 753.93 390.07 763.862 385.987 767.964C373.275 780.644 360.706 793.466 348.282 806.428L350.499 811.95C353.518 822.98 353.711 832.711 349.663 843.578C345.644 853.736 336.816 863.225 327.031 868.152C315.64 873.773 302.489 874.663 290.445 870.627C278.892 866.654 269.354 858.315 263.875 847.395C258.598 836.534 257.844 824.024 261.777 812.607C271.406 784.952 298.289 775.485 324.879 784.691Z"/><path fill="#152238" d="M496.302 535.589C520.505 529.987 543.974 545.057 549.366 569.123C551.888 580.847 549.683 593.093 543.23 603.202C537.931 611.519 529.56 618.054 520.346 621.501C519.789 631.365 519.973 642.137 519.971 652.087L519.97 699.165C519.971 709.49 519.559 811.241 520.448 812.327C517.134 812.899 490.726 812.889 488.453 811.994L488.208 619.845C468.811 609.329 458.13 592.132 463.086 569.43C464.69 562.085 468.272 556.643 472.521 550.539C479.909 541.799 485.653 539.246 496.302 535.589Z"/><path fill="#17B8BE" d="M361.81 278.12C366.748 286.651 374.019 293.594 382.769 298.133C379.633 301.539 376.473 305.001 374.211 309.076C384.241 320.796 390.132 333.627 388.679 349.255C386.051 377.537 368.651 392.202 341.715 396.154C340.583 401.146 340.018 406.199 339.356 411.274C328.575 408.906 317.321 409.998 307.196 414.394C309.495 407.005 310.234 400.406 312.052 392.911C304.033 388.615 297.73 385.159 291.995 377.932C274.348 355.698 279.387 322.038 301.914 305.06C316.553 294.027 330.245 292.979 347.616 294.982C352.386 288.73 355.906 283.61 361.81 278.12Z"/><path fill="#17B8BE" d="M450.123 224.172C453.792 222.738 466.573 218.421 467.395 214.704C472.669 190.849 490.933 174.274 515.143 171.367C555.128 166.566 587.657 207.156 571.551 244.997C566.098 258.01 555.682 268.311 542.609 273.62C528.954 278.979 513.736 278.743 500.254 272.961C486.125 266.796 480.177 259.402 472.567 246.417C467.777 247.454 463.024 248.657 458.317 250.023C457.932 240.831 455.103 231.907 450.123 224.172Z"/><path fill="#152238" d="M479.373 329.031C485.193 315.82 492.116 307.122 506.095 301.62C517.342 297.251 529.872 297.582 540.872 302.539C552.035 307.522 560.786 316.702 565.232 328.091C569.598 339.533 569.231 352.244 564.209 363.414C559.456 374.075 550.594 382.361 539.639 386.388C530.928 389.557 522.218 389.917 513.107 388.638C501.823 385.671 495.813 381.957 487.544 373.634C484.887 369.533 482.418 365.702 479.957 361.465C451.056 361.109 421.68 361.712 392.828 361.18C393.668 348.115 393.634 342.22 392.401 329.008C421.391 328.804 450.382 328.812 479.373 329.031Z"/><path fill="#17B8BE" d="M487.544 373.634C495.813 381.957 501.823 385.671 513.107 388.638C505.024 398.933 496.748 409.075 488.281 419.057C485.378 422.518 479.152 430.281 476.139 433.129C486.495 454.246 485.067 472.834 469.87 491.412C478.659 505.991 487.405 521.146 496.302 535.589C485.653 539.246 479.909 541.799 472.521 550.539C465.631 540.982 459.457 530.674 452.952 520.851C449.605 515.797 445.8 509.045 441.888 504.654C425.708 503.706 415.232 501.591 404.823 487.684C397.24 477.552 394.441 463.968 396.378 451.539C398.206 439.959 404.644 429.613 414.226 422.858C427.432 413.454 438.756 413.774 453.718 416.19C464.852 403.671 475.809 386.375 487.544 373.634Z"/><path fill="#152238" d="M307.196 414.394C317.321 409.998 328.575 408.906 339.356 411.274C364.582 416.815 382.027 439.886 380.484 465.667C378.942 491.448 358.871 512.275 333.164 514.768C307.458 517.262 283.758 500.681 277.289 475.677C270.821 450.673 283.506 424.68 307.196 414.394Z"/><path fill="#152238" d="M361.81 278.12C347.728 253.793 355.636 222.674 379.623 208.022C403.61 193.369 434.906 200.538 450.123 224.172C455.103 231.907 457.932 240.831 458.317 250.023C459.09 268.469 449.979 285.931 434.406 295.847C418.833 305.764 399.157 306.635 382.769 298.133C374.019 293.594 366.748 286.651 361.81 278.12Z"/><path fill="#152238" d="M359.372 519.261C361.191 518.455 362.72 517.489 364.622 517.863L366.156 519.254C369.807 522.727 373.339 526.403 376.982 529.842C411.911 562.815 429.817 609.661 430.232 657.259C430.26 660.428 430.456 663.756 430.56 666.946C419.548 664.25 409.854 664.651 398.916 667.576C399.234 653.662 397.262 635.102 394.199 621.501C386.92 589.818 369.071 561.558 343.591 541.372C336.819 535.942 330.488 531.937 323.198 527.326C323.958 526.873 324.722 526.427 325.489 525.986C338.082 526.201 347.6 523.956 359.372 519.261Z"/><path fill="#152238" d="M604.767 417.202C621.666 414.546 637.507 426.122 640.111 443.029C642.715 459.935 631.09 475.741 614.175 478.292C597.334 480.833 581.613 469.269 579.02 452.437C576.428 435.604 587.942 419.846 604.767 417.202Z"/><path fill="#0F2F51" fill-opacity="0.98039216" d="M323.198 527.326C319.127 524.744 322.707 525.745 325.489 525.986C324.722 526.427 323.958 526.873 323.198 527.326Z"/></svg>