<?xml version="1.0" encoding="utf-8" ?><svg xmlns="http://www.w3.org/2000/svg" xmlns:xlink="http://www.w3.org/1999/xlink" width="1024" height="1024" viewBox="0 0 1024 1024"><path fill="#152238" d="M510.911 155.282C520.792 159.794 535.814 169.237 546.148 174.858C556.689 181.479 566.811 187.036 577.696 193.107C595.746 203.802 614.053 213.672 632.146 224.126L809.55 326.482C833.998 340.391 858.335 354.493 882.559 368.788C888.586 372.351 901.872 379.191 906.6 382.593C916.314 388.709 928.241 395.333 938.411 400.793C928.401 406.007 918.845 411.934 909.078 417.616L864.286 443.542L828.676 464.11C822.488 467.65 815.108 471.507 809.257 475.256L809.302 605.914L809.285 638.486C809.316 644.783 809.666 654.384 809.002 660.298C799.086 668.369 786.931 676.778 777.543 684.859C773.158 688.855 768.53 692.23 763.907 695.895C714.458 735.098 654.024 757.632 591.806 766.036C583.551 767.151 559.109 770.072 550.963 768.884C547.734 768.186 531.754 768.496 527.446 768.535C526.677 777.673 527.356 798.068 527.419 807.98C554.779 818.057 566.61 839.004 566.946 867.473C566.988 871.026 567.046 874.623 567.065 878.182C567.164 886.873 567.14 895.565 566.992 904.255C557.489 904.611 545.778 904.041 535.857 904.182C535.488 897.586 536.131 890.603 535.844 884.03C535.292 871.425 538.458 855.259 529.702 844.915C525.817 840.414 520.295 837.651 514.364 837.239C503.14 836.36 491.775 844.579 490.393 855.157C488.403 870.394 490.068 888.958 489.617 904.388C479.901 904.631 468.055 904.185 458.06 904.227C458.023 864.348 451.414 824.92 497.293 807.75C497.788 795.645 497.162 780.895 497.041 768.429C490.239 767.985 480.227 768.389 473.154 768.492C464.019 768.751 448.434 766.575 439.051 765.508C383.758 759.223 335.256 737.938 286.607 712.13C274.512 705.713 260.118 697.523 247.878 691.703C247.073 727.527 249.006 765.208 247.799 801.187C237.277 801.099 226.755 801.099 216.233 801.188C215.746 791.831 216.237 777.892 216.254 768.223L216.33 699.634L216.206 476.122C208.321 470.569 194.633 463.394 185.7 458.162L118.254 419.198C108.34 413.447 96.4583 406.979 86.958 400.855C97.6019 394.663 107.96 389.207 118.636 382.656C132.471 375.061 146.487 366.443 160.188 358.491L247.712 307.544L404.866 216.578C432.44 200.369 460.118 184.339 487.899 168.488C495.601 164.13 503.128 159.494 510.911 155.282Z"/><path fill="#17B8BE" d="M577.696 193.107C595.746 203.802 614.053 213.672 632.146 224.126L809.55 326.482C833.998 340.391 858.335 354.493 882.559 368.788C888.586 372.351 901.872 379.191 906.6 382.593C904.16 383.482 894.945 389.291 892.204 390.904C884.964 395.167 877.62 399.249 870.177 403.147C859.166 397.287 848.001 390.687 837.077 384.558L752.002 336.15C734.752 326.265 718.319 316.604 700.653 307.41C695.936 316.641 691.128 325.902 685.595 334.672C696.247 341.752 709.253 348.597 720.506 354.884C759.78 376.825 798.817 399.983 838.37 421.378C815.243 435.623 789.661 449.677 766.014 463.137L690.643 506.662L512.947 609.713C485.089 592.577 455.949 576.707 427.587 560.429L250.783 459.099C228.906 446.48 205.586 433.955 184.186 420.7C195.711 414.638 208.689 406.595 220.221 399.951L314.547 345.148L463.509 259.299C500.933 237.758 540.891 215.33 577.696 193.107Z"/><path fill="#152238" d="M636.807 270.998C649.941 278.136 662.825 285.755 676.149 292.945C671.266 299.959 664.958 312.911 661.277 320.815C648.583 313.511 634.901 306.604 622.465 299.027C627.067 289.612 632.268 280.577 636.807 270.998Z"/><path fill="#17B8BE" d="M527.363 638.094C535.548 632.38 549.583 624.784 558.579 619.721C573.481 611.396 588.297 602.917 603.025 594.287L777.148 493.618C777.747 510.045 777.415 528.3 777.456 544.943L777.483 639.834C777.456 654.482 777.101 670.32 777.543 684.859C773.158 688.855 768.53 692.23 763.907 695.895C714.458 735.098 654.024 757.632 591.806 766.036C583.551 767.151 559.109 770.072 550.963 768.884L550.999 689.654C543.016 690.094 535.16 689.974 527.171 689.861C527.112 672.605 527.175 655.349 527.363 638.094Z"/><path fill="#152238" d="M743.659 543.473L744.102 543.655C744.495 545.275 743.857 567.093 743.84 570.239C743.731 595.081 743.772 619.922 743.962 644.763C730.874 654.145 712.25 663.205 698.062 671.539C680.449 681.883 662.412 692.54 644.461 702.205C642.79 699.735 641.306 696.943 639.835 694.332L629.386 675.132C637.998 669.596 648.579 663.89 657.598 658.701L712.191 627.462C711.898 605.621 712.077 583.289 712.027 561.41C719.673 556.255 735.268 547.885 743.659 543.473Z"/><path fill="#17B8BE" d="M247.909 493.994L420.042 592.538L467.161 619.546C477.084 625.205 488.4 631.378 497.891 637.576L498.043 690.013L473.209 690.006C472.913 715.155 472.563 743.392 473.154 768.492C464.019 768.751 448.434 766.575 439.051 765.508C383.758 759.223 335.256 737.938 286.607 712.13C274.512 705.713 260.118 697.523 247.878 691.703C247.26 686.362 247.62 675.791 247.654 670.005C247.717 658.082 247.715 646.158 247.646 634.235C247.49 587.488 247.577 540.741 247.909 493.994Z"/><path fill="#17B8BE" d="M510.911 155.282C520.792 159.794 535.814 169.237 546.148 174.858L284.405 325.908L194.306 378.038C183.717 384.099 162.299 397.204 152.019 401.832C140.902 396.32 129.621 388.053 118.636 382.656C132.471 375.061 146.487 366.443 160.188 358.491L247.712 307.544L404.866 216.578C432.44 200.369 460.118 184.339 487.899 168.488C495.601 164.13 503.128 159.494 510.911 155.282Z"/></svg>