<?xml version="1.0" encoding="utf-8" ?><svg xmlns="http://www.w3.org/2000/svg" xmlns:xlink="http://www.w3.org/1999/xlink" width="1024" height="1024" viewBox="0 0 1024 1024"><path fill="#152238" d="M693.594 494.358C701.194 488.614 719.309 474.709 727.033 470.862C726.834 499.752 725.742 534.406 727.002 562.972L727.01 579.96C726.542 600.476 726.532 620.999 726.98 641.516C726.937 647.539 726.977 653.745 726.695 659.748C726.27 675.167 724.21 687.049 712.281 698.412C706.132 704.235 698.533 708.304 690.278 710.195C681.41 712.211 664.101 711.568 654.464 711.567L596.099 711.535C587.204 711.531 573.464 711.136 564.967 711.724C559.382 712.052 551.608 712.056 545.95 711.819C543.007 711.338 529.734 711.534 526.058 711.527C511.466 711.462 496.874 711.476 482.282 711.567C476.326 711.79 470.364 711.803 464.407 711.605C435.257 710.895 404.946 712 375.75 711.483C364.861 711.291 343.56 712.442 334.004 710.451C325.603 708.706 317.875 704.6 311.727 698.614C301.108 688.154 298.021 676.149 297.991 661.721L297.918 644.551L297.906 582.239L297.933 563.508C298.451 532.926 297.627 501.551 297.825 470.905C306.075 475.746 318.749 485.738 326.87 491.442C336.624 498.294 347.625 506.079 356.863 513.512C389.236 513.423 424.41 514.495 456.635 513.348L461.196 513.532C461.067 518.641 461.335 542.009 460.771 545.169L461.198 547.037L461.196 547.968C462.475 548.972 520.915 548.867 527.414 548.825C534.296 548.781 557.982 549.255 565.404 548.482C566.359 546.904 565.988 546.533 565.99 544.333C566.055 541.634 566.152 538.216 565.952 535.548C566.175 528.21 566.067 520.229 566.114 512.838C599.476 512.804 635.13 513.422 668.362 512.6C671.908 510.43 674.227 508.742 677.558 506.22C677.82 506.105 679.536 504.914 679.889 504.675C681.848 503.12 683.659 502.025 685.566 500.325L687.454 499.173C688.414 498.439 689.351 497.8 690.298 497.049C691.088 496.444 693.093 495.092 693.594 494.358Z"/><path fill="#17B8BE" d="M446.915 584.484L499.99 584.469L500.026 635.437L481.778 635.438L481.923 686.128C481.951 691.975 481.667 706.244 482.282 711.567C476.326 711.79 470.364 711.803 464.407 711.605C464.247 686.111 464.28 660.616 464.503 635.122L446.974 635.185L446.915 584.484Z"/><path fill="#152238" d="M465.058 601.836L480.315 601.805C480.366 607.148 480.367 612.49 480.316 617.833C475.174 617.764 470.213 617.663 465.053 617.676L465.058 601.836Z"/><path fill="#17B8BE" d="M530.158 584.293L579.952 584.469L579.814 635.537L564.886 635.539C565.201 660.788 564.778 686.41 564.967 711.724C559.382 712.052 551.608 712.056 545.95 711.819C546.619 707.389 546.342 691.637 546.344 686.499L546.411 635.075L530.144 635.09L530.158 584.293Z"/><path fill="#152238" d="M558.052 601.756C564.539 601.68 562.995 600.985 563.197 608.25C563.285 611.437 563.173 614.727 563.139 617.917C559.343 617.853 555.546 617.843 551.75 617.887C544.155 617.992 548.425 616.589 547.345 608.749C547.081 606.835 547.138 603.94 547.045 601.922L558.052 601.756Z"/><path fill="#17B8BE" d="M365.745 546.498L416.527 546.536L416.608 597.496L365.834 597.452C365.803 592.373 365.703 587.139 365.762 582.073C343.507 582.306 320.123 582.581 297.906 582.239L297.933 563.508L365.79 563.516L365.745 546.498Z"/><path fill="#152238" d="M382.524 564.445C387.843 564.471 393.163 564.438 398.481 564.347L398.488 579.84C393.185 579.798 387.882 579.795 382.579 579.832L382.524 564.445Z"/><path fill="#17B8BE" d="M609.522 625.625C626.688 625.593 643.853 625.676 661.017 625.874L661.06 641.492L726.98 641.516C726.937 647.539 726.977 653.745 726.695 659.748C719.918 659.355 709.983 659.712 702.978 659.727L660.8 659.621L660.936 677.158L609.553 677.097L609.522 625.625Z"/><path fill="#152238" d="M627.49 643.816C632.627 643.833 637.764 643.823 642.901 643.788C642.818 649.009 642.83 654.231 642.938 659.451C637.79 659.378 632.642 659.368 627.495 659.421L627.49 643.816Z"/><path fill="#17B8BE" d="M610.012 543.732L661.027 543.573L661.03 562.889C682.053 562.274 705.81 562.877 727.002 562.972L727.01 579.96L660.833 580.051L660.959 596.539L610.033 596.59L610.012 543.732Z"/><path fill="#152238" d="M635.811 561.735C638.671 561.686 641.531 561.667 644.391 561.678L644.318 577.905C642.587 577.929 640.856 577.931 639.125 577.913C635.548 577.886 631.97 577.904 628.393 577.966C628.428 572.619 628.427 567.273 628.389 561.927C630.863 561.844 633.337 561.78 635.811 561.735Z"/><path fill="#17B8BE" d="M365.815 626.977L416.552 626.9L416.767 678.542L366.047 678.493L366.001 661.509L321.552 661.577C314.484 661.589 304.855 661.346 297.991 661.721L297.918 644.551L365.884 644.537L365.815 626.977Z"/><path fill="#152238" d="M382.88 644.586C388.159 644.647 393.438 644.643 398.716 644.577L398.721 661.574L382.804 661.661L382.88 644.586Z"/><path fill="#152238" d="M298.075 448.655C297.954 442.138 299.21 435.669 301.762 429.67C308.014 414.785 323.998 402 340.534 401.646C357.328 401.286 374.324 401.516 391.146 401.488L498.522 401.522L624.07 401.516C643.07 401.552 662.201 401.447 681.202 401.646C685.56 401.97 691.678 402.254 695.666 403.939C714.375 411.842 726.197 427.685 726.035 448.359C721.065 453.227 714.292 457.758 708.553 461.824C700.797 467.235 693.118 472.756 685.518 478.384C684.463 478.943 684.186 479.177 683.194 479.885L675.528 485.408L674.522 486.098C673.056 487.115 669.657 489.439 668.394 490.578C666.416 492.025 664.284 493.661 662.263 495.01C659.348 494.933 652.243 494.633 649.711 494.994C626.786 494.384 590.466 495.332 566.429 494.845C566.158 494.651 565.886 494.457 565.615 494.263L565.422 492.134C565.824 486.235 565.488 476.55 565.467 470.369C565.465 467.697 565.408 466.69 565.889 464.057C565.688 462.938 565.538 462.629 565.127 461.557C554.487 460.766 534.725 461.432 523.152 461.353C512.448 461.281 490.608 460.581 480.645 461.422C477.237 461.335 473.254 461.276 469.861 461.408C468.693 461.391 467.664 461.349 466.499 461.297L464.163 461.203C461.526 461.122 462.48 464.463 462.553 466.508L462.543 467.997L462.508 469.526C462.537 475.086 462.223 481.547 462.367 486.933C462.237 489.814 462.259 492.618 462.105 495.485C429.337 494.819 395.799 495.949 363.207 495.058C351.055 486.684 339.153 477.848 327.086 469.343C317.55 462.622 307.18 455.929 298.075 448.655Z"/><path fill="#152238" d="M480.763 314.156C488.011 313.504 497.332 313.915 504.75 313.82C515.575 313.745 526.597 313.849 537.4 313.814C566.837 313.719 593.766 334.194 600.799 362.901C602.535 369.985 602.562 375.369 602.457 382.537L580.039 382.437C580.034 359.009 567.544 342.401 544.458 337.126C534.209 335.361 519.098 336.796 508.279 336.485C490.393 335.972 471.657 335.297 458.151 349.013C447.666 359.661 445.625 368.074 445.446 382.509C437.973 382.589 430.499 382.573 423.026 382.459C422.464 345.366 443.531 319.334 480.763 314.156Z"/><path fill="#F9F9F9" fill-opacity="0.80392158" d="M565.467 470.369C565.488 476.55 565.824 486.235 565.422 492.134L564.735 490.071L564.622 490.719C563.448 497.143 560.082 494.984 560.988 498.984C563.1 500.67 566.047 501.177 568.388 499.641C566.58 498.064 564.394 500.26 562.204 497.792C563.838 494.447 580.165 495.649 583.873 495.755C578.447 496.803 575.242 494.989 570.606 499.546L570.703 500.315C573.708 500.671 574.844 496.87 581.126 497.421C596.436 498.764 611.623 496.653 626.991 496.242C633.176 496.077 644.102 496.178 649.711 494.994C652.243 494.633 659.348 494.933 662.263 495.01C664.284 493.661 666.416 492.025 668.394 490.578C668.063 493.385 668.681 493.864 671.509 494.255C672.312 494.366 675.324 493.888 675.347 493.94C676.551 496.753 677.028 496.487 678.408 497.785C678.452 498.346 676.808 498.545 676.551 498.584C675.314 498.772 674.495 499.899 673.257 500.075C672.85 500.135 672.76 500.373 672.768 500.704C679.624 502.668 680.869 496.78 687.454 499.173L685.566 500.325C682.459 500.915 680.51 502.117 677.259 502.522C675.613 502.727 670.601 502.983 669.624 503.624C669.079 505.002 679.258 504.704 679.889 504.675C679.536 504.914 677.82 506.105 677.558 506.22C673.94 506.542 672.192 508.259 669.423 510.679C652.899 511.541 571.058 506.614 562.927 511.88C561.768 513.942 561.896 516.886 562.539 519.121C561.954 519.245 560.299 519.433 559.897 519.78L559.923 519.781C559.922 521.748 561.777 523.351 562.348 525.453C563.054 528.049 562.329 532.581 563.237 534.276C563.401 534.051 563.564 533.827 563.727 533.603C564.39 534.764 563.259 539.951 563.588 541.5C564.044 543.651 563.842 543.104 565.99 544.333C565.988 546.533 566.359 546.904 565.404 548.482C557.982 549.255 534.296 548.781 527.414 548.825C520.915 548.867 462.475 548.972 461.196 547.968L461.198 547.037C465.826 550.439 463.638 538.533 460.771 545.169C461.335 542.009 461.067 518.641 461.196 513.532C461.662 511.295 461.714 511.209 463.187 510.118C466.421 509.934 467.25 513.502 470.813 512.734C472.035 511.52 472.088 510.434 472.485 508.739C476.012 504.59 473.159 504.941 478.467 504.681L478.433 530.517L548.004 530.529L548.018 478.37L536.065 478.357L536.196 478.077C542.58 478.213 541.927 473.69 547.813 474.218C559.419 475.259 554.756 481.304 558.488 486.978L559.266 487.114C560.794 485.67 561.07 483.615 561.129 481.632L561.311 476.39C563.051 474.339 564.572 472.884 565.467 470.369ZM549.989 486.797C550.42 485.752 551.7 483.456 550.248 482.602C549.959 482.739 549.913 483.627 549.808 483.906C549.383 481.428 551.29 480.85 548.525 478.816C548.385 480.592 548.058 489.741 548.81 490.514C549.505 490.048 549.828 487.509 549.989 486.797Z"/><path fill="#F9F9F9" fill-opacity="0.63137257" d="M548.525 478.816C551.29 480.85 549.383 481.428 549.808 483.906C549.913 483.627 549.959 482.739 550.248 482.602C551.7 483.456 550.42 485.752 549.989 486.797C549.828 487.509 549.505 490.048 548.81 490.514C548.058 489.741 548.385 480.592 548.525 478.816Z"/><path fill="#17B8BE" d="M478.522 478.262C497.582 478.308 517.037 478.562 536.065 478.357L548.018 478.37L548.004 530.529L478.433 530.517L478.467 504.681C478.499 496.37 478.211 486.39 478.522 478.262Z"/><defs><linearGradient id="gradient_0" gradientUnits="userSpaceOnUse" x1="514.64105" y1="483.60422" x2="516.1637" y2="460.80609"><stop offset="0" stop-color="#FBFAF9" stop-opacity="0.3019608"/><stop offset="1" stop-color="#FBFAFA" stop-opacity="0.50980395"/></linearGradient></defs><path fill="url(#gradient_0)" d="M473.543 462.998C476.242 464.636 486.343 462.866 490.024 462.86C508.912 462.832 527.782 462.082 546.601 463.995C550.918 464.434 558.869 462.446 561.904 466.022C563.302 466.098 564.919 465.069 565.889 464.057C565.408 466.69 565.465 467.697 565.467 470.369C564.572 472.884 563.051 474.339 561.311 476.39L561.129 481.632C561.07 483.615 560.794 485.67 559.266 487.114L558.488 486.978C554.756 481.304 559.419 475.259 547.813 474.218C541.927 473.69 542.58 478.213 536.196 478.077L532.959 477.876C528.921 475.268 522.89 478.865 520.573 477.126C519.814 469.197 521.935 472.535 528.663 472.508C530.636 472.541 534.392 472.904 535.293 470.909C527.074 468.122 501.885 469.257 492.387 469.673C490.212 469.768 487.102 470.827 486.218 470.891C483.826 471.067 482.451 469 479.093 469.75C478.088 471.082 478.314 470.341 478.479 472.072C475.037 473.476 473.213 474.745 470.027 476.307L469.581 476.529C468.013 475.012 467.234 474.038 465.524 472.662L462.794 470.043L462.508 469.526L462.543 467.997C463.882 469.02 463.103 467.897 464.529 468.06C465.078 468.386 464.751 469.528 465.251 470.355C468.094 475.062 473.301 474.732 475.477 469.747C475.835 468.929 473.373 465.669 472.013 466.243C471.977 466.259 469.168 466.419 469.338 465.729C470.002 463.891 474.054 464.949 474.294 464.136C473.821 463.374 472.044 464.164 471.754 463.572C472.03 462.863 472.729 463.07 473.543 462.998Z"/><path fill="#F9F9F9" fill-opacity="0.98431373" d="M669.423 510.679C672.192 508.259 673.94 506.542 677.558 506.22C674.227 508.742 671.908 510.43 668.362 512.6C635.13 513.422 599.476 512.804 566.114 512.838C566.067 520.229 566.175 528.21 565.952 535.548C564.495 526.338 567.16 527.882 562.539 519.121C561.896 516.886 561.768 513.942 562.927 511.88C571.058 506.614 652.899 511.541 669.423 510.679Z"/><path fill="#F9F9F9" fill-opacity="0.51764709" d="M462.794 470.043L465.524 472.662C466.055 473.813 467.532 476.571 468.303 477.762C468.606 478.23 469.432 475.706 470.281 477.704C470.765 481.929 471.622 486.973 470.633 491.137C470.496 491.7 470.262 493.697 470.733 493.905C472.147 490.181 471.368 482.449 471.177 478.353C479.641 469.703 482.461 475.83 480.226 477.714C480.927 478.032 486.049 477.926 487.138 477.899C492.635 477.92 498.616 478.047 504.078 477.928C513.3 478.16 523.693 478 532.959 477.876L536.196 478.077L536.065 478.357C517.037 478.562 497.582 478.308 478.522 478.262C478.511 477.317 478.584 475.959 477.256 476.067C475.983 476.171 474.575 477.308 473.789 478.29C471.619 481.724 472.159 486.498 472.171 490.403C472.185 494.642 473.405 498.999 472.872 503.246C472.777 504.008 473.396 504.108 473.334 504.295C472.83 505.82 472.705 507.159 472.485 508.739C472.088 510.434 472.035 511.52 470.813 512.734C467.25 513.502 466.421 509.934 463.187 510.118C461.714 511.209 461.662 511.295 461.196 513.532L456.635 513.348C456.778 513.336 458.343 513.217 458.528 513.141C463.885 510.928 463.378 499.781 462.563 495.847L463.282 495.971C467.253 496.69 466.317 495.216 466.865 492.246C467.366 490.905 467.465 488.637 467.048 487.277C465.974 483.78 465.57 481.709 465.631 478.036C465.659 476.305 463.181 473.704 462.993 471.953L462.794 470.043Z"/><path fill="#F9F9F9" fill-opacity="0.32941177" d="M685.518 478.384L686.198 479.019C686.855 479.621 689.192 480.174 689.997 479.994C692.524 479.429 694.477 478.168 697.232 478.262C698.879 478.318 699.105 476.745 701.12 476.732C702.884 478.631 699.088 479.831 698.536 482.511C697.86 485.788 691.891 489.99 693.594 494.358C693.093 495.092 691.088 496.444 690.298 497.049C687.435 493.355 682.687 496.291 681.221 491.684C679.73 486.996 676.329 489.706 675.528 485.408L683.194 479.885C684.186 479.177 684.463 478.943 685.518 478.384Z"/><path fill="#F9F9F9" fill-opacity="0.30980393" d="M478.479 472.072C478.314 470.341 478.088 471.082 479.093 469.75C482.451 469 483.826 471.067 486.218 470.891C487.102 470.827 490.212 469.768 492.387 469.673C501.885 469.257 527.074 468.122 535.293 470.909C534.392 472.904 530.636 472.541 528.663 472.508C526.463 471.735 521.866 470.936 519.682 470.685C518.026 470.494 502.677 470.943 502.285 471.344C502.625 471.392 503.833 471.531 503.83 471.672C503.814 472.626 503.574 474.593 504.274 475.648C504.633 476.188 504.193 477.396 504.078 477.928C498.616 478.047 492.635 477.92 487.138 477.899C492.691 474.303 480.395 472.264 478.479 472.072Z"/><path fill="#F9F9F9" fill-opacity="0.98823529" d="M649.711 494.994C644.102 496.178 633.176 496.077 626.991 496.242C611.623 496.653 596.436 498.764 581.126 497.421C574.844 496.87 573.708 500.671 570.703 500.315L570.606 499.546C575.242 494.989 578.447 496.803 583.873 495.755C580.165 495.649 563.838 494.447 562.204 497.792C564.394 500.26 566.58 498.064 568.388 499.641C566.047 501.177 563.1 500.67 560.988 498.984C560.082 494.984 563.448 497.143 564.622 490.719L564.735 490.071L565.422 492.134L565.615 494.263C565.886 494.457 566.158 494.651 566.429 494.845C590.466 495.332 626.786 494.384 649.711 494.994Z"/><path fill="#F9F9F9" fill-opacity="0.42352942" d="M480.645 461.422C490.608 460.581 512.448 461.281 523.152 461.353C534.725 461.432 554.487 460.766 565.127 461.557C565.538 462.629 565.688 462.938 565.889 464.057C564.919 465.069 563.302 466.098 561.904 466.022C558.869 462.446 550.918 464.434 546.601 463.995C527.782 462.082 508.912 462.832 490.024 462.86C486.343 462.866 476.242 464.636 473.543 462.998C474.627 461.979 478.735 461.87 480.645 461.422Z"/><path fill="#F9F9F9" fill-opacity="0.79215688" d="M472.485 508.739C472.705 507.159 472.83 505.82 473.334 504.295C473.396 504.108 472.777 504.008 472.872 503.246C473.405 498.999 472.185 494.642 472.171 490.403C472.159 486.498 471.619 481.724 473.789 478.29C474.575 477.308 475.983 476.171 477.256 476.067C478.584 475.959 478.511 477.317 478.522 478.262C478.211 486.39 478.499 496.37 478.467 504.681C473.159 504.941 476.012 504.59 472.485 508.739Z"/><path fill="#F9F9F9" fill-opacity="0.54509807" d="M675.528 485.408C676.329 489.706 679.73 486.996 681.221 491.684C682.687 496.291 687.435 493.355 690.298 497.049C689.351 497.8 688.414 498.439 687.454 499.173C680.869 496.78 679.624 502.668 672.768 500.704C672.76 500.373 672.85 500.135 673.257 500.075C674.495 499.899 675.314 498.772 676.551 498.584C676.808 498.545 678.452 498.346 678.408 497.785C677.028 496.487 676.551 496.753 675.347 493.94C675.324 493.888 672.312 494.366 671.509 494.255C668.681 493.864 668.063 493.385 668.394 490.578C669.657 489.439 673.056 487.115 674.522 486.098L675.528 485.408Z"/><path fill="#F9F9F9" fill-opacity="0.25098041" d="M504.078 477.928C504.193 477.396 504.633 476.188 504.274 475.648C503.574 474.593 503.814 472.626 503.83 471.672C503.833 471.531 502.625 471.392 502.285 471.344C502.677 470.943 518.026 470.494 519.682 470.685C521.866 470.936 526.463 471.735 528.663 472.508C521.935 472.535 519.814 469.197 520.573 477.126C522.89 478.865 528.921 475.268 532.959 477.876C523.693 478 513.3 478.16 504.078 477.928Z"/><path fill="#F9F9F9" fill-opacity="0.24705882" d="M469.861 461.408C473.254 461.276 477.237 461.335 480.645 461.422C478.735 461.87 474.627 461.979 473.543 462.998C472.729 463.07 472.03 462.863 471.754 463.572C472.044 464.164 473.821 463.374 474.294 464.136C474.054 464.949 470.002 463.891 469.338 465.729C469.168 466.419 471.977 466.259 472.013 466.243C473.373 465.669 475.835 468.929 475.477 469.747C473.301 474.732 468.094 475.062 465.251 470.355C464.751 469.528 465.078 468.386 464.529 468.06C463.103 467.897 463.882 469.02 462.543 467.997L462.553 466.508C464.129 466.125 468.348 463.478 469.399 461.984L469.861 461.408ZM471.176 471.756C471.842 471.201 472.145 470.322 471.962 469.474C471.779 468.627 471.14 467.951 470.303 467.721C469.467 467.49 468.572 467.744 467.981 468.378C467.142 469.278 467.148 470.674 467.993 471.567C468.838 472.461 470.231 472.544 471.176 471.756Z"/><path fill="#F9F9F9" fill-opacity="0.11764706" d="M467.981 468.378C468.572 467.744 469.467 467.49 470.303 467.721C471.14 467.951 471.779 468.627 471.962 469.474C472.145 470.322 471.842 471.201 471.176 471.756C470.231 472.544 468.838 472.461 467.993 471.567C467.148 470.674 467.142 469.278 467.981 468.378Z"/><path fill="#F9F9F9" fill-opacity="0.47450981" d="M478.479 472.072C480.395 472.264 492.691 474.303 487.138 477.899C486.049 477.926 480.927 478.032 480.226 477.714C482.461 475.83 479.641 469.703 471.177 478.353C471.368 482.449 472.147 490.181 470.733 493.905C470.262 493.697 470.496 491.7 470.633 491.137C471.622 486.973 470.765 481.929 470.281 477.704C469.432 475.706 468.606 478.23 468.303 477.762C467.532 476.571 466.055 473.813 465.524 472.662C467.234 474.038 468.013 475.012 469.581 476.529L470.027 476.307C473.213 474.745 475.037 473.476 478.479 472.072Z"/><path fill="#F9F9F9" fill-opacity="0.71372551" d="M462.508 469.526L462.794 470.043L462.993 471.953C463.181 473.704 465.659 476.305 465.631 478.036C465.57 481.709 465.974 483.78 467.048 487.277C467.465 488.637 467.366 490.905 466.865 492.246C466.317 495.216 467.253 496.69 463.282 495.971L462.563 495.847L462.571 495.573C466.83 494.33 466.692 489.442 462.367 486.933C462.223 481.547 462.537 475.086 462.508 469.526Z"/><path fill="#F9F9F9" fill-opacity="0.87843138" d="M565.99 544.333C563.842 543.104 564.044 543.651 563.588 541.5C563.259 539.951 564.39 534.764 563.727 533.603C563.564 533.827 563.401 534.051 563.237 534.276C562.329 532.581 563.054 528.049 562.348 525.453C561.777 523.351 559.922 521.748 559.923 519.781L559.897 519.78C560.299 519.433 561.954 519.245 562.539 519.121C567.16 527.882 564.495 526.338 565.952 535.548C566.152 538.216 566.055 541.634 565.99 544.333Z"/><path fill="#F9F9F9" fill-opacity="0.75686276" d="M679.889 504.675C679.258 504.704 669.079 505.002 669.624 503.624C670.601 502.983 675.613 502.727 677.259 502.522C680.51 502.117 682.459 500.915 685.566 500.325C683.659 502.025 681.848 503.12 679.889 504.675Z"/><path fill="#F9F9F9" fill-opacity="0.82745099" d="M462.367 486.933C466.692 489.442 466.83 494.33 462.571 495.573L462.105 495.485C462.259 492.618 462.237 489.814 462.367 486.933Z"/><path fill="#F9F9F9" fill-opacity="0.42745098" d="M460.771 545.169C463.638 538.533 465.826 550.439 461.198 547.037L460.771 545.169Z"/></svg>