<?xml version="1.0" encoding="utf-8" ?><svg xmlns="http://www.w3.org/2000/svg" xmlns:xlink="http://www.w3.org/1999/xlink" width="1024" height="1024" viewBox="0 0 1024 1024"><path fill="#152238" d="M489.131 348.593L721.584 348.558L784.384 348.541C795.248 348.535 813.455 347.944 823.651 349.659C837.51 352.112 850.302 358.698 860.349 368.554C870.455 378.638 875.666 389.163 879.348 402.766L880.068 402.635C879.466 407.578 880.508 421.506 880.562 427.138L880.619 484.555L881.183 698.5C881.384 716.473 881.476 734.447 881.46 752.42C881.462 762.289 881.927 778.197 880.051 787.285C877.12 801.926 869.219 815.105 857.686 824.588C847.201 833.415 834.375 839.003 820.771 840.673C809.296 842.179 783.075 841.345 770.741 841.28L681.656 841.106L369.156 841.242C372.282 825.621 377.289 807.909 380.84 791.978L409.5 666.565C417.829 633.051 425.926 599.479 433.79 565.852C434.831 562.92 437.034 552.731 437.595 549.62C437.767 549.408 437.883 549.314 437.952 549.068C438.222 547.929 438.368 547.333 438.515 546.18C439.161 543.68 439.87 541.271 440.453 538.745L441.19 535.547C441.491 534.698 441.585 534.403 441.77 533.511C442.316 531.728 442.806 529.445 443.259 527.596C443.778 524.972 444.603 521.99 445.334 519.407C445.95 516.914 446.392 515.142 446.734 512.562C447.404 509.947 448.283 506.435 449.016 503.881C449.656 501.978 450.376 498.366 450.859 496.29C451.401 494.66 452.039 492.089 452.399 490.418L454.818 481.015C455.373 479.121 455.956 476.965 456.358 475.039L456.799 473.315C458.91 466.031 460.744 457.956 462.475 450.57C462.778 449.596 462.985 449.01 463.151 447.996L463.949 446.024C464.003 445.015 464.021 444.738 464.183 443.759C465.317 440.143 466.36 436.013 467.381 432.326C467.658 430.728 468.535 427.806 468.976 425.964C469.501 424.315 470.007 422.074 470.452 420.353C470.85 419.254 471.185 418.132 471.455 416.993C471.718 415.854 471.71 415.77 472.044 414.633C474.13 405.918 476.343 397.234 478.682 388.583C479.01 387.11 479.482 385.329 479.922 383.882C480.874 380.879 481.883 376.474 482.709 373.327L483.313 371.432C483.803 367.99 485.312 364.53 485.801 360.476C487.156 356.364 488.073 352.802 489.131 348.593Z"/><path fill="#00DEC8" d="M520.644 393.374C522.453 394.156 533.696 405.276 535.912 407.396L568.223 437.977L673.399 537.283C686.519 549.839 699.681 562.347 712.799 574.908C717.615 579.806 722.605 583.596 724.139 590.724C726.208 600.339 722.876 605.456 716.312 611.824C669.286 657.442 621.609 702.42 574.397 747.839L535.415 785.173C533.154 787.339 523.504 797.084 521.51 797.523L520.178 796.466C505.606 782.706 483.291 762.53 470.216 748.073C480.456 737.502 492.786 726.261 503.478 715.863C528.736 691.382 554.121 667.03 579.629 642.81C595.761 627.641 614.548 610.586 629.856 594.802C619.464 583.731 605.748 571.397 594.621 560.684L514.749 485.264C500.267 471.654 486.157 458.878 471.988 444.772C488.044 427.486 504.264 410.353 520.644 393.374Z"/><path fill="#00DEC8" d="M125.481 394.648L125.664 282.327C125.65 270.669 124.783 237.732 126.769 228.421C129.367 216.152 135.553 204.933 144.542 196.187C164.687 176.26 181.348 176.335 207.558 176.328L248.495 176.329L389.653 176.301C391.473 176.317 395.332 176.242 396.771 177.109C406.151 182.765 415.248 192.468 423.021 200.16L468.108 245.416C473.835 251.158 484.13 262.087 489.94 266.984L490.839 267.06C499.763 267.774 512.663 267.425 521.839 267.434L575.745 267.471L746.26 267.505L792.923 267.565C822.399 267.625 843.264 266.418 864.446 290.876C871.185 298.58 875.973 307.791 878.405 317.734C881.651 330.851 880.24 355.308 880.442 369.796C880.555 377.827 880.674 394.583 880.103 402.21L880.068 402.635L879.348 402.766C875.666 389.163 870.455 378.638 860.349 368.554C850.302 358.698 837.51 352.112 823.651 349.659C813.455 347.944 795.248 348.535 784.384 348.541L721.584 348.558L489.131 348.593L277.374 348.454L215.612 348.467C188.963 348.487 165.18 346.434 144.667 367.357C136.04 376.156 130.732 383.645 127.048 395.491C126.268 395.259 126.239 395.162 125.481 394.648Z"/><defs><linearGradient id="gradient_0" gradientUnits="userSpaceOnUse" x1="187.20435" y1="583.45245" x2="440.57828" y2="327.01883"><stop offset="0" stop-color="#FDFCFB" stop-opacity="0.33725491"/><stop offset="1" stop-color="#FCFCFC" stop-opacity="0.75686276"/></linearGradient></defs><path fill="url(#gradient_0)" d="M143.085 385.237C143.098 382.812 143.003 380.987 144.429 378.675C149.982 370.124 160.394 363.126 169.769 359.414C171.516 358.722 175.901 360.036 179.067 358.911L180.733 360.048C180.59 361.013 180.504 360.601 180.822 361.307L182.732 361.807L182.948 362.273L182.666 363.224C191.215 362.619 213.474 363.606 223.324 363.933C229.537 364.871 233.181 364.389 239.313 363.803C241.634 363.581 246.189 366.208 249.255 365.329L247.253 364.056C248.569 364.09 249.252 364.054 250.588 364.352C252.784 364.841 263.608 363.417 264.999 363.676C270.02 364.614 282.09 367.386 286.663 368.993L285.727 369.685L286.263 370.343C286.965 371.216 286.966 371.122 287.333 372.089C288.516 372.28 288.868 372.19 290.075 372.095L290.381 371.871L289.813 373.059C290.518 373.644 298.601 371.011 301.262 370.723C318.118 368.9 335.415 370.277 352.165 370.916C354.968 369.981 356.936 373.167 362.033 370.803L361.781 372.069L362.372 370.935L362.416 371.23L361.669 371.67L361.982 372.088C363.252 371.874 363.677 371.12 364.511 370.214L364.855 370.395L364.137 371.666L364.503 372.02C369.368 370.43 374.565 368.994 379.626 368.043C380.787 367.824 380.063 368.28 381 367.107C381.722 367.446 382.608 367.856 383.432 367.685C394.475 365.394 405.742 365.973 416.93 365.242C426.165 364.639 435.308 364.69 444.547 364.48C456.331 363.881 466.537 362.166 478.354 363.494C479.769 367.963 479.569 368.766 483.313 371.432L482.709 373.327C481.883 376.474 480.874 380.879 479.922 383.882C477.839 382.778 477.866 380.033 476.103 381.558L475.574 381.996C475.234 383.777 475.23 383.711 475.659 385.495L475.726 385.786C476.346 386.576 477.553 387.304 478.682 388.583C476.343 397.234 474.13 405.918 472.044 414.633C466.157 409.981 466.844 419.884 470.452 420.353C470.007 422.074 469.501 424.315 468.976 425.964C468.803 425.96 465.039 425.349 466.173 425.299C461.582 425.502 460.776 431.693 467.381 432.326C466.36 436.013 465.317 440.143 464.183 443.759C463.567 439.971 461.301 438.037 458.81 441.927C456.922 444.875 459.849 449.847 462.475 450.57C460.744 457.956 458.91 466.031 456.799 473.315L456.358 475.039C451.198 473.617 452.371 480.43 454.818 481.015L452.399 490.418C452.145 489.813 452.145 489.716 451.782 489.242C451.021 489.861 450.671 489.925 449.842 489.368C449.502 489.383 448.974 489.605 448.766 489.869C448.661 490.011 448.556 490.153 448.451 490.295C448.43 490.307 448.41 490.32 448.39 490.332C447.742 491.94 449.617 496.166 450.859 496.29C450.376 498.366 449.656 501.978 449.016 503.881C448.136 503.94 445.534 503.901 444.868 504.419C444.024 508.535 443.96 507.623 445.528 512.041C445.818 512.861 445.911 513.424 446.734 512.562C446.392 515.142 445.95 516.914 445.334 519.407C438.342 521.672 441.685 524.458 442.073 529.08C434.94 528.455 437.639 521.846 437.241 516.641C432.536 516.765 435.09 526.159 435.267 528.408C435.44 530.627 432.375 535.615 432.237 538.01C431.633 541.336 432.341 542.724 431.426 545.951C430.632 548.754 425.994 552.67 426.898 554.376C428.786 557.941 425.449 563.337 424.025 566.801C423.984 566.861 423.943 566.922 423.902 566.982L424.012 567.757C429.381 564.528 427.724 557.468 430.177 552.504C430.91 551.02 433.595 548.053 435.041 546.772C435 545.548 434.351 540.801 435.052 538.949C435.207 539.738 435.403 543.164 435.436 543.241C437.275 547.574 436.142 546.902 435.595 550.582C434.666 551.754 434.093 551.979 432.81 552.685C429.608 559.528 435.48 560.845 428.804 566.285C426.431 568.219 423.443 579.741 422.059 583.091C420.42 587.943 420.374 599.661 416.21 602.605C417.108 600.555 417.878 599.578 417.325 597.591C415.432 598.33 415.58 599.551 413.552 599.867C412.413 599.381 411.629 599.062 411.167 597.758C409.442 592.889 408.028 586.082 402.571 584.067C400.874 583.44 397.446 581.301 396.123 579.903C393.512 577.141 394.529 575.697 390.568 573.936C385.74 571.791 379.323 569.237 373.971 570.774C371.692 571.429 367.286 569.53 366.528 569.805C359.533 572.53 352.907 577.272 346.771 581.657C344.788 583.074 339.44 584.481 338.981 584.953C333.495 590.599 331.632 590.798 324.775 593.091C320.879 594.394 314.754 602.389 310.312 603.864C305.882 606.092 305.106 610.357 301.462 612.674C299.011 614.233 294.062 612.045 292.197 614.719C288.834 619.541 290.341 622.312 283.958 623.616C279.974 624.503 276.108 624.899 272.047 625.341C267.869 625.796 263.012 625.164 259.007 626.2C255.315 627.154 258.222 635.596 254.574 637.688C252.977 638.604 251.676 638.585 250.444 639.588C250.058 639.398 249.602 639.193 249.243 638.972L248.498 638.506C245.299 636.543 241.137 633.339 237.977 631.063L237.294 630.586C236.655 629.608 231.574 624.613 230.967 624.332C227.409 622.685 228.525 620.859 226.188 619.298C224.253 619.659 222.523 615.128 220.742 614.098C220.492 614.196 220.436 614.464 220.221 614.621C219.444 614.328 220.153 613.63 219.285 613.361C218.005 612.964 218.189 612.01 218 610.747C218.259 610.673 219.438 610.48 219.516 610.181C218.731 609.949 217.458 609.88 217.111 608.775C221.646 608.474 215.832 606.295 215.199 606.046C212.704 605.065 214.284 604.614 210.865 602.61C210.904 602.602 209.442 603.619 209.116 603.783C205.784 605.453 208.703 601.395 209.255 600.599C209.333 599.45 209.393 598.96 209.596 597.831C209.505 595.79 209.153 595.639 207.147 594.891C207.281 594.046 208.164 593.941 209.119 592.187C210.303 592.298 210.171 593.777 211.716 593.575C212.341 593.493 214.934 592.697 215.277 592.661C215.69 593.452 214.637 599.392 215.591 599.915C216.699 600.522 221.009 600.667 222.253 599.219C223.623 597.624 223.002 595.879 223.715 594.019C223.971 591.521 220.937 590.258 218.993 590.788C216.414 591.491 217.215 588.976 217.701 587.69C217.907 586.84 219.992 584.813 220.805 584.332C224.024 582.431 227.813 579.761 228.547 575.784C228.895 573.902 225.624 575.543 225.232 575.694C224.381 575.182 223.845 573.299 222.411 576.783C220.959 580.31 219.159 577.314 219.156 580.759L219.167 580.742C218.134 581.996 216.982 581.401 216.183 583.228C213.539 582.575 215.947 585.579 212.067 585.849L211.758 584.409C216.41 580.568 236.135 559.942 239.97 559.056L240.254 559.709C237.28 561.967 233.21 568.22 231.795 571.792L232.337 572.571C239.635 567.23 246.836 562.095 253.688 556.21C254.014 555.929 258.206 556.252 258.858 556.296C267.696 552.21 302.695 528.387 306.067 519.912L306.287 519.343C313.434 515.281 315.332 513.279 319.201 506.027C318.621 505.221 318.597 505.455 318.488 504.608C321.777 504.211 324.971 504.033 328.275 503.824L328.291 503.573C326.604 503.541 325.21 503.609 323.568 503.201C325.045 498.616 338.028 488.331 335.633 483.572C333.002 483.827 331.278 486.934 327.934 486.381L327.379 485.355C327.962 482.2 333.299 478.42 331.742 476.14C330.161 476.682 328.82 477.303 327.171 477.26C327.391 476.405 348.043 456.621 350.338 454.105L349.74 453.928C344.33 456.655 334.48 467.562 328.958 472.105C330.934 468.464 332.232 469.166 333.328 465.585C335.003 463.464 345.5 453.693 347.591 451.909L356.481 443.756C342.564 430.09 328.556 416.516 314.459 403.036C319.136 402.062 314.308 398.063 312.623 400.244L312.141 400.835C311.477 400.173 310.842 399.389 310.226 398.672C314.747 397.764 308.183 392.632 309.295 398.213C307.196 396.067 305.921 394.823 303.585 392.889C297.814 398.311 290.395 406.272 284.562 410.936C287.572 405.949 293.195 402.278 296.67 397.6C297.747 396.504 298.921 395.337 299.142 393.74C299.224 393.15 298.216 392.213 297.76 392.541C287.197 400.144 279.185 410.558 269.694 419.204C268.994 419.842 263.465 425.002 263.3 425.285C264.144 428.013 267.597 420.686 268.747 424.105C268.398 424.751 264.583 427.293 266.812 427.699C264.114 430.515 246.916 447.375 244.471 449.078C241.379 452.094 236.806 456.765 233.575 459.394C233.704 458.985 234.898 455.297 234.678 455.091C234.354 455.171 233.985 455.197 233.701 455.389L233.703 455.476L233.948 455.695L233.913 455.825C231.407 457.101 233.383 452.955 229.754 455.017C221.561 457.966 202.125 482.753 193.93 488.46C193.815 488.54 193.267 490.312 193.169 490.623C190.389 492.851 184.53 498.408 181.942 499.971C177.488 500.53 176.578 501.121 171.675 500.704C171.371 500.503 171.067 500.302 170.763 500.102C170.277 493.504 175.198 483.851 175.38 477.265C175.554 470.999 175.085 468.777 173.196 463.954C175.15 454.882 161.702 456.131 155.821 454.295C148.817 452.109 150.969 444.495 148.297 438.589C144.843 430.957 140.261 423.249 137.076 415.449C136.566 414.199 137.729 408.311 138.152 406.947C140.092 404.634 139.302 404.202 140.124 401.801L140.375 401.022C141.154 398.668 141.318 395.962 141.169 393.507L141.479 393.201C142.989 391.735 145.679 388.693 145.903 386.667C146.132 384.59 148.188 382.692 148.119 382.156C148.053 382.11 147.987 382.065 147.92 382.019C147.506 381.917 147.067 382.006 146.725 382.262C146.522 382.426 146.318 382.591 146.115 382.755L146.136 382.709C144.999 383.176 145.484 384.22 143.085 385.237ZM425.258 379.196C424.271 379.326 420.507 379.334 420.404 380.82C421.353 381.815 422.061 381.432 423.252 381.476C424.796 381.534 426.912 383.032 428.408 383.716C435.507 381.234 429.791 377.981 425.258 379.196ZM351.443 457.15C352.021 455.412 352.166 453.566 353.527 452.269C353.884 452.283 355.493 449.925 354.823 449.657C352.36 448.671 350.314 450.818 348.843 451.915L349.665 451.948C355.039 451.995 347.828 459.042 351.443 457.15Z"/><path fill="#FCFDFC" fill-opacity="0.68235296" d="M425.258 379.196C429.791 377.981 435.507 381.234 428.408 383.716C426.912 383.032 424.796 381.534 423.252 381.476C422.061 381.432 421.353 381.815 420.404 380.82C420.507 379.334 424.271 379.326 425.258 379.196Z"/><path fill="#FCFDFC" fill-opacity="0.67058825" d="M348.843 451.915C350.314 450.818 352.36 448.671 354.823 449.657C355.493 449.925 353.884 452.283 353.527 452.269C352.166 453.566 352.021 455.412 351.443 457.15C347.828 459.042 355.039 451.995 349.665 451.948L348.843 451.915Z"/><path fill="#152238" d="M303.585 392.889C305.921 394.823 307.196 396.067 309.295 398.213L310.226 398.672C310.842 399.389 311.477 400.173 312.141 400.835C312.916 401.567 313.698 402.29 314.459 403.036C328.556 416.516 342.564 430.09 356.481 443.756L347.591 451.909C345.5 453.693 335.003 463.464 333.328 465.585C291.339 506.18 247.342 546.379 205.893 587.207L205.285 587.68C204.49 588.368 203.971 588.747 203.383 589.601C202.178 590.82 196.7 594.906 198.466 596.151C200.263 598.539 209.731 607.57 212.329 609.929C220.557 617.21 228.175 625.565 236.348 632.793C240.071 636.05 244.201 640.897 247.988 643.816C272.125 668.041 298.115 691.409 322.381 715.68C332.899 726.2 344.49 736.321 354.749 747.117C352.484 749.736 349.881 752.34 347.472 754.846C333.36 769.527 319.537 784.7 305.012 798.967C300.81 795.661 296.322 791.126 292.355 787.377L273.217 769.423C251.182 749.008 229.351 728.376 207.726 707.528L135.296 638.758C126.456 630.345 117.243 622.276 108.489 613.748C103.046 608.498 100.798 603.947 100.895 596.226C101.033 585.276 108.738 579.663 115.949 572.796L133.997 555.571L205.104 486.275C209.019 483.249 222.598 469.662 226.836 465.592C227.817 465.095 232.944 460.242 233.575 459.394C236.806 456.765 241.379 452.094 244.471 449.078C246.916 447.375 264.114 430.515 266.812 427.699C267.882 427.016 269.416 425.61 270.119 424.559C270.903 423.923 271.682 423.28 272.456 422.631C274.174 420.902 283.927 412.049 284.562 410.936C290.395 406.272 297.814 398.311 303.585 392.889Z"/><path fill="#FCFDFC" fill-opacity="0.70980394" d="M333.328 465.585C332.232 469.166 330.934 468.464 328.958 472.105C334.48 467.562 344.33 456.655 349.74 453.928L350.338 454.105C348.043 456.621 327.391 476.405 327.171 477.26C328.82 477.303 330.161 476.682 331.742 476.14C333.299 478.42 327.962 482.2 327.379 485.355L327.934 486.381C331.278 486.934 333.002 483.827 335.633 483.572C338.028 488.331 325.045 498.616 323.568 503.201C325.21 503.609 326.604 503.541 328.291 503.573L328.275 503.824C324.971 504.033 321.777 504.211 318.488 504.608C318.597 505.455 318.621 505.221 319.201 506.027C315.332 513.279 313.434 515.281 306.287 519.343L306.067 519.912C302.695 528.387 267.696 552.21 258.858 556.296C258.206 556.252 254.014 555.929 253.688 556.21C246.836 562.095 239.635 567.23 232.337 572.571L231.795 571.792C233.21 568.22 237.28 561.967 240.254 559.709L239.97 559.056C236.135 559.942 216.41 580.568 211.758 584.409C207.918 586.012 208.835 587.589 205.893 587.207C247.342 546.379 291.339 506.18 333.328 465.585ZM320.08 484.359C320.114 480.92 320.308 481.472 317.884 481.39C315.94 483.939 317.629 484.639 320.08 484.359Z"/><path fill="#FCFDFC" fill-opacity="0.65882355" d="M317.884 481.39C320.308 481.472 320.114 480.92 320.08 484.359C317.629 484.639 315.94 483.939 317.884 481.39Z"/><path fill="#FCFDFC" fill-opacity="0.45882353" d="M325 360.083C339.164 360.841 354.35 360.127 368.612 360.263C392.295 360.488 416.083 356.14 439.862 356.395C452.077 356.545 465.806 353.94 477.612 354.247C480.477 355.896 483.882 357.389 485.257 360.302L485.801 360.476C485.312 364.53 483.803 367.99 483.313 371.432C479.569 368.766 479.769 367.963 478.354 363.494C466.537 362.166 456.331 363.881 444.547 364.48C435.308 364.69 426.165 364.639 416.93 365.242C405.742 365.973 394.475 365.394 383.432 367.685C382.608 367.856 381.722 367.446 381 367.107C373.309 366.098 362.533 366.003 354.729 365.71C336.858 365.037 319.462 365.06 301.635 366.771C296.54 367.26 291.707 368.323 286.663 368.993C282.09 367.386 270.02 364.614 264.999 363.676C263.608 363.417 252.784 364.841 250.588 364.352C249.252 364.054 248.569 364.09 247.253 364.056L249.255 365.329C246.189 366.208 241.634 363.581 239.313 363.803C233.181 364.389 229.537 364.871 223.324 363.933C226.849 362.459 234.233 363.104 237.634 362.516C249.039 360.543 319.331 363.109 325 360.083Z"/><path fill="#FCFDFC" fill-opacity="0.14117648" d="M132.643 393.147C140.334 387.557 137.176 383.172 141.228 377.941C149.779 366.899 163.219 357.678 177.393 356.177C180.081 355.893 185.435 353.4 188.162 353.476C198.848 353.773 208.08 360.497 219.185 359.314C242.49 359.235 265.754 359.149 289.04 359.253C299.756 359.301 314.674 358.527 325 360.083C319.331 363.109 249.039 360.543 237.634 362.516C234.233 363.104 226.849 362.459 223.324 363.933C213.474 363.606 191.215 362.619 182.666 363.224L182.948 362.273L182.732 361.807L180.822 361.307C180.504 360.601 180.59 361.013 180.733 360.048L179.067 358.911C175.901 360.036 171.516 358.722 169.769 359.414C160.394 363.126 149.982 370.124 144.429 378.675C143.003 380.987 143.098 382.812 143.085 385.237C142.596 385.537 139.589 391.015 138.124 392.282C136.528 393.661 135.077 394.018 133.793 395.51C132.993 397.71 134.15 405.354 132.408 406.941C129.905 406.846 131.12 405.976 130.206 405.467C129.943 405.475 129.875 405.496 129.613 405.55C128.635 406.962 129.993 408.158 130.589 409.599C130.691 409.852 130.833 410.089 131.008 410.299L131.03 410.217L131.062 410.198C131.989 410.943 131.812 411.677 132.253 411.9C132.485 411.753 133.124 411.351 133.239 411.295L133.249 411.326L133.419 411.359C133.8 412.2 133.746 412.123 133.711 413.053C133.916 413.889 134.023 414.526 134.171 415.372C131.689 415.399 131.969 415.003 130.289 416.169C127.799 421.221 127.636 427.194 126.773 432.676C126.562 434.02 126.818 438.4 126.683 438.775L125.309 438.111C125.596 428.307 127.053 416.743 128.037 406.803C128.335 403.79 132.434 403.558 132.526 398.208L132.643 393.147Z"/><path fill="#FCFDFC" fill-opacity="0.05882353" d="M229.754 455.017C228.701 457.096 225.932 457.736 224.949 460.437C224.69 461.15 221.523 465.748 221.417 466.417L221.776 466.621C223.435 465.609 225.066 464.579 226.836 465.592C222.598 469.662 209.019 483.249 205.104 486.275C204.389 486.29 203.504 486.308 202.45 486.33C196.941 491.027 191.938 496.405 186.616 501.317C184.71 503.378 180.361 504.824 178.682 506.935C172.718 514.435 166.046 520.133 158.407 525.882C154.113 529.115 149.5 534.255 144.362 536.174L144.086 535.692C149.482 530.044 155.89 526.007 160.725 520.596L159.681 520.512L159.604 519.994L160.363 519.743C165.592 517.973 171.319 510.397 175.429 505.949L175.435 505.189C174.141 504.591 173.176 504.724 171.747 504.719L171.489 504.153C177.447 502.8 178.818 504.663 181.942 499.971C184.53 498.408 190.389 492.851 193.169 490.623C193.267 490.312 193.815 488.54 193.93 488.46C202.125 482.753 221.561 457.966 229.754 455.017Z"/><path fill="#FCFDFC" fill-opacity="0.57647061" d="M286.663 368.993C291.707 368.323 296.54 367.26 301.635 366.771C319.462 365.06 336.858 365.037 354.729 365.71C362.533 366.003 373.309 366.098 381 367.107C380.063 368.28 380.787 367.824 379.626 368.043C374.565 368.994 369.368 370.43 364.503 372.02L364.137 371.666L364.855 370.395L364.511 370.214C363.677 371.12 363.252 371.874 361.982 372.088L361.669 371.67L362.416 371.23L362.372 370.935L361.781 372.069L362.033 370.803C356.936 373.167 354.968 369.981 352.165 370.916C335.415 370.277 318.118 368.9 301.262 370.723C298.601 371.011 290.518 373.644 289.813 373.059L290.381 371.871L290.075 372.095C288.868 372.19 288.516 372.28 287.333 372.089C286.966 371.122 286.965 371.216 286.263 370.343L285.727 369.685L286.663 368.993Z"/><path fill="#FCFDFC" fill-opacity="0.078431375" d="M435.595 550.582C436.873 550.791 436.951 550.805 437.325 549.396C437.45 549.423 437.365 549.385 437.595 549.62C437.034 552.731 434.831 562.92 433.79 565.852L433.187 565.126C431.356 565.927 431.458 567.271 429.787 568.438C426.647 570.632 428.214 574.263 427.483 577.367C426.673 581.216 423.046 584.628 423.496 588.631C423.604 589.596 423.778 593.69 423.42 594.226C419.272 600.434 417.603 607.183 415.025 614.067C413.068 619.292 412.131 629.364 408.997 633.69C407.897 629.084 413.799 607.052 416.21 602.605C420.374 599.661 420.42 587.943 422.059 583.091C423.443 579.741 426.431 568.219 428.804 566.285C435.48 560.845 429.608 559.528 432.81 552.685C434.093 551.979 434.666 551.754 435.595 550.582Z"/><path fill="#FCFDFC" fill-opacity="0.69411767" d="M212.067 585.849C215.947 585.579 213.539 582.575 216.183 583.228C216.982 581.401 218.134 581.996 219.167 580.742L219.156 580.759C219.159 577.314 220.959 580.31 222.411 576.783C223.845 573.299 224.381 575.182 225.232 575.694C225.624 575.543 228.895 573.902 228.547 575.784C227.813 579.761 224.024 582.431 220.805 584.332C219.992 584.813 217.907 586.84 217.701 587.69C217.215 588.976 216.414 591.491 218.993 590.788C220.937 590.258 223.971 591.521 223.715 594.019C223.002 595.879 223.623 597.624 222.253 599.219C221.009 600.667 216.699 600.522 215.591 599.915C214.637 599.392 215.69 593.452 215.277 592.661C214.934 592.697 212.341 593.493 211.716 593.575C210.171 593.777 210.303 592.298 209.119 592.187L208.469 591.186C209.87 588.946 210.828 588.276 212.067 585.849Z"/><path fill="#FCFDFC" fill-opacity="0.58039218" d="M266.812 427.699C264.583 427.293 268.398 424.751 268.747 424.105C267.597 420.686 264.144 428.013 263.3 425.285C263.465 425.002 268.994 419.842 269.694 419.204C279.185 410.558 287.197 400.144 297.76 392.541C298.216 392.213 299.224 393.15 299.142 393.74C298.921 395.337 297.747 396.504 296.67 397.6C293.195 402.278 287.572 405.949 284.562 410.936C283.927 412.049 274.174 420.902 272.456 422.631C271.497 418.285 267.979 421.357 270.119 424.559C269.416 425.61 267.882 427.016 266.812 427.699Z"/><path fill="#FCFDFC" fill-opacity="0.48235294" d="M435.052 538.949C434.351 540.801 435 545.548 435.041 546.772C433.595 548.053 430.91 551.02 430.177 552.504C427.724 557.468 429.381 564.528 424.012 567.757L423.902 566.982C423.943 566.922 423.984 566.861 424.025 566.801C425.449 563.337 428.786 557.941 426.898 554.376C425.994 552.67 430.632 548.754 431.426 545.951C432.341 542.724 431.633 541.336 432.237 538.01C432.375 535.615 435.44 530.627 435.267 528.408C435.09 526.159 432.536 516.765 437.241 516.641C437.639 521.846 434.94 528.455 442.073 529.08L443.259 527.596C442.806 529.445 442.316 531.728 441.77 533.511C440.561 533.158 440.708 533.895 439.767 534.277C435.947 535.83 436.713 534.92 435.052 538.949Z"/><path fill="#FCFDFC" fill-opacity="0.21568628" d="M143.085 385.237C145.484 384.22 144.999 383.176 146.136 382.709L146.115 382.755C146.318 382.591 146.522 382.426 146.725 382.262C147.067 382.006 147.506 381.917 147.92 382.019C147.987 382.065 148.053 382.11 148.119 382.156C148.188 382.692 146.132 384.59 145.903 386.667C145.679 388.693 142.989 391.735 141.479 393.201L141.169 393.507C140.132 394.498 140.081 394.948 139.635 396.292L139.387 397.019C138.241 400.477 138.49 400.197 138.291 403.272C138.079 406.555 135.066 405.36 135.93 410.999C136.001 412.725 135.61 412.954 135.46 414.538L135.512 414.459C135.386 415.051 135.497 414.843 135.309 415.136C134.771 414.888 134.327 413.759 133.711 413.053C133.746 412.123 133.8 412.2 133.419 411.359L133.249 411.326L133.239 411.295C133.124 411.351 132.485 411.753 132.253 411.9C131.812 411.677 131.989 410.943 131.062 410.198L131.03 410.217L131.008 410.299C130.833 410.089 130.691 409.852 130.589 409.599C129.993 408.158 128.635 406.962 129.613 405.55C129.875 405.496 129.943 405.475 130.206 405.467C131.12 405.976 129.905 406.846 132.408 406.941C134.15 405.354 132.993 397.71 133.793 395.51C135.077 394.018 136.528 393.661 138.124 392.282C139.589 391.015 142.596 385.537 143.085 385.237Z"/><path fill="#FCFDFC" fill-opacity="0.17647059" d="M237.294 630.586L237.977 631.063C241.137 633.339 245.299 636.543 248.498 638.506L249.243 638.972C249.602 639.193 250.058 639.398 250.444 639.588C251.119 639.785 254.507 643.055 255.903 643.588C256.556 643.781 257.779 645.185 258.135 645.363C260.34 646.466 261.366 647.902 263.319 649.201C265.148 650.418 266.081 652.494 267.659 653.581C268.136 653.91 269.506 654.175 269.385 654.982C268.16 656.521 260.908 649.054 259.392 648.769C252.896 647.551 254.393 643.594 247.988 643.816C244.201 640.897 240.071 636.05 236.348 632.793C236.658 632.055 236.974 631.32 237.294 630.586Z"/><path fill="#FCFDFC" fill-opacity="0.35686275" d="M212.329 609.929C214.024 605.644 213.304 607.087 218 610.747C218.189 612.01 218.005 612.964 219.285 613.361C220.153 613.63 219.444 614.328 220.221 614.621C220.436 614.464 220.492 614.196 220.742 614.098C222.523 615.128 224.253 619.659 226.188 619.298C228.525 620.859 227.409 622.685 230.967 624.332C231.574 624.613 236.655 629.608 237.294 630.586C236.974 631.32 236.658 632.055 236.348 632.793C228.175 625.565 220.557 617.21 212.329 609.929Z"/><path fill="#FCFDFC" fill-opacity="0.51372552" d="M198.466 596.151C199 596.57 201.571 599.371 202.354 598.496C202.688 598.123 202.545 595.469 203.816 595.79C205.636 597.186 207.703 598.898 209.255 600.599C208.703 601.395 205.784 605.453 209.116 603.783C209.442 603.619 210.904 602.602 210.865 602.61C214.284 604.614 212.704 605.065 215.199 606.046C215.832 606.295 221.646 608.474 217.111 608.775C217.458 609.88 218.731 609.949 219.516 610.181C219.438 610.48 218.259 610.673 218 610.747C213.304 607.087 214.024 605.644 212.329 609.929C209.731 607.57 200.263 598.539 198.466 596.151Z"/><path fill="#FCFDFC" fill-opacity="0.29019609" d="M229.754 455.017C233.383 452.955 231.407 457.101 233.913 455.825L233.948 455.695L233.703 455.476L233.701 455.389C233.985 455.197 234.354 455.171 234.678 455.091C234.898 455.297 233.704 458.985 233.575 459.394C232.944 460.242 227.817 465.095 226.836 465.592C225.066 464.579 223.435 465.609 221.776 466.621L221.417 466.417C221.523 465.748 224.69 461.15 224.949 460.437C225.932 457.736 228.701 457.096 229.754 455.017Z"/><path fill="#FCFDFC" fill-opacity="0.5529412" d="M205.285 587.68C205.783 587.861 207.321 588.233 207.624 588.406C208.167 589.418 207.464 591.029 208.045 591.859C208.456 591.881 208.313 591.607 208.469 591.186L209.119 592.187C208.164 593.941 207.281 594.046 207.147 594.891C209.153 595.639 209.505 595.79 209.596 597.831C208.877 597.552 201.53 593.889 201.5 593.786C201.937 592.561 204.928 592.361 203.383 589.601C203.971 588.747 204.49 588.368 205.285 587.68Z"/><path fill="#FCFDFC" fill-opacity="0.57254905" d="M462.475 450.57C459.849 449.847 456.922 444.875 458.81 441.927C461.301 438.037 463.567 439.971 464.183 443.759C464.021 444.738 464.003 445.015 463.949 446.024C462.407 440.648 459.398 443.362 463.151 447.996C462.985 449.01 462.778 449.596 462.475 450.57Z"/><path fill="#FCFDFC" fill-opacity="0.25490198" d="M203.383 589.601C204.928 592.361 201.937 592.561 201.5 593.786C201.53 593.889 208.877 597.552 209.596 597.831C209.393 598.96 209.333 599.45 209.255 600.599C207.703 598.898 205.636 597.186 203.816 595.79C202.545 595.469 202.688 598.123 202.354 598.496C201.571 599.371 199 596.57 198.466 596.151C196.7 594.906 202.178 590.82 203.383 589.601Z"/><path fill="#FCFDFC" fill-opacity="0.54901963" d="M467.381 432.326C460.776 431.693 461.582 425.502 466.173 425.299C465.039 425.349 468.803 425.96 468.976 425.964C468.535 427.806 467.658 430.728 467.381 432.326Z"/><path fill="#FCFDFC" fill-opacity="0.3019608" d="M135.93 410.999C135.066 405.36 138.079 406.555 138.291 403.272C138.49 400.197 138.241 400.477 139.387 397.019L139.635 396.292C140.081 394.948 140.132 394.498 141.169 393.507C141.318 395.962 141.154 398.668 140.375 401.022L140.124 401.801C139.302 404.202 140.092 404.634 138.152 406.947C137.133 408.687 137.008 409.322 135.93 410.999Z"/><path fill="#FCFDFC" fill-opacity="0.062745102" d="M446.734 512.562C445.911 513.424 445.818 512.861 445.528 512.041C443.96 507.623 444.024 508.535 444.868 504.419C445.534 503.901 448.136 503.94 449.016 503.881C448.283 506.435 447.404 509.947 446.734 512.562Z"/><path fill="#FCFDFC" fill-opacity="0.30588236" d="M435.052 538.949C436.713 534.92 435.947 535.83 439.767 534.277C440.708 533.895 440.561 533.158 441.77 533.511C441.585 534.403 441.491 534.698 441.19 535.547C440.481 535.759 440.149 535.853 439.494 536.109C433.493 538.51 436.684 544.059 437.952 549.068C437.883 549.314 437.767 549.408 437.595 549.62C437.365 549.385 437.45 549.423 437.325 549.396C436.951 550.805 436.873 550.791 435.595 550.582C436.142 546.902 437.275 547.574 435.436 543.241C435.403 543.164 435.207 539.738 435.052 538.949Z"/><path fill="#FCFDFC" fill-opacity="0.098039217" d="M442.073 529.08C441.685 524.458 438.342 521.672 445.334 519.407C444.603 521.99 443.778 524.972 443.259 527.596L442.073 529.08Z"/><path fill="#FCFDFC" fill-opacity="0.57647061" d="M470.452 420.353C466.844 419.884 466.157 409.981 472.044 414.633C471.71 415.77 471.718 415.854 471.455 416.993C471.185 418.132 470.85 419.254 470.452 420.353Z"/><path fill="#FCFDFC" fill-opacity="0.039215688" d="M439.494 536.109C440.149 535.853 440.481 535.759 441.19 535.547L440.453 538.745C439.87 541.271 439.161 543.68 438.515 546.18L438.296 545.63C436.222 540.543 437.177 540.326 439.494 536.109Z"/><path fill="#FCFDFC" fill-opacity="0.3882353" d="M450.859 496.29C449.617 496.166 447.742 491.94 448.39 490.332C448.41 490.32 448.43 490.307 448.451 490.295C448.556 490.153 448.661 490.011 448.766 489.869C448.974 489.605 449.502 489.383 449.842 489.368C450.671 489.925 451.021 489.861 451.782 489.242C452.145 489.716 452.145 489.813 452.399 490.418C452.039 492.089 451.401 494.66 450.859 496.29Z"/><path fill="#FCFDFC" fill-opacity="0.62352943" d="M205.893 587.207C208.835 587.589 207.918 586.012 211.758 584.409L212.067 585.849C210.828 588.276 209.87 588.946 208.469 591.186C208.313 591.607 208.456 591.881 208.045 591.859C207.464 591.029 208.167 589.418 207.624 588.406C207.321 588.233 205.783 587.861 205.285 587.68L205.893 587.207Z"/><path fill="#FCFDFC" fill-opacity="0.20784314" d="M437.952 549.068C436.684 544.059 433.493 538.51 439.494 536.109C437.177 540.326 436.222 540.543 438.296 545.63L438.515 546.18C438.368 547.333 438.222 547.929 437.952 549.068Z"/><path fill="#FCFDFC" fill-opacity="0.36078432" d="M454.818 481.015C452.371 480.43 451.198 473.617 456.358 475.039C455.956 476.965 455.373 479.121 454.818 481.015Z"/><path fill="#FCFDFC" fill-opacity="0.71764708" d="M475.574 381.996L476.103 381.558C477.866 380.033 477.839 382.778 479.922 383.882C479.482 385.329 479.01 387.11 478.682 388.583C477.553 387.304 476.346 386.576 475.726 385.786C478.494 385.75 478.812 382.037 476.302 382.021L475.574 381.996Z"/><path fill="#FCFDFC" fill-opacity="0.71372551" d="M312.141 400.835L312.623 400.244C314.308 398.063 319.136 402.062 314.459 403.036C313.698 402.29 312.916 401.567 312.141 400.835Z"/><path fill="#FCFDFC" fill-opacity="0.5411765" d="M270.119 424.559C267.979 421.357 271.497 418.285 272.456 422.631C271.682 423.28 270.903 423.923 270.119 424.559Z"/><path fill="#FCFDFC" fill-opacity="0.47450981" d="M463.151 447.996C459.398 443.362 462.407 440.648 463.949 446.024L463.151 447.996Z"/><path fill="#FCFDFC" fill-opacity="0.67843139" d="M475.574 381.996L476.302 382.021C478.812 382.037 478.494 385.75 475.726 385.786L475.659 385.495C475.23 383.711 475.234 383.777 475.574 381.996Z"/><path fill="#FCFDFC" fill-opacity="0.69803923" d="M309.295 398.213C308.183 392.632 314.747 397.764 310.226 398.672L309.295 398.213Z"/><path fill="#17B8BE" fill-opacity="0.97647059" d="M125.481 394.648C126.239 395.162 126.268 395.259 127.048 395.491C126.885 396.656 126.601 397.609 126.298 398.753C126.122 399.392 125.936 400.027 125.738 400.66C125.464 398.509 125.607 397.038 125.42 394.918L125.481 394.648Z"/><path fill="#82CACF" fill-opacity="0.67450982" d="M125.42 394.918C125.607 397.038 125.464 398.509 125.738 400.66C124.725 403.894 125.27 395.606 125.42 394.918Z"/></svg>