<?xml version="1.0" encoding="utf-8" ?><svg xmlns="http://www.w3.org/2000/svg" xmlns:xlink="http://www.w3.org/1999/xlink" width="1024" height="1024" viewBox="0 0 1024 1024"><path fill="#17B8BE" d="M512.915 589.153C535.659 573.464 560.238 554.428 582.565 537.976L697.844 453.419L744.063 419.245C754.692 411.362 766.051 401.631 778.387 396.724C781.947 395.505 786.248 395.315 789.97 395.272C809.456 395.044 826.16 408.074 831.584 426.634C833.52 433.254 833.568 437.979 833.504 445.093L833.841 705.181L833.657 775.063C833.651 797.234 837.404 820.151 819.998 837.349C809.557 847.664 798.66 851.974 784.026 852.101L387.739 852.163C346.736 852.231 303.625 851.336 262.838 852.149C245.676 852.188 230.24 853.937 214.863 845.188C203.657 838.811 195.734 827.281 192.533 814.979C190.542 807.325 190.996 790.32 190.993 781.771L190.996 743.672L191.001 590.016L190.972 490.661C190.933 473.215 190.599 455.213 191.145 437.78C191.381 430.237 194.055 422.219 198.05 415.79C204.077 406.064 213.696 399.107 224.819 396.429C246.96 391.31 259.272 403.21 275.762 415.409L311.368 441.709L454.205 546.296L491.388 573.658C498.212 578.679 505.842 584.692 512.915 589.153ZM262.555 496.75C261.299 558.813 262.095 622.895 262.068 685.113L262.09 748.947C262.108 756.665 261.727 773.651 262.531 780.499C267.288 780.721 274.062 780.381 278.974 780.342L308.481 780.328L414.392 780.481L761.962 780.49C762.536 771.691 762.056 757.259 762.042 748.156L762.008 685.419L761.973 496.714L761.338 497.053C754.922 500.516 740.967 511.365 734.564 516.052L692.35 546.487L578.948 627.911L549.032 649.782C543.295 653.913 534.578 660.593 528.319 663.189C499.566 675.113 471.763 646.659 449.49 630.755L313.753 533.407L276.518 506.594C272.263 503.579 266.922 499.171 262.555 496.75Z"/><path fill="#152238" d="M833.504 445.093L833.841 705.181L833.657 775.063C833.651 797.234 837.404 820.151 819.998 837.349C809.557 847.664 798.66 851.974 784.026 852.101L387.739 852.163C346.736 852.231 303.625 851.336 262.838 852.149C262.506 828.467 263.267 804.117 262.531 780.499C267.288 780.721 274.062 780.381 278.974 780.342L308.481 780.328L414.392 780.481L761.962 780.49C762.536 771.691 762.056 757.259 762.042 748.156L762.008 685.419L761.973 496.714C765.205 494.066 769.058 491.265 772.496 488.877C792.923 474.686 812.836 458.856 833.504 445.093Z"/><path fill="#152238" d="M496.188 115.285C503.643 114.915 511.697 114.93 519.212 115.013C624.841 115.4 725.483 154.799 799.188 231.362C813.243 245.963 813.384 266.921 798.561 281.07C788.699 290.349 774.327 293.014 761.793 287.889C752.304 284.019 747.113 276.173 739.828 269.495C683.146 217.54 604.48 185.462 527.604 183.443C462.375 180.149 392.331 196.962 336.792 231.86C322.448 240.886 308.921 251.148 296.363 262.528C282.967 274.787 272.884 289.999 253.45 291.164C232.78 292.403 217.685 277.402 216.313 257.189C215.672 247.741 220.065 238.722 226.426 232.014C244.581 213.281 264.677 196.538 286.297 181.933C352.2 136.79 417.321 118.64 496.188 115.285Z"/><path fill="#17B8BE" d="M500.303 230.238C508.901 229.727 522.032 229.827 530.652 230.277C586.864 232.863 641.061 251.99 686.444 285.259C702.471 296.947 721.196 308.115 719.846 330.72C719.291 339.751 715.175 348.193 708.4 354.191C700.326 361.252 689.131 364.168 678.814 361.171C666.341 357.548 653.962 345.845 642.975 338.569C608.337 315.627 569.382 302.994 528.124 300.534C479.189 297.973 430.994 308.819 389.163 334.817C384.445 337.696 379.883 340.821 375.495 344.181C364.36 352.877 357.899 360.577 342.897 362.018C322.449 363.983 308.298 347.823 307.175 328.491C306.703 320.373 310.157 310.509 315.952 304.67C326.135 294.41 337.96 285.24 350.045 277.337C396.417 247.079 445.313 233.269 500.303 230.238Z"/><path fill="#152238" d="M504.505 349.721C542.611 348.692 577.498 355.83 610.597 375.517C625.443 384.348 636.636 394.606 635.03 413.265C634.362 421.942 630.241 429.988 623.589 435.6C611.82 445.379 595.5 445.395 582.309 438.774C575.475 435.344 569.819 431.172 562.644 428.099C550.478 422.889 536.6 419.035 523.376 417.876C499.625 415.867 475.79 420.595 454.604 431.517C445.391 436.237 438.321 442.152 427.63 443.083C418.399 443.886 410.373 441.156 403.346 435.165C396.659 429.384 392.563 421.168 391.97 412.349C389.045 368.235 470.842 351.429 504.505 349.721Z"/></svg>