<?xml version="1.0" encoding="utf-8" ?><svg xmlns="http://www.w3.org/2000/svg" xmlns:xlink="http://www.w3.org/1999/xlink" width="1024" height="1024" viewBox="0 0 1024 1024"><path fill="#152238" d="M662.408 444.181C701.301 440.512 735.033 468.669 735.414 508.53C735.527 520.321 735.457 532.142 735.433 543.94L735.452 604.868L735.453 646.681C735.434 670.668 736.359 694.509 718.477 713.392C707.525 724.957 689.13 732.764 673.254 733.183C655.458 733.654 638.233 726.886 625.519 714.426C603.522 693.201 606.283 668.289 606.402 640.403C606.557 624.191 606.591 607.978 606.504 591.765C586.771 611.975 576.643 620.171 575.635 649.441C576.294 672.527 577.661 686.894 563.744 706.909C554.177 720.669 539.056 729.218 522.601 732.023C505.412 734.958 487.766 730.817 473.678 720.541C459.897 710.756 450.66 695.813 448.069 679.111C445.485 662.401 448.355 644.935 458.539 631.161C471.005 614.3 489.868 604.283 510.95 604.524C523.229 604.665 534.902 606.336 547.181 604.388C561.097 602.181 572.478 594.897 582.235 584.936C627.67 538.552 590.131 507.721 617.823 469.997C628.69 455.192 644.448 446.864 662.408 444.181Z"/><path fill="#17B8BE" d="M348.18 290.692C348.857 290.574 348.634 290.591 349.278 290.557C366.505 289.731 383.359 295.76 396.155 307.324C409.505 319.382 418.876 338.096 418.322 356.342C417.543 382.041 416.342 408.655 417.731 434.325C423.828 429.271 430.353 422.179 435.977 416.368C443.709 408.38 451.842 400.174 459.33 391.995C440.555 364.045 448.135 324.98 474.199 304.356C502.434 282.015 542.177 287.582 564.021 315.831C587.662 346.405 578.099 394.43 542.258 410.639C526.647 417.897 517.999 418.829 501.385 416.491C491.67 414.985 484.13 411.088 475.752 406.05C472.91 408.587 466.359 415.589 463.579 418.585C452.932 430.053 432.076 447.571 425.056 460.456C407.368 493.922 430.718 520.885 404.377 553.212C380.62 582.367 341.913 586.477 312.376 563.143C286.854 542.981 288.247 516.606 288.276 487.406L288.311 435.853L288.261 380.538C288.255 370.117 287.821 353.177 289.526 343.523C291.429 333.019 295.98 323.173 302.75 314.918C315.04 299.816 329.122 292.712 348.18 290.692Z"/><path fill="#17B8BE" d="M576.783 431.593C578.107 440.51 582.921 446.873 592.609 446.239C571.394 473.638 576.884 487.916 576.235 519.024C575.646 547.246 548.598 573.437 521.004 575.477C509.875 576.757 501.654 574.725 491.228 574.86C467.563 575.165 453.902 585.131 438.513 601.683C433.101 607.504 427.979 611.595 422.511 618.469C417.193 625.131 413.153 632.719 410.597 640.851C406.156 631.818 399.656 623.955 391.619 617.895C396.754 613.347 406.292 603.145 411.464 597.783C429.293 579.296 446.132 566.916 447.882 539.449C448.687 526.807 446.729 509.608 448.441 498.156C450.445 485.582 456.183 473.9 464.911 464.627C478.357 450.412 497.249 442.347 516.739 444.563C541.104 447.333 556.561 446.568 576.783 431.593Z"/><path fill="#152238" d="M576.783 431.593C587.533 418.932 597.468 411.417 603.402 395.576C612.233 372.003 601.293 352.313 611.836 329.261C616.536 318.982 620.57 313.54 629.298 306.041C639.499 297.105 652.294 291.674 665.808 290.543C722.45 285.652 756.638 351.734 720.368 394.918C709.862 407.427 691.402 416.985 675.298 416.939C652.548 416.874 631.685 413.178 612.298 428.51C606.416 433.161 598.556 442.384 592.609 446.239C582.921 446.873 578.107 440.51 576.783 431.593Z"/><path fill="#152238" d="M410.597 640.851C424.968 670.086 415.179 705.451 387.82 723.136C360.462 740.82 324.197 735.226 303.439 710.118C282.682 685.011 284.006 648.341 306.519 624.795C329.032 601.249 365.606 598.284 391.619 617.895C399.656 623.955 406.156 631.818 410.597 640.851Z"/></svg>