<?xml version="1.0" encoding="utf-8" ?><svg xmlns="http://www.w3.org/2000/svg" xmlns:xlink="http://www.w3.org/1999/xlink" width="1536" height="768" viewBox="0 0 1536 768"><path fill="#152238" d="M1056.99 334.87C1064.14 335.107 1071.03 335.298 1077.75 337.824C1121.41 354.248 1123.28 409.466 1082.12 429.934C1074.13 432.649 1035.95 437.571 1030.7 432.382C1028.86 423.056 1028.84 346.477 1030.51 336.699C1033.78 333.918 1051.22 334.879 1056.99 334.87ZM1038.76 425.313C1056.88 425.396 1076.27 427.29 1090.32 413.778C1104.81 398.04 1106.64 371.435 1090.68 355.672C1077.86 343.017 1055.66 343.829 1038.73 344.417L1038.76 425.313Z"/><path fill="#152238" d="M608.791 333.57C611.02 333.583 613.234 333.328 614.865 334.82C616.079 337.058 616.031 343.691 616.024 346.432C615.952 374.73 617.07 403.208 615.636 431.456C615.636 431.456 614.239 432.94 614.103 433.084C611.752 433.958 611.445 433.914 608.996 433.32C606.818 431.253 607.168 429.925 606.214 426.564C597.6 425.519 586.744 446.995 557.103 427.324C550.405 421.609 546.065 414.38 544.462 405.67C542.682 396.169 544.774 386.35 550.271 378.399C559.491 365.265 576.696 361.025 591.58 366.055C597.376 368.014 601.812 371.486 606.775 374.973C607.167 366.001 605.04 338.866 608.791 333.57ZM584.65 426.153C599.295 423.57 609.082 409.614 606.519 394.965C603.957 380.317 590.015 370.511 575.362 373.053C560.681 375.6 550.852 389.576 553.419 404.253C555.986 418.931 569.976 428.741 584.65 426.153Z"/><path fill="#152238" d="M524.262 332.817C525.678 333.346 527.555 334.128 528.301 335.48C529.928 338.428 530.22 424.104 528.599 430.222C528.045 432.315 527.4 433.595 525.542 434.699C520.214 433.67 519.803 427.737 519.46 423.519C504.195 437.634 487.346 439.383 470.206 426.946C464.268 421.684 460.244 414.599 458.765 406.804C456.976 397.378 458.811 386.622 464.258 378.643C469.554 370.946 477.753 365.735 486.97 364.205C501.035 361.827 509.475 367.055 520.159 374.655C520.705 363.193 518.893 350.129 520.219 338.572C520.628 335.012 521.769 334.604 524.262 332.817ZM496.12 426.116C510.772 424.645 521.498 411.636 520.15 396.972C518.802 382.309 505.883 371.474 491.209 372.699C476.359 373.939 465.367 387.046 466.731 401.884C468.096 416.723 481.294 427.605 496.12 426.116Z"/><path fill="#152238" d="M1153.87 363.94C1168.29 362.683 1174.78 367.479 1185.47 375.586C1185.78 371.233 1186.5 365.181 1192.36 365.456C1192.76 365.812 1193.13 366.171 1193.46 366.597C1196.58 370.693 1196.11 418.161 1195.22 425.746C1194.88 428.638 1194.29 432.402 1191.88 434.312C1188.81 434.265 1189.99 434.602 1187.39 433.102C1185.8 430.919 1185.71 427.412 1185.38 424.633L1178.6 429.804C1174.1 432.504 1169.95 434.202 1164.75 435.107C1155.27 436.822 1145.49 434.593 1137.68 428.936C1112.25 410.416 1120.31 369.014 1153.87 363.94ZM1163.65 426.33C1178.35 423.576 1188.05 409.448 1185.33 394.746C1182.61 380.043 1168.51 370.313 1153.8 372.992C1139.04 375.681 1129.26 389.846 1131.99 404.601C1134.72 419.357 1148.91 429.094 1163.65 426.33Z"/><path fill="#152238" d="M661.51 363.92C676.53 362.537 683.709 366.696 694.048 376.89C694.256 372.835 693.95 367.957 697.936 365.717C700.682 366.03 699.895 365.95 702.32 367.764C704.305 372.593 703.538 421.837 702.699 430.606C702.541 432.259 701.555 433.877 699.883 434.9C694.378 433.926 694.038 428.263 693.712 423.913L687.991 429.053C683.737 431.728 679.862 433.675 674.917 434.797C665.566 436.89 655.767 435.178 647.68 430.039C639.591 424.86 633.943 416.628 632.022 407.218C627.567 385.739 640.306 368.089 661.51 363.92ZM671.646 426.177C686.302 423.617 696.123 409.682 693.607 395.019C691.091 380.356 677.186 370.493 662.516 372.965C647.782 375.447 637.868 389.425 640.394 404.15C642.921 418.876 656.928 428.748 671.646 426.177Z"/><path fill="#152238" d="M930.931 363.935C945.455 362.836 952.078 366.885 962.985 375.386C963.237 372.538 963.2 369.33 964.862 367.087C967.032 365.98 971.692 365.707 971.708 367.951C971.809 382.213 974.954 420.14 971.294 432.465C969.595 433.988 969.084 434.622 966.792 435.153C963.533 433.654 965.454 429.662 962.17 426.122C959.692 426.213 959.479 427.1 957.077 429.022C952.461 432.074 948.993 433.61 943.547 434.718C934.356 436.679 924.764 434.842 916.947 429.626C908.687 424.098 902.991 415.488 901.132 405.724C897.336 384.977 910.418 367.362 930.931 363.935ZM940.441 426.404C955.19 424.172 965.343 410.413 963.128 395.662C960.912 380.91 947.166 370.741 932.412 372.939C917.633 375.141 907.443 388.915 909.662 403.691C911.881 418.468 925.668 428.641 940.441 426.404Z"/><path fill="#17B8BE" d="M219.831 337.625C221.527 337.494 223.232 337.52 224.924 337.702C239.342 339.301 236.562 350.354 235.342 360.686C244.749 371.05 263.78 388.191 271.563 397.814C279.605 397.204 287.738 396.081 292.788 404.389C294.671 407.505 295.246 411.239 294.388 414.777C291.793 425.474 281.882 426.662 272.798 424.394L236.369 460.74C242.801 470.43 238.998 482.984 227.541 485.768C223.56 486.758 219.347 486.055 215.903 483.827C206.554 477.849 206.141 468.166 211.884 459.436C203.571 451.856 196.32 442.913 188.184 435.176C187.095 434.14 183.192 435.375 181.353 435.761C159.159 437.746 155.398 413.5 170.662 406.782C175.019 404.895 179.953 404.84 184.351 406.63C195.368 411.055 194.681 421.029 190.532 430.209C199.221 437.698 208.206 447.596 216.966 455.724C222.492 453.673 227.1 454.738 232.375 456.483C241.42 446.882 258.261 431.531 266.755 421.164C268.229 419.365 262.805 413.106 267.631 402.518C258.504 391.878 240.974 376.084 231.366 364.997C229.872 363.274 225.111 368.604 217.618 365.885C213.954 364.593 210.992 361.834 209.445 358.27C207.874 354.575 207.85 350.405 209.378 346.692C211.542 341.357 214.848 339.667 219.831 337.625ZM227.511 479.534C232.584 477.593 235.135 471.917 233.218 466.835C231.3 461.753 225.635 459.177 220.544 461.072C215.421 462.979 212.825 468.687 214.755 473.802C216.685 478.916 222.405 481.487 227.511 479.534ZM181.109 429.962C186.251 428.094 188.886 422.395 186.979 417.268C185.072 412.141 179.352 409.55 174.24 411.497C169.184 413.423 166.627 419.066 168.514 424.137C170.4 429.209 176.024 431.809 181.109 429.962Z"/><path fill="#17B8BE" d="M218.977 282.99C234.237 280.68 242.686 289.952 238.858 304.83C245.669 311.162 256.168 321.373 264.288 326.199C263.937 325.99 276.283 325.5 277.934 325.544C286.859 330.47 291.766 337.549 287.442 347.998C285.959 351.586 283.069 354.408 279.447 355.804C275.455 357.352 271.012 357.251 267.095 355.521C263.237 353.857 260.209 350.711 258.694 346.792C256.561 341.13 257.939 336.335 260.317 331.12C251.705 324.226 244.235 317.194 235.87 310.356C232.245 312.215 228.839 313.381 225.036 314.769C221.719 314.069 218.705 313.075 215.48 312.064C205.387 321.401 195.43 331.429 185.5 341.017C191.534 349.722 191.89 353.497 186.736 362.952L198.192 375.183C205.425 381.997 213.198 390.406 220.171 397.644C224.248 397.52 230.771 397.337 234.079 399.697C244.584 407.191 243.121 422.961 229.797 425.816C225.675 426.67 221.383 425.864 217.852 423.572C209.526 418.128 211.214 409.03 216.154 401.863C204.461 390.121 192.94 378.208 181.594 366.13L181.504 366.043C171.031 367.841 161.106 365.183 161.193 352.532C161.21 348.543 162.829 344.727 165.686 341.943C170.194 337.531 174.705 338.073 180.541 338.187C191.157 327.947 200.452 318.042 211.529 307.823C211.383 307.572 211.239 307.32 211.097 307.066C205.04 296.27 208.302 288.405 218.977 282.99ZM226.131 307.942C231.294 306.851 234.693 301.9 233.855 296.689C233.016 291.479 228.237 287.843 222.992 288.426C219.364 288.829 216.252 291.197 214.897 294.587C213.541 297.976 214.162 301.837 216.512 304.631C218.862 307.424 222.559 308.697 226.131 307.942ZM275.297 351.641C286.864 344.441 285.387 332.45 271.616 330.64C258.495 336.809 261.704 349.183 275.297 351.641Z"/><path fill="#152238" d="M377.112 334.798C384.908 333.993 392.659 336.336 399.482 340.061C405.785 343.502 419.032 356.145 414.204 363.971C409.828 366.964 407.381 364.472 405.062 360.623C396.551 347.309 393.998 346.153 379.272 344.647C362.531 342.936 344.834 361.774 361.103 372.929C374.588 382.175 417.359 377.347 416.394 404.489C415.525 428.945 398 435.112 377.33 435.027C363.321 434.747 351.492 426.991 345.063 414.674C343.27 411.239 342.102 408.78 342.799 404.895C344.538 402.377 343.586 403.192 346.546 401.919C351.585 402.398 355.208 415.363 361.407 420.035C370.529 428.281 395.772 428.432 402.646 416.889C425.286 378.875 347.541 396.182 345.083 365.761C343.446 345.492 359.882 336.479 377.112 334.798Z"/><path fill="#152238" d="M828.186 333.48C829.924 333.545 833.517 333.719 834.03 335.496C836.895 345.425 835.486 362.033 835.552 372.309C865.848 349.388 891.378 375.553 886.186 406.922C885.159 413.13 889.718 432.432 881.737 434.32C879.533 433.532 877.011 430.978 876.93 428.666C876.484 415.814 877.376 402.681 876.656 389.819C874.332 378.277 867.758 372.223 855.429 372.62C822.697 373.673 840.869 424.658 833.176 433.453C830.802 434.46 831.856 434.341 829.125 433.696C825.424 430.738 825.747 424.362 826.324 420.062C828.192 406.131 823.231 342.067 828.186 333.48Z"/><path fill="#152238" d="M1316.17 364.011C1337.78 363.165 1354.33 385.593 1341.32 387.74C1339.45 386.833 1334.94 381.445 1333.79 379.563C1327.12 368.65 1299.87 371.573 1299.42 385.034C1302.07 394.205 1322.34 394.75 1330.64 397.224C1345.51 401.659 1352.83 411.914 1342.58 425.799C1337.64 432.495 1329.29 433.813 1321.44 434.836C1315.83 434.884 1311.56 433.803 1306.78 433.372C1297.99 432.58 1284.27 415.402 1293.75 411.225C1299.41 412.183 1301.18 418.744 1305.17 422.614C1309.63 429.187 1332.24 426.596 1336.08 420.24C1350.29 396.718 1291.8 409.757 1291.49 387.055C1291.24 368.962 1304.74 365.428 1316.17 364.011Z"/><path fill="#152238" d="M781.876 335.656C785.625 336.013 784.935 335.396 787.462 337.479C790.282 342.976 788.953 358.034 788.788 365.226C795.757 366.241 806.724 363.289 811.25 368.473C811.44 371.093 811.667 370.066 810.4 372.358C805.883 375.743 794.889 374.696 788.832 374.707C789.086 386.236 788.118 400.225 788.883 411.508C790.262 431.85 805.781 422.659 811.89 427.963L812.364 428.382C811.241 434.454 807.812 434.971 802.733 434.907C778.929 434.593 779.086 415.926 779.76 397.71C780.018 390.718 779.886 382.16 779.953 375.014C775.929 374.925 763.68 374.869 765.802 367.97C769.863 363.893 773.911 364.605 779.799 364.352C780.173 356.272 778.044 341.642 781.876 335.656Z"/><path fill="#152238" d="M1239.77 364.664C1243.9 364.346 1251.14 364.031 1252.85 368.805C1250.92 377.522 1227.81 369.172 1223.61 387.558C1221.03 398.849 1225.65 427.538 1220.26 434.248C1217.57 434.104 1216.39 434.291 1214.39 432.522C1212.33 429.073 1212.6 374.057 1214.13 367.621C1216.38 365.748 1215.57 365.928 1218.24 365.453C1220.59 366.138 1221.79 368.843 1223.76 370.984C1230.14 368.857 1232.86 366.039 1239.77 364.664Z"/><path fill="#152238" d="M752.031 364.785C754.759 365.018 755.996 364.961 758.358 366.357C759.797 368.321 759.581 367.44 759.327 369.639C756.051 373.983 749.11 373.299 745.026 374.347C721.244 380.449 736.4 416.163 729.804 432.122C729.116 433.787 726.016 434.189 724.144 434.491C721.257 429.722 721.179 373.181 723.126 367.439C725.697 365.746 724.602 366.015 727.346 366.002C729.509 367.079 730.421 369.407 731.628 371.594C741.003 367.033 741.867 365.714 752.031 364.785Z"/><path fill="#152238" d="M1266.54 363.334C1268.93 363.629 1269.24 363.748 1271.39 364.852C1272.61 366.188 1273.11 368.403 1272.97 370.096C1272.06 381.041 1275.79 426.664 1271.04 434.076C1261.82 434.575 1263.57 428.221 1263.59 420.918C1263.63 403.437 1263.37 385.86 1264.14 368.407C1264.22 366.638 1265.54 364.727 1266.54 363.334Z"/><path fill="#152238" d="M1366.34 363.337C1368.64 363.618 1368.92 363.687 1370.88 364.909C1372.27 366.796 1372.45 368.839 1372.44 371.134C1372.39 390.885 1372.98 410.777 1372.05 430.494C1371.99 431.665 1370.5 433.685 1369.79 434.611C1367.84 434.422 1367.22 434.195 1365.33 433.615C1363.72 431.771 1363.53 431.303 1363.5 428.719C1363.41 413.362 1363.26 397.952 1363.41 382.597C1363.47 376.47 1362.16 367.823 1366.34 363.337Z"/><path fill="#152238" d="M435.488 364.038C437.944 364.132 438.401 364.109 440.665 365.258C442.026 366.861 442.23 368.914 442.244 370.97C442.379 390.479 442.591 410.08 442.085 429.576C442.044 431.156 440.949 432.793 440.043 434.011C437.925 434.22 437.473 434.06 435.389 433.558C433.52 431.578 433.08 429.449 433.337 426.756C434.359 416.081 430.855 370.799 435.488 364.038Z"/><path fill="#152238" d="M435.269 336.896C438.958 335.655 442.959 337.619 444.235 341.297C445.51 344.974 443.585 348.993 439.92 350.304C436.204 351.633 432.119 349.676 430.825 345.948C429.532 342.22 431.528 338.153 435.269 336.896Z"/><path fill="#152238" d="M1267.69 336.902C1271.37 336.397 1274.79 338.881 1275.45 342.535C1276.11 346.188 1273.77 349.712 1270.15 350.525C1267.67 351.082 1265.08 350.233 1263.41 348.313C1261.74 346.394 1261.25 343.713 1262.15 341.33C1263.04 338.948 1265.17 337.248 1267.69 336.902Z"/><path fill="#152238" d="M1366.62 336.919C1370.31 336.205 1373.87 338.627 1374.56 342.316C1375.25 346.005 1372.81 349.552 1369.12 350.223C1365.46 350.889 1361.94 348.471 1361.26 344.812C1360.57 341.153 1362.97 337.627 1366.62 336.919Z"/></svg>