<?xml version="1.0" encoding="utf-8" ?><svg xmlns="http://www.w3.org/2000/svg" xmlns:xlink="http://www.w3.org/1999/xlink" width="1536" height="768" viewBox="0 0 1536 768"><path fill="#0B1926" d="M0 0L33.7876 0L35.0998 0L151.494 0L152.748 0L471.03 0L473.249 0L523.467 0L525.7 0L654.013 0L657.009 0L878.954 0L881.155 0L971.224 0L972.813 0L1215.24 0L1216.23 0L1536 0L1536 239.708L1536 241.509L1536 322.643L1536 324.726L1536 402.021L1536 404.155L1536 587.789L1536 589.59L1536 619.523L1536 621.149L1536 724.406L1536 726.21L1536 768L1500.22 768L1498.43 768L1381.3 768L1379.23 768L1061.97 768L1059.81 768L982.334 768L980.162 768L742.064 768L739.557 768L676.521 768L674.397 768L440.328 768L438.664 768L360.838 768L359.091 768L0 768L0 605.989L0 604.016L0 384.036L0 381.933L0 202.238L0 200.182L0 146.331L0 144.716L0 43.5777L0 41.4936L0 0Z"/><path fill="#F4F5F5" d="M1458.86 317.069C1461.67 317.553 1463.89 319.721 1464.45 322.521C1464.59 323.261 1464.62 324.021 1464.52 324.769C1464.11 327.827 1461.72 330.241 1458.66 330.677C1457.92 330.782 1457.17 330.767 1456.44 330.632C1453.49 330.088 1451.23 327.699 1450.86 324.724C1450.77 324.014 1450.79 323.294 1450.92 322.591C1451.44 319.792 1453.64 317.603 1456.44 317.084C1457.24 316.936 1458.06 316.931 1458.86 317.069Z"/><path fill="#0B1926" d="M1277.7 440.777C1278.29 436.314 1278.33 425.269 1278.11 420.661C1276.02 376.492 1306.29 339.084 1348.59 328.291C1366.46 323.733 1381.6 324.643 1399.75 324.655L1450.86 324.724C1451.23 327.699 1453.49 330.088 1456.44 330.632C1457.17 330.767 1457.92 330.782 1458.66 330.677C1461.72 330.241 1464.11 327.827 1464.52 324.769L1536 324.726L1536 402.021L1536 404.155L1536 587.789L1536 589.59L1536 619.523L1536 621.149L1536 724.406L1536 726.21L1536 768L1500.22 768L1498.43 768L1381.3 768L1379.23 768L1061.97 768C1061.92 758.485 1061.74 748.407 1061.94 738.93C1062.52 708.182 1082.57 681.199 1111.85 671.791C1118.71 669.55 1127.03 668.32 1134.27 667.425C1163.59 663.801 1190.32 641.08 1197.81 612.368C1201.13 599.659 1200.05 580.656 1200.06 567.023C1199.98 546.59 1200.04 526.156 1200.23 505.724C1203.69 504.201 1203.88 503.855 1205.2 500.254C1242.77 496.707 1271.97 481.271 1277.7 440.777Z"/><path fill="#0B1926" d="M1536 621.149L1536 724.406L1536 726.21L1536 768L1500.22 768L1498.43 768L1381.3 768C1381.32 759.418 1380.44 700.452 1382.68 695.633C1391.84 685.814 1451.73 698.527 1460.27 687.389C1465.86 680.1 1458.35 631.797 1464.69 624.656C1469.81 618.891 1527.38 621.731 1536 621.149Z"/><path fill="#0B1926" d="M1500.22 768C1500.2 759.081 1500.1 749.224 1499.8 740.33C1499.32 726.092 1506.23 725.789 1518.54 725.901C1524.17 725.952 1530.31 726.09 1536 726.21L1536 768L1500.22 768Z"/><path fill="#152238" d="M1498.43 768C1498.74 722.47 1489.52 724.545 1536 724.406L1536 726.21C1530.31 726.09 1524.17 725.952 1518.54 725.901C1506.23 725.789 1499.32 726.092 1499.8 740.33C1500.1 749.224 1500.2 759.081 1500.22 768L1498.43 768Z"/><path fill="#0B1926" d="M1464.52 324.769L1536 324.726L1536 402.021C1512.63 402.18 1494.48 402.064 1476.36 384.215C1459.46 367.564 1458.77 352.449 1458.66 330.677C1461.72 330.241 1464.11 327.827 1464.52 324.769Z"/><path fill="#F4F5F5" d="M1387.46 589.541C1386.76 595.269 1385.9 599.01 1382.82 604.01C1377.97 611.748 1370.2 617.188 1361.27 619.087C1342.71 623.122 1322.25 613.142 1318.54 593.506C1317.06 586.053 1318.74 578.322 1323.17 572.154C1328.88 564.271 1337.54 559.046 1347.18 557.678C1367.73 554.597 1384.45 566.86 1387.39 587.428C1435.05 587.434 1488.69 586.237 1536 587.789L1536 589.59L1387.46 589.541Z"/><path fill="#0B1926" d="M1346.26 559.61C1354.54 558.944 1360.58 558.857 1368.28 562.865C1382.64 570.333 1390.14 587.182 1381.68 601.939C1376.66 610.706 1369.22 614.988 1359.72 617.57C1342.81 619.189 1325.65 613.138 1321.15 594.995C1319.41 587.969 1320.58 580.538 1324.4 574.387C1329.59 565.946 1336.99 561.885 1346.26 559.61Z"/><path fill="#152238" d="M1379.23 768L1379.2 724.823C1379.17 717.165 1376.92 694.834 1384.54 691.678C1399.23 685.59 1446.91 695.368 1458.34 686.267C1464.78 681.141 1455.22 631.191 1463.5 623.052C1468.3 617.961 1488.78 619.436 1495.51 619.474C1509.01 619.567 1522.5 619.584 1536 619.523L1536 621.149C1527.38 621.731 1469.81 618.891 1464.69 624.656C1458.35 631.797 1465.86 680.1 1460.27 687.389C1451.73 698.527 1391.84 685.814 1382.68 695.633C1380.44 700.452 1381.32 759.418 1381.3 768L1379.23 768Z"/><path fill="#17B8BE" d="M1456.44 330.632C1457.17 330.767 1457.92 330.782 1458.66 330.677C1458.77 352.449 1459.46 367.564 1476.36 384.215C1494.48 402.064 1512.63 402.18 1536 402.021L1536 404.155C1531.12 404.26 1526.25 404.281 1521.37 404.217C1502.59 403.88 1486.23 398.139 1473.17 384.301C1456.63 366.785 1456.07 352.941 1456.44 330.632Z"/><path fill="#152238" d="M1419.2 641.462C1435.3 642.863 1437.91 660.113 1420.45 664.587C1404.06 664.076 1401.09 646.521 1419.2 641.462Z"/><path fill="#0B1926" d="M1418 643.503C1431.95 643.62 1434.31 656.338 1422.78 662.295C1406.71 662.785 1403.81 650.888 1418 643.503Z"/><path fill="#0B1926" d="M0 0L33.7876 0L35.0998 0L151.494 0L152.748 0L471.03 0C471.108 12.9878 471.251 26.3105 471.1 39.0267C470.845 76.8232 441.955 100.213 406.13 102.666C377.487 104.626 346.232 130.875 340.932 159.06C336.563 182.295 340.715 211.266 338.941 235.226C334.798 237.384 335.865 238.146 333.22 240.98C299.583 243.495 270.68 263.043 266.494 298.29C264.618 322.726 256.881 342.245 237.944 358.564C226.613 368.255 213.199 375.202 198.746 378.863C181.031 383.214 156.779 381.979 138.118 381.933L70.767 381.745C69.4049 377.515 67.4675 373.937 63.3036 372.137C51.5529 367.056 46.0181 372.769 41.6236 381.955C28.7226 381.381 13.0966 381.862 0 381.933L0 202.238L0 200.182L0 146.331L0 144.716L0 43.5777L0 41.4936L0 0Z"/><path fill="#0B1926" d="M0 0L33.7876 0L35.0998 0L151.494 0L151.498 43.4497C151.526 51.1551 152.344 59.6221 151.195 67.2248C150.899 69.189 150.422 70.7714 148.993 72.2381C139.987 81.4857 84.4969 70.1495 74.8928 77.9258C71.2578 80.8689 71.0229 86.2166 70.9621 90.5222C70.8372 99.3678 73.9156 136.402 68.4856 142.264C67.0289 143.836 65.0712 144.266 63.043 144.57C55.8841 145.64 47.85 144.962 40.5994 144.929L0 144.716L0 43.5777L0 41.4936L0 0Z"/><path fill="#0B1926" d="M0 0L33.7876 0C33.7524 6.68989 33.4262 15.1566 33.7874 21.6941C34.8925 41.6937 30.0374 42.1793 11.8892 41.7835L0 41.4936L0 0Z"/><path fill="#152238" d="M33.7876 0L35.0998 0C35.2061 6.70459 35.0203 15.6208 35.4307 22.1296C36.8048 43.9231 29.8847 43.7849 10.7062 43.6716L0 43.5777L0 41.4936L11.8892 41.7835C30.0374 42.1793 34.8925 41.6937 33.7874 21.6941C33.4262 15.1566 33.7524 6.68989 33.7876 0Z"/><path fill="#17B8BE" d="M143.943 200.16C147.162 178.164 163.195 166.433 185.246 169.717C193.876 170.921 201.643 175.59 206.754 182.647C217.501 197.25 214.628 215.642 199.674 226.009C191.65 231.585 181.72 233.697 172.122 231.869C156.54 228.916 145.926 218.032 144.152 202.252L0 202.238L0 200.182L143.943 200.16Z"/><path fill="#0B1926" d="M174.725 171.215C182.746 170.834 189.794 171.748 196.763 176.137C203.551 180.432 208.358 187.244 210.129 195.08C211.764 202.582 210.265 210.426 205.979 216.797C200.199 225.414 192.148 228.787 182.463 230.707C166.431 231.206 149.657 222.763 146.768 205.763C145.56 198.239 147.367 190.541 151.797 184.341C157.492 176.389 165.367 172.731 174.725 171.215Z"/><path fill="#152238" d="M151.494 0L152.748 0C153.013 14.4187 153.136 28.8396 153.117 43.2607C153.136 50.8639 153.737 58.9913 152.784 66.5332C152.468 69.0305 151.955 71.7223 150.146 73.603C140.925 83.1906 86.8135 72.1085 76.9113 79.0446C73.3691 81.5259 72.6306 86.2462 72.5266 90.2729C72.1904 103.297 74.7124 125.905 72.684 137.418C72.2534 139.863 71.3315 142.353 69.4502 144.059C67.6256 145.712 65.1503 146.252 62.7776 146.559C54.7173 147.602 45.9402 146.901 37.786 146.849C25.2311 146.769 12.5315 147.023 0 146.331L0 144.716L40.5994 144.929C47.85 144.962 55.8841 145.64 63.043 144.57C65.0712 144.266 67.0289 143.836 68.4856 142.264C73.9156 136.402 70.8372 99.3678 70.9621 90.5222C71.0229 86.2166 71.2578 80.8689 74.8928 77.9258C84.4969 70.1495 139.987 81.4857 148.993 72.2381C150.422 70.7714 150.899 69.189 151.195 67.2248C152.344 59.6221 151.526 51.1551 151.498 43.4497L151.494 0Z"/><path fill="#152238" d="M111.244 101.873C117.629 100.792 123.715 104.983 124.985 111.332C126.254 117.682 122.246 123.89 115.937 125.347C111.686 126.328 107.238 124.92 104.326 121.671C101.414 118.423 100.499 113.848 101.939 109.729C103.378 105.611 106.943 102.601 111.244 101.873Z"/><path fill="#0B1926" d="M110.171 104.276C113.561 103.172 117.284 103.984 119.906 106.401C122.528 108.817 123.64 112.462 122.815 115.931C121.99 119.4 119.355 122.153 115.926 123.13C110.759 124.602 105.365 121.666 103.796 116.527C102.228 111.389 105.062 105.941 110.171 104.276Z"/><path fill="#0B1926" d="M525.7 0L654.013 0C664.588 11.0427 674.54 23.5528 675.163 39.473C676.751 80.0856 675.421 121.154 675.695 161.84C675.697 162.192 675.578 162.716 675.508 163.059C672.5 165.013 671.9 165.503 670.364 168.888C669.653 168.927 668.942 168.951 668.23 168.96C625.031 169.257 584.205 174.323 552.298 141.131C524.631 112.349 525.624 87.3524 525.638 51.0019L525.7 0Z"/><path fill="#0B1926" d="M972.813 0L1215.24 0C1214.7 29.2157 1214.5 50.053 1184.51 64.7211C1174.59 69.5725 1167.39 69.6103 1156.62 69.7224L1063.21 69.8601C1036.55 69.7568 1007.92 73.8311 987.425 53.3212C971.475 37.3643 972.983 21.0177 972.813 0Z"/><path fill="#0B1926" d="M440.328 768C442.596 743.626 457.352 725.557 482.237 720.927C493.542 718.824 505.141 719.374 516.63 719.325L560.254 719.193L601.618 719.221C608.87 719.224 619.607 718.923 626.585 719.604C641.234 721.16 654.691 728.387 664.078 739.74C670.938 748.161 673.706 757.327 674.397 768L440.328 768Z"/><path fill="#0B1926" d="M1458.86 317.069C1458.76 311.132 1458.71 305.195 1458.71 299.257C1458.94 273.425 1473.43 254.237 1497.5 245.116C1509.95 240.395 1522.9 241.381 1536 241.509L1536 322.643L1536 324.726L1464.52 324.769C1464.62 324.021 1464.59 323.261 1464.45 322.521C1463.89 319.721 1461.67 317.553 1458.86 317.069Z"/><path fill="#17B8BE" d="M1464.45 322.521C1488.3 322.75 1512.15 322.79 1536 322.643L1536 324.726L1464.52 324.769C1464.62 324.021 1464.59 323.261 1464.45 322.521Z"/><path fill="#17B8BE" d="M825.248 590.106C824.227 600.043 821.485 608.068 813.283 614.538C798.95 625.843 773.759 624.196 762.672 608.926C752.336 594.69 754.701 576.254 769.105 565.826C777.262 560.041 787.387 557.743 797.242 559.441C813.295 562.096 822.121 572.674 825.697 587.952L872.939 587.975C906.027 587.971 934.35 586.916 960.248 612.759C987.906 640.358 980.912 666.33 982.692 699.3C981.402 698.907 981.456 698.888 980.165 699.277C980.394 666.391 984.075 639.957 958.712 614.164C941.671 596.833 919.203 590.231 895.476 590.095L825.248 590.106Z"/><path fill="#0B1926" d="M785.212 561.239C793.298 560.582 800.129 561.053 807.421 565.054C814.485 568.845 819.736 575.309 821.998 583C824.08 590.335 823.069 598.202 819.201 604.773C814.156 613.443 806.966 616.874 797.791 619.314C788.674 620.394 781.029 620.161 772.78 615.157C766.116 611.167 761.311 604.691 759.423 597.157C757.605 589.687 758.812 581.802 762.781 575.218C768.125 566.551 775.897 563.443 785.212 561.239Z"/><path fill="#F4F5F5" d="M879.009 81.1397L880.684 81.7373C880.482 116.922 877.458 144.808 913.105 164.116C929.432 172.959 941.339 172.506 959.257 172.894C960.301 167.315 961.408 163.144 964.489 158.298C969.442 150.399 977.405 144.863 986.534 142.971C996.193 140.981 1006.25 142.923 1014.47 148.366C1021.68 153.082 1026.7 160.493 1028.4 168.94C1029.86 176.507 1028.14 184.338 1023.64 190.598C1006.34 215.169 964.935 209.239 959.724 174.78L956.541 174.769C931.939 174.641 913.801 171.552 895.251 153.327C874.867 133.3 878.696 107.792 879.009 81.1397Z"/><path fill="#0B1926" d="M992.336 144.264C1007.3 143.414 1022.45 152.775 1025.82 167.892C1027.41 175.101 1026.09 182.649 1022.14 188.887C1016.29 198.079 1008.44 201.141 998.479 203.284C981.615 203.469 964.745 196.147 962.314 177.537C961.374 170.086 963.427 162.567 968.024 156.629C974.464 148.336 982.408 145.46 992.336 144.264Z"/><path fill="#F4F5F5" d="M409.735 240.732C412.006 230.84 416.053 224.106 425.045 218.567C433.339 213.485 443.309 211.897 452.772 214.15C470.078 218.286 483.242 234.86 477.93 253.016C472.466 271.692 450.646 280.017 432.809 274.302C424.068 271.588 416.799 265.45 412.657 257.288C409.991 251.924 409.467 248.267 409.335 242.403C389.241 242.52 368.16 242.968 348.146 242.674C348.282 242.093 348.38 241.679 348.478 241.086C362.338 239.761 394.421 240.843 409.735 240.732Z"/><path fill="#0B1926" d="M438.559 215.461C455.007 214.203 471.524 221.002 475.991 238.246C477.783 245.262 476.708 252.702 473.005 258.924C468.126 267.134 460.425 271.33 451.49 273.628C434.647 276.153 417.548 268.698 412.8 251.323C410.927 244.365 411.96 236.945 415.663 230.764C420.906 221.84 428.99 217.901 438.559 215.461Z"/><path fill="#F4F5F5" d="M615.664 591.177C614.848 596.682 614.074 600.346 611.182 605.246C606.578 613.014 598.999 618.562 590.202 620.603C580.321 623.023 569.883 621.449 561.154 616.222C535.171 600.313 544.248 565.056 574.348 559.066C583.559 557.205 593.133 559.076 600.966 564.27C610.432 570.67 613.888 578.79 615.878 589.402C624.635 589.495 659.309 588.66 665.413 590.061L665.46 590.728C659.201 591.806 623.751 591.2 615.664 591.177Z"/><path fill="#0B1926" d="M579.017 560.506C586.541 560.214 594.136 562.08 600.34 566.443C606.822 570.944 611.248 577.836 612.645 585.602C613.895 593.092 612.056 600.769 607.548 606.88C601.571 615.102 594.12 618.138 584.545 619.677C567.37 619.705 550.842 612.523 548.53 593.487C547.645 586.19 549.687 578.839 554.209 573.044C560.666 564.8 569.04 561.671 579.017 560.506Z"/><path fill="#F4F5F5" d="M1133.13 500.089C1131.63 506.363 1130.36 510.384 1126.28 515.536C1100.36 548.319 1043.07 511.534 1071.63 477.332C1077.35 470.369 1085.65 466.025 1094.63 465.294C1116.11 463.419 1131.79 476.472 1133.24 497.964C1152.23 498.418 1171.77 497.383 1190.65 498.131L1190.89 499.616C1171.64 499.973 1152.38 500.131 1133.13 500.089Z"/><path fill="#0B1926" d="M1092.54 467.436C1108.83 466.137 1125.04 472.49 1129.76 489.521C1131.75 496.704 1130.73 504.392 1126.92 510.8C1121.85 519.285 1114.32 523.265 1105.12 525.61C1088.47 527.031 1072.24 520.95 1067.5 503.387C1065.62 496.399 1066.6 488.949 1070.22 482.684C1075.34 473.795 1083.12 469.985 1092.54 467.436Z"/><path fill="#F4F5F5" d="M737.873 169.395C746.704 124.274 812.855 134.785 806.129 177.724C804.835 185.984 799.478 192.763 792.489 197.209C783.848 202.71 773.349 204.482 763.381 202.123C747.616 198.372 739.292 186.75 737.938 171.129C723.243 171.168 698.377 171.996 684.478 171.068L684.73 169.402L737.873 169.395Z"/><path fill="#0B1926" d="M765.594 142.648C781.514 140.897 797.815 146.651 803.266 163.05C805.587 170.106 804.986 177.798 801.597 184.407C796.91 193.499 789.188 197.544 779.941 200.42C763.777 202.917 746.966 196.742 741.699 180.074C739.391 172.805 740.15 164.91 743.799 158.213C748.671 149.277 756.345 145.356 765.594 142.648Z"/><path fill="#17B8BE" d="M1128.5 300.714C1142.57 300.838 1156.64 300.864 1170.72 300.79C1189.76 300.729 1205.13 299.623 1223.47 306.13C1258.26 318.471 1276.6 340.857 1285.02 375.977C1322.75 308.067 1386.77 324.692 1450.92 322.591C1450.79 323.294 1450.77 324.014 1450.86 324.724L1399.75 324.655C1381.6 324.643 1366.46 323.733 1348.59 328.291C1306.29 339.084 1276.02 376.492 1278.11 420.661C1278.33 425.269 1278.29 436.314 1277.7 440.777L1277.15 438.739L1275.99 438.291C1274.3 417.35 1276.27 398.693 1283.35 378.975C1276.42 337.063 1244.64 308.682 1202.67 303.415C1192.62 302.153 1181.43 302.685 1171.24 302.728L1128.26 303.078C1128.8 301.879 1128.84 302.007 1128.5 300.714Z"/><path fill="#17B8BE" d="M1197.56 506.01C1198.6 505.805 1199.19 505.788 1200.23 505.724C1200.04 526.156 1199.98 546.59 1200.06 567.023C1200.05 580.656 1201.13 599.659 1197.81 612.368C1190.32 641.08 1163.59 663.801 1134.27 667.425C1127.03 668.32 1118.71 669.55 1111.85 671.791C1082.57 681.199 1062.52 708.182 1061.94 738.93C1061.74 748.407 1061.92 758.485 1061.97 768L1059.81 768C1059.77 756.738 1059.14 737.484 1060.87 727.145C1065.44 699.752 1086.8 677.027 1113.33 669.351C1121.24 667.06 1129.81 666.35 1137.98 664.851C1154.67 661.733 1169.79 652.989 1180.81 640.074C1188.21 631.269 1193.46 620.874 1196.17 609.702C1198.58 599.376 1197.84 571.466 1197.77 559.222C1197.68 544.739 1198.74 520.026 1197.56 506.01Z"/><path fill="#17B8BE" d="M471.03 0L473.249 0C473.373 31.2676 478.324 60.1883 455.156 83.5761C444.352 94.4188 430.286 101.414 415.12 103.486C407.176 104.496 401.785 104.522 394.032 106.805C364.737 115.435 340.502 144.117 341.205 175.067C341.363 182.036 340.764 232.442 341.617 234.948C340.793 235.066 339.745 235.261 338.941 235.226C340.715 211.266 336.563 182.295 340.932 159.06C346.232 130.875 377.487 104.626 406.13 102.666C441.955 100.213 470.845 76.8232 471.1 39.0267C471.251 26.3105 471.108 12.9878 471.03 0Z"/><path fill="#152238" d="M971.224 0L972.813 0C972.983 21.0177 971.475 37.3643 987.425 53.3212C1007.92 73.8311 1036.55 69.7568 1063.21 69.8601L1156.62 69.7224C1167.39 69.6103 1174.59 69.5725 1184.51 64.7211C1214.5 50.053 1214.7 29.2157 1215.24 0L1216.23 0C1216.44 6.08278 1216.57 12.168 1216.61 18.2542C1216.62 31.7256 1212.96 43.6341 1203.32 53.5475C1182.37 75.1056 1161.62 71.23 1134.21 71.4376L1027.86 71.4061C1007.29 71.2444 988.357 62.2181 977.698 44.2C969.254 29.927 970.997 15.9749 971.224 0Z"/><path fill="#17B8BE" d="M523.467 0L525.7 0L525.638 51.0019C525.624 87.3524 524.631 112.349 552.298 141.131C584.205 174.323 625.031 169.257 668.23 168.96C668.942 168.951 669.653 168.927 670.364 168.888L670.668 171.08C624.939 168.836 586.523 179.508 550.663 142.24C522.74 113.22 523.421 89.1626 523.423 51.75L523.467 0Z"/><path fill="#0CD5D9" d="M41.6236 381.955C46.0181 372.769 51.5529 367.056 63.3036 372.137C67.4675 373.937 69.4049 377.515 70.767 381.745C71.4381 382.687 71.5248 382.584 71.4923 383.633C64.5116 400.365 49.0409 401.107 41.8439 383.933C41.7444 383.225 41.642 382.668 41.6236 381.955Z"/><path fill="#0CD5D9" d="M1128.26 303.078C1121.54 324.264 1095.76 313.087 1100.52 298.665C1101.78 294.905 1104.51 291.812 1108.08 290.082C1117.59 285.485 1124.9 292.53 1128.5 300.714C1128.84 302.007 1128.8 301.879 1128.26 303.078Z"/><path fill="#0CD5D9" d="M194.001 720.322C196.469 718.725 196.107 716.581 198.128 714.174C201.059 710.684 204.418 708.806 208.873 708.575C217.326 708.136 225.272 716.148 222.529 724.82C218.411 737.845 198.414 736.569 195.598 723.371C195.463 722.652 195.053 722.179 194.617 721.634L194.001 720.322Z"/><path fill="#0CD5D9" d="M359.048 685.624C355.159 684.656 350.279 683.471 348.669 679.497C338.926 655.442 380.232 654.408 373.292 678.309C371.784 683.502 364.901 684.105 360.714 685.784L359.048 685.624Z"/><path fill="#152238" d="M438.664 768C439.504 752.779 444.003 742.326 455.349 731.922C467.232 721.025 480.298 718.151 496.051 717.86C512.946 717.547 529.876 717.612 546.795 717.526C564.069 717.441 581.344 717.478 598.618 717.637C604.759 717.661 611.606 717.761 617.656 717.657C649.751 717.101 673.793 735.967 676.521 768L674.397 768C673.706 757.327 670.938 748.161 664.078 739.74C654.691 728.387 641.234 721.16 626.585 719.604C619.607 718.923 608.87 719.224 601.618 719.221L560.254 719.193L516.63 719.325C505.141 719.374 493.542 718.824 482.237 720.927C457.352 725.557 442.596 743.626 440.328 768L438.664 768Z"/><path fill="#0CD5D9" d="M980.165 699.277C981.456 698.888 981.402 698.907 982.692 699.3C990.18 700.197 996.963 704.229 995.743 712.841C995.299 716.101 993.557 719.044 990.911 721.001C989.343 722.154 988.346 722.607 986.453 722.69C983.433 722.784 983.03 722.671 980.109 723.615C978.526 723.312 977.268 723.114 975.766 722.455C972.564 721.044 970.066 718.402 968.836 715.126C965.551 706.436 973.528 701.778 980.165 699.277Z"/><path fill="#0CD5D9" d="M881.329 35.8672C893.072 39.08 900.172 48.9915 887.569 58.4247C885.581 59.9128 882.675 59.2527 880.471 61.0585L878.966 60.9303C875.668 59.1786 873.586 59.6297 870.587 56.6797C862.985 49.2019 868.791 36.1213 879.426 36.6528L881.329 35.8672Z"/><path fill="#17B8BE" d="M0 604.016C19.0263 608.558 32.8862 618.558 43.5252 635.192C51.1978 647.189 51.4568 657.632 55.2786 670.647C62.3164 694.612 82.7373 711.957 106.785 717.579C119.279 720.5 129.022 720.049 141.738 719.859C150.168 720.092 189.212 719.357 194.001 720.322L194.617 721.634C170.689 721.781 144.619 721.103 120.926 721.811C91.8817 719.552 60.1639 700.9 53.422 671.967C45.3841 637.473 37.768 617.254 0 605.989L0 604.016Z"/><path fill="#17B8BE" d="M266.494 298.29L268.436 299.188C266.285 324.696 258.261 343.97 238.231 360.959C226.961 370.483 213.643 377.274 199.316 380.802C182.517 384.898 164.397 384.18 147.177 384.043C122.51 383.845 97.8529 384.178 73.1942 383.93C72.7051 383.925 71.9689 383.742 71.4923 383.633C71.5248 382.584 71.4381 382.687 70.767 381.745L138.118 381.933C156.779 381.979 181.031 383.214 198.746 378.863C213.199 375.202 226.613 368.255 237.944 358.564C256.881 342.245 264.618 322.726 266.494 298.29Z"/><path fill="#0F4857" d="M141.738 719.859C156.885 719.007 179.595 720.214 193.711 717.687C196.903 712.445 193.727 708.359 204.412 704.221C206.615 704.321 208.472 704.167 210.34 705.232L210.863 706.352C208.893 706.986 205.386 707.023 203.194 707.138C211.218 706.768 213.552 705.595 219.693 710.949C226.096 716.531 224.206 720.777 223.55 728.409C224.993 725.655 226.366 722.866 227.668 720.043C228.255 721.421 227.249 722.561 227.465 723.742C228.026 726.807 229.993 728.845 228.451 732.042C227.075 734.895 221.137 739.203 218.18 740.356C215.247 741.5 212.406 741.113 209.534 740.302L210.302 740.359L207.86 739.329L207.585 738.394C208.755 737.685 209.595 737.31 210.423 736.211C206.669 734.869 202.631 734.384 199.051 732.796C196.943 731.861 194.592 724.267 192.539 723.626C183.082 720.671 124.295 724.06 120.926 721.811C144.619 721.103 170.689 721.781 194.617 721.634C195.053 722.179 195.463 722.652 195.598 723.371C198.414 736.569 218.411 737.845 222.529 724.82C225.272 716.148 217.326 708.136 208.873 708.575C204.418 708.806 201.059 710.684 198.128 714.174C196.107 716.581 196.469 718.725 194.001 720.322C189.212 719.357 150.168 720.092 141.738 719.859Z"/><path fill="#17B8BE" d="M679.509 590.717C693.997 592.383 709.348 603.856 718.217 615.057C734.422 635.523 732.353 654.62 732.248 679.093L732.047 719.807C731.97 740.538 731.683 749.53 742.064 768L739.557 768C729.661 749.335 730.111 741.701 730.165 720.78L730.318 677.705C730.347 667.614 730.701 654.417 729.023 644.662C727.817 637.459 725.392 630.514 721.851 624.127C712.451 607.264 697.837 597.547 679.657 592.342L679.509 590.717Z"/><path fill="#17B8BE" d="M654.013 0L657.009 0C683.502 28.5847 678.185 48.5567 678.067 85.276L677.909 136.163C677.899 139.704 677.698 160.803 678.165 163.102C676.962 163.196 676.678 163.267 675.508 163.059C675.578 162.716 675.697 162.192 675.695 161.84C675.421 121.154 676.751 80.0856 675.163 39.473C674.54 23.5528 664.588 11.0427 654.013 0Z"/><path fill="#17B8BE" d="M1456.44 317.084C1457.04 306.554 1455.71 295.183 1457.94 284.819C1462.3 264.598 1479.11 249.215 1498.21 242.685C1510.52 238.477 1523.22 239.222 1536 239.708L1536 241.509C1522.9 241.381 1509.95 240.395 1497.5 245.116C1473.43 254.237 1458.94 273.425 1458.71 299.257C1458.71 305.195 1458.76 311.132 1458.86 317.069C1458.06 316.931 1457.24 316.936 1456.44 317.084Z"/><path fill="#F4F5F5" d="M1275.99 438.291L1277.15 438.739L1277.7 440.777C1271.97 481.271 1242.77 496.707 1205.2 500.254L1204.76 498.33C1241.7 495.14 1272.11 478.603 1275.99 438.291Z"/><path fill="#F4F5F5" d="M266.494 298.29C270.68 263.043 299.583 243.495 333.22 240.98C333.504 241.601 333.667 242.081 333.899 242.72C327.238 243.362 321.832 244.061 315.371 245.823C291.547 252.322 269.722 273.463 268.436 299.188L266.494 298.29Z"/><path fill="#17B8BE" d="M359.048 685.624L360.714 685.784C361.577 712.189 360.926 741.405 360.838 768L359.091 768L359.048 685.624Z"/><path fill="#F4F5F5" d="M1190.65 498.131C1195.22 491.261 1203.84 490.002 1204.76 498.33L1205.2 500.254C1203.88 503.855 1203.69 504.201 1200.23 505.724C1199.19 505.788 1198.6 505.805 1197.56 506.01C1193 503.967 1193.14 504.297 1190.89 499.616L1190.65 498.131Z"/><path fill="#F4F5F5" d="M338.941 235.226C339.745 235.261 340.793 235.066 341.617 234.948C346.108 236.73 345.649 237.273 348.478 241.086C348.38 241.679 348.282 242.093 348.146 242.674C344.193 250.117 337.646 250.436 333.899 242.72C333.667 242.081 333.504 241.601 333.22 240.98C335.865 238.146 334.798 237.384 338.941 235.226Z"/><path fill="#F4F5F5" d="M675.508 163.059C676.678 163.267 676.962 163.196 678.165 163.102C681.924 164.746 682.785 165.637 684.73 169.402L684.478 171.068C682.71 172.75 682.272 174.965 679.634 175.794C675.274 177.164 671.969 175.394 670.668 171.08L670.364 168.888C671.9 165.503 672.5 165.013 675.508 163.059Z"/><path fill="#0CD5D9" d="M665.413 590.061C667.286 587.443 668.223 584.024 672.006 583.589C677.012 583.013 679.236 586.405 679.509 590.717L679.657 592.342C673.605 600.549 670.025 595.865 665.46 590.728L665.413 590.061Z"/><path fill="#17B8BE" d="M980.109 723.615C983.03 722.671 983.433 722.784 986.453 722.69C985.238 723.178 982.832 723.826 982.746 724.814C981.661 737.322 982.442 755.841 982.334 768L980.162 768C980.26 753.205 980.242 738.409 980.109 723.615Z"/><path fill="#17B8BE" d="M0 381.933C13.0966 381.862 28.7226 381.381 41.6236 381.955C41.642 382.668 41.7444 383.225 41.8439 383.933C29.0352 384.448 13.0643 384.015 0 384.036L0 381.933Z"/><path fill="#17B8BE" d="M878.954 0L881.155 0C881.225 11.8862 881.127 24.0033 881.329 35.8672L879.426 36.6528C878.465 29.0607 879.016 8.68939 878.954 0Z"/><path fill="#0CD5D9" d="M878.966 60.9303L880.471 61.0585C881.019 66.3625 880.848 76.2162 880.684 81.7373L879.009 81.1397C878.792 74.9192 878.819 67.1668 878.966 60.9303Z"/><path fill="#152238" d="M95.376 426.237L177.927 426.151C197.919 426.146 213.509 429.286 228.336 444.222C236.57 452.573 242.372 463.011 245.119 474.412C247.655 485.357 246.662 514.908 246.661 527.508L246.641 621.039C237.303 620.997 227.88 620.976 218.586 620.841C179.847 620.705 143.183 603.401 119.955 572.111C109.736 558.345 104.461 548.549 99.6467 531.714C94.4351 513.491 95.3617 498.04 95.4063 479.335L95.376 426.237Z"/><path fill="#0B1926" d="M96.6619 427.854C115.514 428.701 135.901 427.789 155.251 428.069C182.512 428.201 205.76 424.806 226.957 445.6C249.453 467.668 244.636 497.14 244.595 525.731L244.544 618.863C201.349 618.912 173.238 618.749 137.663 588.422C84.2813 542.917 100.555 488.64 96.6619 427.854Z"/><path fill="#F4F5F5" d="M160.743 483.081C165.172 482.32 169.4 485.229 170.273 489.637C171.145 494.046 168.343 498.346 163.958 499.329C161.022 499.987 157.96 499.001 155.959 496.753C153.958 494.506 153.333 491.35 154.327 488.509C155.321 485.669 157.777 483.591 160.743 483.081Z"/><path fill="#17B8BE" d="M1291.27 67.1126L1457.23 66.9992C1456.81 84.8666 1459.57 124.913 1455.91 140.228C1454.05 148.009 1450.29 155.209 1444.97 161.186C1433.44 174.117 1419.79 177.414 1403.32 178.377L1331.04 178.376C1317.54 178.399 1289.67 179.735 1278.01 176.439C1216.64 159.091 1222.91 70.26 1291.27 67.1126Z"/><path fill="#0B1926" d="M1288.47 69.3183C1301.9 68.2277 1330.38 69.0024 1344.63 68.9927L1454.96 68.9872C1455.05 82.5193 1456.22 129.59 1453.75 139.873C1451.97 147.135 1448.5 153.873 1443.62 159.541C1433.78 170.987 1421.56 175.126 1406.98 176.223L1331.61 176.239C1317.74 176.228 1290.96 177.607 1278.9 174.423C1220.59 159.026 1225.26 73.9954 1288.47 69.3183Z"/><path fill="#F4F5F5" d="M1309.65 116.399C1312.42 115.14 1315.66 115.495 1318.09 117.324C1320.53 119.154 1321.77 122.167 1321.33 125.18C1320.89 128.194 1318.84 130.727 1315.99 131.785C1311.78 133.343 1307.1 131.294 1305.39 127.149C1303.69 123.005 1305.57 118.253 1309.65 116.399Z"/></svg>