<?xml version="1.0" encoding="utf-8" ?><svg xmlns="http://www.w3.org/2000/svg" xmlns:xlink="http://www.w3.org/1999/xlink" width="1024" height="1024" viewBox="0 0 1024 1024"><path fill="#152238" d="M406.262 210.086C405.969 195.585 416.833 174.007 427.098 163.6C441.96 148.532 461.428 138.881 482.797 138.422C495.811 138.142 509.347 138.635 522.055 138.374C551.696 137.765 575.12 138.39 598.012 160.466C615.191 177.032 621.972 197.026 622.013 220.607C622.03 230.505 621.657 243.834 622.181 253.506C623.058 269.669 633.354 288.97 644.834 300.348C656.645 311.978 671.657 319.818 687.949 322.865C698.37 324.903 714.002 324.441 724.979 324.43L767.408 324.275C776.971 324.236 787.365 323.939 796.744 324.878C829.504 328.156 860.306 344.448 880.363 370.791C899.897 396.446 906.648 419.412 906.985 451.16L907.04 520.87C907.101 543.995 908.53 579.268 903.236 600.436C898.049 621.344 887.38 640.489 872.328 655.9C849.489 679.321 819.546 692.85 786.844 692.62C773.78 692.527 760.4 692.596 747.363 692.971C745.262 700.094 742.652 705.459 735.661 709.234C730.398 712.02 724.231 712.558 718.565 710.724C710.857 708.267 707.284 703.354 703.465 696.87C700.768 696.681 698.046 696.55 695.343 696.594C679.039 696.853 662.472 696.162 646.203 696.929C643.756 705.37 636.845 709.065 629.217 711.849C625.493 737.251 611.672 760.073 590.886 775.142C580.258 783.004 568.041 788.448 555.088 791.092C541.672 793.892 528.253 793.156 514.585 793.148L458.728 793.109C448.767 793.106 435.039 792.725 425.48 793.545C421.07 806.569 412.451 811.081 399.191 810.32C394.343 825.041 385.398 839.703 374.234 850.471C360.841 863.591 344.166 872.868 325.956 877.328C311.68 880.822 299.695 880.259 285.162 880.307L250.232 880.307C222.057 880.253 192.962 880.579 164.866 880.096C164.415 874.946 164.717 862.757 164.68 857.248C164.544 839.414 164.643 821.578 164.979 803.746C165.596 770.02 175.504 741.718 200.28 717.9C217.111 701.943 245.446 686.063 269.146 685.106C293.391 684.126 321.19 683.686 345.533 684.293C357.324 682.48 371.862 674.817 380.702 667.442C403.793 648.178 411.777 624.151 411.266 594.945C410.874 572.566 408.552 556.106 393.377 538.12C382.876 525.672 365.357 513.787 349.136 512.223C342.179 511.78 333.433 511.97 326.344 511.976L285.311 512C251.11 511.811 222.281 502.966 198.223 477.864C166.077 444.323 164.478 415.824 164.558 373.164L164.716 324.849C169.845 324.232 187.405 324.802 193.372 324.805L247.403 324.898C257.162 324.933 269.307 325.304 278.917 324.795C285.955 268.328 325.087 228.358 383.161 226.436C385.837 215.204 395.783 211.067 406.262 210.086ZM624.318 657.749L624.29 666.156C636.096 668.14 641 671.057 646.627 682.009C665.111 682.055 683.596 681.979 702.08 681.782C702.279 681.298 702.483 680.817 702.693 680.338C706.123 672.551 710.829 668.726 718.504 665.78C718.979 660.518 718.805 652.892 718.797 647.492L718.75 617.544L718.631 517.686L718.722 438.372C718.737 425.813 719.363 403.334 717.508 391.829C715.154 377.878 709.079 364.82 699.925 354.032C686.401 337.959 677.738 336.034 659.897 327.934C638.182 318.076 625.75 301.352 614.51 281.191C600.347 309.723 580.4 328.962 547.201 332.713C535.786 334.002 524.498 332.999 513.232 333.31C485.922 334.066 460.187 334.856 437.789 316.285C418.363 300.523 409.01 280.849 406.466 256.273C395.33 255.567 387.922 250.918 383.337 240.637C359.391 242.495 343.206 247.248 324.253 263.476C306.443 278.725 295.01 300.968 293.514 324.507L294.217 324.571C302.477 325.279 313.011 324.272 321.621 324.674C348.124 325.91 368.635 336.298 385.705 356.489C399.54 372.854 405.373 391.785 405.743 412.997C405.903 422.149 405.586 432.227 407.304 440.999C414.287 476.638 443.606 502.52 479.642 505.185C525.896 508.604 569.947 493.43 604.1 534.814C626.013 561.365 624.501 581.585 624.465 613.056L624.318 657.749ZM403.633 763.299C413.497 765.298 419.957 769.152 423.906 778.69C448.001 779.309 473.684 778.56 497.956 778.803C510.532 778.93 537.971 779.414 548.664 777.717C559.181 776.025 569.248 772.224 578.259 766.543C599.88 752.968 609.907 734.735 615.306 710.648C606.394 706.553 602.981 700.709 600.837 691.474C571.277 692.873 541.1 691.27 511.487 691.848C496.079 692.15 477.098 690.273 462.355 693.946C429.61 702.103 407.172 730.313 403.633 763.299Z"/><path fill="#17B8BE" d="M164.866 880.096C164.415 874.946 164.717 862.757 164.68 857.248C164.544 839.414 164.643 821.578 164.979 803.746C165.596 770.02 175.504 741.718 200.28 717.9C217.111 701.943 245.446 686.063 269.146 685.106C293.391 684.126 321.19 683.686 345.533 684.293L345.118 684.534C339.45 687.754 332.909 689.961 327.058 693.233C297.963 709.507 283.689 733.403 278.334 765.555C271.083 767.888 265.294 770.18 261.453 777.438C254.966 789.698 262.238 803.28 274.074 808.646C279.928 811.291 286.589 811.518 292.61 809.278C298.504 807.024 302.904 802.287 305.358 796.548C305.775 795.558 306.162 794.555 306.52 793.541C330.814 793.455 355.537 793.156 379.807 793.372C383.025 800.499 386.706 806.003 394.528 808.913C396.047 809.491 397.605 809.961 399.191 810.32C394.343 825.041 385.398 839.703 374.234 850.471C360.841 863.591 344.166 872.868 325.956 877.328C311.68 880.822 299.695 880.259 285.162 880.307L250.232 880.307C222.057 880.253 192.962 880.579 164.866 880.096Z"/><path fill="#17B8BE" d="M164.716 324.849C169.845 324.232 187.405 324.802 193.372 324.805L247.403 324.898C257.162 324.933 269.307 325.304 278.917 324.795L278.842 359.5C278.817 365.559 278.509 373.184 278.813 379.044C270.989 382.628 265.168 386.414 262.101 395.174C260.203 400.661 260.585 406.681 263.159 411.885C266.144 417.895 271.597 421.749 277.877 423.722C282.837 468.954 308.363 496.759 350.397 511.534L350.362 511.988L349.136 512.223C342.179 511.78 333.433 511.97 326.344 511.976L285.311 512C251.11 511.811 222.281 502.966 198.223 477.864C166.077 444.323 164.478 415.824 164.558 373.164L164.716 324.849Z"/><path fill="#17B8BE" d="M293.514 324.507L294.217 324.571C302.477 325.279 313.011 324.272 321.621 324.674C348.124 325.91 368.635 336.298 385.705 356.489C399.54 372.854 405.373 391.785 405.743 412.997C405.903 422.149 405.586 432.227 407.304 440.999C414.287 476.638 443.606 502.52 479.642 505.185C525.896 508.604 569.947 493.43 604.1 534.814C626.013 561.365 624.501 581.585 624.465 613.056L624.318 657.749C624.205 660.814 624.156 663.328 624.244 666.395C616.965 666.73 611.268 668.62 606.237 674.334C602.298 678.79 600.322 684.646 600.754 690.577C600.782 690.876 600.81 691.175 600.837 691.474C571.277 692.873 541.1 691.27 511.487 691.848C496.079 692.15 477.098 690.273 462.355 693.946C429.61 702.103 407.172 730.313 403.633 763.299C392.008 763.25 385.151 768.124 380.365 778.475L305.611 778.512C302.235 771.568 298.834 768.915 292.342 765.482C297.917 736.767 314.999 713.386 342.041 701.479C347.821 698.934 354.712 697.141 360.721 694.929C374.333 689.791 386.672 681.771 396.893 671.418C423.4 644.521 425.624 620.553 425.424 585.214C443.182 600.808 472.988 609.817 496.51 607.992L496.664 608.41L496.928 609.105C501.109 620.334 511.067 626.553 523.041 624.346C549.545 619.459 548.135 582.268 521.815 578.726C509.579 577.079 503.185 584.086 498.007 593.985C470.754 595.59 438.774 584.896 422.087 561.473C420.464 559.196 417.935 551.193 416.415 547.98C410.202 534.793 400.428 523.27 388.96 514.332C385.363 511.528 381.438 509.07 377.44 506.801C361.399 497.701 342.495 496.026 327.51 484.809C317.966 477.665 310.806 469.395 304.425 459.394C297.284 448.2 294.74 436.932 292.704 424.091C297.762 421.709 301.589 419.067 304.6 414.169C307.917 408.808 308.839 402.303 307.14 396.232C304.935 388.421 299.866 383.924 293.204 380.046L293.514 324.507Z"/></svg>